<svg xmlns="http://www.w3.org/2000/svg" width="13.6" height="24.75" viewBox="0 0 13.6 24.75"><defs><style>.cls-1{fill:#fff;fill-rule:evenodd}</style></defs><path id="фб" class="cls-1" d="M1459.41 6129.74l-3.26-.01c-3.67 0-6.03 2.39-6.03 6.09v2.8h-3.28a.514.514 0 0 0-.52.51v4.06a.514.514 0 0 0 .52.51h3.28v10.25a.512.512 0 0 0 .51.51h4.28a.512.512 0 0 0 .51-.51v-10.25h3.83a.514.514 0 0 0 .52-.51v-4.06a.533.533 0 0 0-.15-.36.554.554 0 0 0-.36-.15h-3.84v-2.37c0-1.15.28-1.73 1.79-1.73h2.2a.5.5 0 0 0 .51-.5v-3.78a.5.5 0 0 0-.51-.5z" transform="translate(-1446.31 -6129.72)"/></svg>