<svg xmlns="http://www.w3.org/2000/svg" width="23" height="23" viewBox="0 0 23 23"><defs><style>.cls-1{fill:#fff;fill-rule:evenodd}</style></defs><path class="cls-1" d="M11.5 5.58a5.92 5.92 0 1 0 5.92 5.92 5.919 5.919 0 0 0-5.92-5.92zm0 9.34a3.42 3.42 0 1 1 3.42-3.42 3.425 3.425 0 0 1-3.42 3.42zm7.51-9.52a1.4 1.4 0 1 1-1.4-1.4 1.4 1.4 0 0 1 1.4 1.4zM17.2 0H5.8A5.8 5.8 0 0 0 0 5.8v11.4A5.8 5.8 0 0 0 5.8 23h11.4a5.8 5.8 0 0 0 5.8-5.8V5.8A5.8 5.8 0 0 0 17.2 0zm3.3 17.2a3.3 3.3 0 0 1-3.3 3.3H5.8a3.3 3.3 0 0 1-3.3-3.3V5.8a3.3 3.3 0 0 1 3.3-3.3h11.4a3.3 3.3 0 0 1 3.3 3.3v11.4z"/></svg>