<?xml version="1.0" encoding="utf-8"?>
<!-- Generator: Adobe Illustrator 15.0.0, SVG Export Plug-In . SVG Version: 6.00 Build 0)  -->
<!DOCTYPE svg PUBLIC "-//W3C//DTD SVG 1.1//EN" "http://www.w3.org/Graphics/SVG/1.1/DTD/svg11.dtd">
<svg version="1.1" id="Layer_1" xmlns="http://www.w3.org/2000/svg" xmlns:xlink="http://www.w3.org/1999/xlink" x="0px" y="0px"
	 width="595.281px" height="293px" viewBox="0 270.445 595.281 293" enable-background="new 0 270.445 595.281 293"
	 xml:space="preserve">
<path fill="#FFFFFF" d="M19.882,400.915c0-11.771,7.122-23.146,35.017-23.048c21.168,0,32.346,7.814,32.247,20.971v10.584H58.262
	v-13.947c0-2.474,0-5.144-5.144-5.144c-3.264,0-4.352,2.274-4.352,4.945v42.93c0,2.572,1.088,4.946,4.352,4.946
	c5.144,0,5.144-2.868,5.144-6.034v-15.134h28.884v12.364c0,13.156-12.463,21.465-32.939,21.465
	c-28.983,0-34.324-11.276-34.324-23.146V400.915 M96.246,379.647l28.883-0.099l0.198,27.004h10.881l-0.099-27.103l28.884-0.198
	l0.396,74.683l-28.884,0.197l-0.198-31.356l-10.98,0.099l0.198,31.258l-28.884,0.198L96.246,379.647 M174.192,379.647h28.883v74.683
	h-28.883V379.647 M210.495,401.212c-0.099-11.87,6.825-23.146,34.72-23.443c21.168-0.198,32.346,7.518,32.543,20.673l0.099,10.584
	l-28.884,0.297l-0.099-13.947c0-2.473,0-5.144-5.242-5.044c-3.265,0-4.353,2.374-4.353,4.945l0.396,42.831
	c0,2.572,1.187,4.946,4.451,4.847c5.144,0,5.144-2.868,5.144-6.133l-0.099-15.134l28.884-0.297l0.099,12.364
	c0.099,13.156-12.167,21.564-32.741,21.762c-28.982,0.297-34.423-10.979-34.522-22.751L210.495,401.212 M315.248,438.107
	c0,2.572,1.088,4.946,5.539,4.946c4.352,0,5.439-2.275,5.439-4.946l-0.098-42.831c0-2.671-1.088-4.945-5.441-4.945
	c-4.352,0-5.439,2.274-5.439,4.945V438.107 M286.364,400.915c0-11.771,5.341-23.146,34.323-23.146
	c28.982,0,34.324,11.276,34.324,23.047l0.1,31.555c0,11.87-5.342,23.146-34.324,23.146s-34.324-11.276-34.324-23.047
	L286.364,400.915L286.364,400.915z M392.304,411.301h4.945c5.045,0,6.924-1.582,6.924-4.55v-10.188c0-2.968-1.879-4.451-6.924-4.451
	h-5.045L392.304,411.301 M364.41,379.647h37.785c16.617,0,26.51,5.44,26.51,17.014v9.199c0,10.782-5.936,18.003-23.84,18.003
	h-12.561v30.467H364.41V379.647L364.41,379.647z M437.904,379.549l48.766,0.099l-0.098,15.035h-19.883v13.65l18.596,0.1v14.441
	l-18.695-0.099v16.42h21.465v15.135l-50.348-0.099L437.904,379.549 M560.857,463.331v-9.396h2.275l2.375,7.518l2.273-7.518h2.275
	v9.396h-1.385v-7.913l-2.373,7.913h-1.484l-2.473-8.012v8.012H560.857 M555.121,463.331v-8.012h-3.066v-1.385h7.715v1.385h-3.066
	v8.012H555.121L555.121,463.331z M496.462,379.549l48.766,0.099v15.035h-19.98v13.65l18.695,0.1l-0.1,14.441l-18.596-0.099
	l-0.1,16.42h21.564l-0.1,15.135l-50.348-0.099L496.462,379.549"/>
<path fill="#FFFFFF" d="M59.746,522.385l0.099,0.692l-0.297,0.594l-0.297,0.593l-0.198,0.495l-0.297,0.396l-0.296,0.494
	l-0.198,0.495l-0.296,0.594l-0.297,0.692l-0.396,0.692l-0.297,0.593l-0.297,0.396l-0.396,0.494l-0.792,1.286l-0.396,0.494
	l-0.297,0.396l-0.792,0.792l-0.396,0.297l-0.792,0.791l-0.396,0.396l-0.989,0.495l-0.791,0.296l-0.792,0.396l-0.396,0.099
	l-0.594,0.297l-0.792,0.099l-0.791,0.099l-1.187-0.099h-0.594l-0.593-0.099l-1.187-0.396l-0.989-0.594l-0.396-0.297l-0.396-0.396
	l-0.396-0.396l-0.297-0.396l-0.296-0.494l-0.297-0.494l-0.297-0.594l-0.099-0.594l-0.198-1.682l-0.099-0.594v-0.494l0.297-1.188
	l0.198-0.791l0.296-0.989l0.297-0.791l0.297-0.594l0.198-0.494l0.297-0.495l0.297-0.396l0.296-0.494l0.792-1.385l0.396-0.594
	l0.396-0.594l0.495-0.594l0.296-0.494l0.396-0.692l0.396-0.594l0.297-0.594v-0.692l-0.198-0.791l-0.297-0.594l-0.989-1.286
	l-0.396-0.396l-0.495-0.593l-0.692-0.495l-0.594,0.099l-0.396,0.495l-0.297,0.494l-0.297,0.495l-0.296,0.494l-0.594,0.891
	l-0.396,0.396l-1.286,1.286l-0.89,0.791l-0.396,0.297l-0.594,0.396l-1.187,0.692l-0.593,0.396l-0.495,0.297l-1.088,0.396
	l-0.593,0.198l-0.495,0.197l-0.593,0.1l-0.692,0.297l-0.594,0.396l-0.297,0.494l-0.495,0.989l-0.198,0.495l-0.198,0.593
	l-0.297,0.495l-0.296,0.494l-0.594,0.989l-0.297,0.495l-0.296,0.593l-0.198,0.396l-0.396,0.593l-0.297,0.495l-0.989,1.286
	l-0.396,0.396l-0.396,0.494l-0.396,0.396l-0.396,0.396l-0.791,0.792l-0.396,0.396l-0.89,0.791l-0.989,0.594l-0.396,0.297
	l-0.495,0.297l-0.593,0.297l-0.792,0.396l-1.187,0.594l-0.594,0.197l-0.494,0.198l-0.594,0.099l-1.682,0.198h-1.187l-1.187-0.1
	l-0.791-0.099l-0.792-0.099l-1.187-0.297l-0.594-0.099l-1.088-0.1l-0.692-0.297l-0.495-0.297l-0.495-0.296l-0.495-0.396
	l-0.396-0.396l-1.286-1.285l-0.396-0.396l-0.297-0.396l-0.593-0.989l-0.297-0.396l-0.297-0.494l-0.296-0.495l-0.198-0.594
	l-0.296-1.187l-0.099-0.594l-0.198-0.494l-0.099-0.594l-0.099-0.594v-0.692l-0.099-0.791L0,522.285v-0.593l0.198-1.682v-0.692
	l0.099-0.594l0.099-0.594l0.099-0.594l0.099-0.593l0.198-0.792l0.198-0.791l0.198-0.594l0.198-0.494l0.297-0.594l0.198-0.494
	l0.198-0.594l0.297-0.791l0.396-0.792l0.297-0.593l0.396-0.594l0.594-0.594l0.593-0.297l0.594,0.099l0.593,0.198l0.594,0.297
	l0.495,0.396l0.396,0.396l0.099,0.594l-0.099,0.594l-0.198,0.593l-0.495,0.989l-0.297,0.594l-0.198,0.692l-0.495,1.484l-0.198,0.593
	l-0.099,0.594l-0.099,0.494l-0.099,0.594L4.847,521v1.187l0.099,0.692l0.099,0.594v0.494l0.099,0.594l0.297,1.188l0.099,0.494
	l0.198,0.594l0.099,0.494l0.198,0.594l0.297,0.594l0.297,0.494l0.297,0.396l0.396,0.495l0.297,0.297l0.396,0.396l0.396,0.396
	l0.396,0.297l0.495,0.297l0.791,0.297l0.792,0.197l0.692,0.1l1.187,0.099h0.593l0.594-0.099l0.593-0.1l0.495-0.197l0.594-0.198
	l0.495-0.198l0.593-0.197l0.396-0.297l0.494-0.297l0.594-0.396l0.396-0.297l0.891-0.791l1.483-1.78l0.297-0.396l0.396-0.494
	l0.297-0.396l0.495-0.989l0.297-0.594l0.198-0.396l0.396-0.594l0.495-0.989l0.297-0.593l0.297-0.495l0.198-0.594l0.099-0.396
	l-0.198-0.297l-0.396-0.197l-1.187-0.1l-1.187-0.296l-0.594-0.198l-0.296-0.099l-1.187-0.297l-0.594-0.198l-1.583-0.593
	l-0.495-0.297l-0.495-0.297l-0.989-0.594l-0.495-0.396l-0.296-0.297l-0.594-0.396l-0.495-0.297l-0.791-0.791l-0.396-0.396
	l-1.187-1.187l-0.396-0.396l-0.297-0.495l-0.297-0.396l-0.396-0.494l-0.297-0.396l-0.296-0.594l-0.495-0.989l-0.198-0.494
	l-0.198-0.594l-0.396-1.088l-0.198-0.594l-0.198-0.297l-0.099-0.594l-0.099-0.594l-0.099-0.593l-0.099-0.495v-1.187l0.099-0.594
	l0.099-0.594v-0.594l0.099-0.494l0.297-1.187l0.297-0.792l0.296-0.791l0.297-0.594l0.495-0.989l0.297-0.396l0.396-0.396l0.297-0.297
	l0.396-0.494l0.396-0.396l0.396-0.396l0.396-0.297l0.495-0.396l1.385-0.791l0.594-0.297l0.396-0.099l0.692-0.297l1.484-0.396
	l0.593-0.1l0.594-0.099h2.77l1.187,0.099l0.792,0.198l0.791,0.198l1.286,0.396l0.792,0.297l0.593,0.296l0.989,0.594l0.593,0.396
	l0.594,0.594l0.396,0.396l0.297,0.396l0.297,0.396l0.396,0.396l0.297,0.494l0.593,1.188l0.297,0.791l0.297,0.594l0.296,0.791
	l0.297,0.989l0.198,0.791l0.099,0.594l0.099,0.791l0.099,0.792l0.099,0.594l0.099,0.593l-0.099,0.594v2.77l-0.099,1.188
	l-0.099,0.593l-0.099,0.792l-0.099,0.791v0.594l-0.099,0.791l-0.198,0.791l-0.099,0.594l-0.297,1.188v0.692l0.396,0.396h0.692
	l0.593-0.297l0.989-0.396l0.593-0.297l0.594-0.297l0.495-0.297l0.495-0.297l0.495-0.396l1.583-1.583l0.396-0.396l0.297-0.494
	l0.297-0.594l0.198-0.396l0.297-0.594l0.296-0.594l0.099-0.593l-0.198-0.692l-0.297-0.692l-0.297-0.594l-0.296-0.692l-0.198-0.791
	v-0.594l0.099-0.791l0.297-0.989l0.396-0.594l0.495-0.396l0.692-0.297l0.792-0.1l0.593,0.1l0.495,0.297l0.396,0.396l0.297,0.396
	l0.297,0.494l0.099,0.792l0.099,0.791v1.385l0.099,0.792l0.296,0.396l0.792,0.89l0.495,0.495l0.396,0.396l0.396,0.297l0.791,0.791
	l0.396,0.396l0.396,0.396l0.297,0.396l0.396,0.396l0.692,0.791l0.396,0.594l0.297,0.396l0.297,0.494l0.297,0.594l0.198,0.495v0.593
	l-0.099,0.495l-0.198,0.594l-0.297,0.494l-0.296,0.396l-0.297,0.396l-0.396,0.495l-0.396,0.396l-0.297,0.396l-0.396,0.495
	l-0.297,0.494l-0.296,0.494l-0.297,0.396l-0.297,0.494l-0.297,0.396l-0.396,1.088l-0.297,0.495l-0.296,0.594l-0.099,0.494
	l-0.198,0.594l-0.099,0.594l-0.099,1.187v1.188l0.099,0.593l0.198,0.594l0.198,0.495l0.296,0.494l0.594,0.494l0.692,0.297l0.593,0.1
	l0.792-0.1l0.792,0.396l0.593-0.197l0.495-0.198l0.495-0.297l0.593-0.396l0.594-0.593l0.396-0.396l0.792-0.791l0.495-0.594
	l0.593-0.791l0.495-0.692l0.297-0.495l0.593-0.988l0.396-0.792l0.396-0.594l0.297-0.593l0.791-1.682l0.594-0.594l0.792,0.198
	L59.746,522.385L59.746,522.385z M26.51,514.175l0.099-0.792l0.099-0.593l0.099-0.792l0.099-0.791l0.099-0.594l0.099-0.791
	l0.099-0.791l0.099-0.594l0.099-0.792v-1.285l-0.099-0.594l-0.099-0.594l-0.099-0.791v-0.792l-0.099-0.593l-0.198-0.792
	l-0.099-0.791l-0.198-0.594l-0.198-0.494l-0.297-0.594l-0.297-0.692l-0.396-0.692l-0.396-0.494l-0.396-0.396l-0.396-0.296
	l-0.396-0.297l-0.495-0.297l-0.495-0.198l-0.594-0.297l-0.791-0.197l-0.989-0.1h-1.088l-1.088,0.1l-0.989,0.197l-0.792,0.297
	l-0.593,0.297l-0.593,0.396l-0.594,0.495l-0.396,0.396l-0.297,0.396l-0.297,0.494l-0.297,0.792l-0.296,0.89l-0.297,0.792
	l-0.099,0.594l-0.099,1.187v0.594l0.099,0.594v1.187l0.099,0.594l0.099,0.593l0.396,1.188l0.297,0.494l0.198,0.594l0.297,0.495
	l0.296,0.593l0.297,0.594l0.396,0.396l0.297,0.396l0.792,0.891l0.495,0.494l0.296,0.297l0.989,0.891l0.396,0.297l0.89,0.692
	l0.593,0.396l0.792,0.396l0.396,0.198l0.692,0.297l1.187,0.396l0.594,0.099l1.187,0.297l0.593,0.099l0.495-0.099l0.396-0.494
	l0.297-0.989L26.51,514.175L26.51,514.175z"/>
<path fill="#FFFFFF" d="M72.506,521.889v0.692l-0.198,0.594l-0.495,0.989l-0.593,0.989l-0.297,0.594l-0.297,0.494l-0.396,0.594
	l-0.198,0.396l-0.297,0.594l-0.297,0.494l-0.297,0.396l-0.396,0.495l-0.297,0.396l-0.593,0.989l-1.187,1.286l-0.792,0.791
	l-0.396,0.396l-0.396,0.396l-0.396,0.396l-1.385,1.089l-0.396,0.297l-0.594,0.296l-0.593,0.198l-0.495,0.099l-1.187,0.297h-1.088
	l-0.692-0.099l-0.495-0.198l-0.593-0.197l-0.495-0.297l-0.396-0.396l-0.297-0.396l-0.297-0.495l-0.297-0.594l-0.099-0.494
	l-0.099-0.594l-0.099-0.594v-0.593l0.099-1.188l0.099-0.594l0.198-0.593l0.297-1.188l0.198-0.494l0.099-0.594l0.198-0.594
	l0.198-0.494l0.593-1.682l0.099-0.495l0.099-0.593l0.198-0.594l0.099-0.594L57.668,521l0.396-1.188l0.198-0.791l0.198-0.791
	l0.396-1.188l0.099-0.594l0.099-0.396l0.099-0.594l0.296-0.593l0.198-0.495l0.396-1.682l0.198-0.593l0.198-0.792l0.297-0.791
	l0.198-0.594l0.297-0.494l0.396-0.297l0.594-0.297l0.494-0.099l0.594,0.099l0.989,0.594l0.989,0.396l0.296,0.396v0.594l-0.099,0.593
	l-0.198,0.792l-0.198,0.791l-0.396,1.188l-0.099,0.494l-0.099,0.594l-0.198,0.594l-0.198,0.791l-0.594,1.879l-0.099,0.594
	l-0.297,0.791l-0.396,1.286l-0.099,0.594l-0.297,0.494l-0.099,0.594l-0.396,1.088l-0.099,0.594l-0.396,1.583l-0.396,1.187
	l-0.099,0.594l-0.198,0.791l-0.198,0.989l-0.099,1.088l0.099,0.989l0.495,0.692l0.692,0.198l0.594-0.099l0.593-0.297l0.396-0.297
	l0.495-0.396l2.078-2.077l0.396-0.396l0.297-0.396l0.396-0.494l0.593-0.989l0.396-0.396l0.297-0.396l0.296-0.495l0.396-0.594
	l0.296-0.593l0.495-1.088l0.792-1.484l0.297-0.494l0.593-0.297l0.792,0.099L72.506,521.889L72.506,521.889z M62.317,502.403
	l0.297-0.494l0.495-0.396l0.495-0.296l0.593-0.198l0.594-0.099h0.593l0.594,0.099l0.495,0.297l0.396,0.396l0.396,0.396l0.297,0.495
	l0.198,0.593l0.099,0.594v0.594l-0.198,0.594l-0.297,0.494l-0.396,0.495l-0.396,0.396l-0.495,0.396l-0.593,0.297l-0.594,0.099
	l-0.593-0.099l-0.594-0.1l-0.989-0.593l-0.396-0.396l-0.297-0.495l-0.099-0.594l-0.099-0.593l0.099-0.594l0.099-0.594
	L62.317,502.403L62.317,502.403z"/>
<path fill="#FFFFFF" d="M73.693,553.939L73,553.741l-0.396-0.099l-0.594-0.297l-0.495-0.297l-0.396-0.396l-0.396-0.396l-0.297-0.495
	l-0.396-0.692l-0.297-0.692l-0.099-0.594l-0.099-0.593l0.099-0.594l0.099-0.792l0.198-0.791l0.198-0.594l0.297-0.692l0.396-0.692
	l0.297-0.494l0.396-0.495l0.396-0.396l0.692-0.791l1.286-1.188l0.396-0.296l1.385-0.891l0.593-0.297l0.692-0.396l0.792-0.297
	l0.593-0.297l0.297-0.099l0.692-0.396l0.692-0.297l0.594-0.297l0.593-0.297l0.495-0.198l0.396-0.296l0.396-0.396l0.198-0.494
	l0.396-1.088l0.495-1.583l0.099-0.594l0.198-0.593l0.099-0.495l0.099-0.594l0.198-0.593l0.099-0.495l0.198-0.594l0.396-0.988
	l0.198-0.594h-0.099l-0.297,0.494l-0.593,0.989l-0.297,0.396l-0.396,0.396l-0.297,0.396l-0.396,0.494l-0.296,0.297l-0.396,0.494
	l-0.396,0.396l-0.792,0.791l-0.396,0.396l-0.495,0.297l-0.989,0.494l-0.495,0.297l-0.494,0.297l-0.495,0.1l-0.594,0.099
	l-1.187,0.099h-1.187l-0.791-0.099L73,535.244l-0.594-0.297l-0.692-0.396l-0.593-0.396l-0.396-0.396l-0.396-0.396l-0.296-0.494
	l-0.396-0.792l-0.297-0.692l-0.099-0.594l-0.099-0.593l-0.099-0.594l-0.099-0.791l-0.099-0.792v-0.593l0.099-1.188l0.099-0.791
	l0.198-0.989l0.297-0.792l0.198-0.593l0.099-0.495l0.198-0.594l0.198-0.494l0.296-0.594l0.297-0.692l0.495-1.187l0.297-0.594
	l0.297-0.594l0.296-0.396L73,516.252l0.396-0.692l0.396-0.396l0.593-0.89l0.792-0.891l0.396-0.396l0.495-0.396l0.792-0.692
	l1.78-1.286l1.385-0.791l0.594-0.297l0.692-0.297l1.286-0.396l0.594-0.099l0.396-0.1l0.594-0.197l0.593-0.1l1.187-0.099h0.594
	l1.681,0.099h0.792l0.594,0.1l0.495,0.099l0.593,0.099l0.593,0.297l0.594,0.198l0.396,0.099l0.495,0.297l0.495,0.197l0.594,0.297
	l0.692,0.396l0.593,0.296l0.594,0.396l0.495,0.396l0.396,0.396l0.198,0.594l-0.198,0.692l-0.396,0.494l-0.396,0.396l-0.396,0.297
	l-0.495,0.297l-0.594-0.099l-0.593-0.297l-0.89-0.594l-0.989-0.594l-0.495-0.297l-0.593-0.197l-0.594-0.099l-0.593-0.198
	l-1.187-0.297h-1.781l-0.593,0.099l-0.594,0.1l-0.692,0.197l-0.692,0.297l-0.692,0.198l-0.792,0.396l-0.89,0.494l-0.692,0.495
	l-0.396,0.297l-0.396,0.396l-0.396,0.396l-0.495,0.594l-0.495,0.594l-0.396,0.494l-0.396,0.594l-0.792,1.088l-0.495,0.791
	l-0.396,0.692l-0.495,1.188l-0.198,0.494l-0.297,0.594l-0.396,1.187l-0.099,0.594l-0.198,0.594l-0.099,0.594l-0.099,0.593
	l-0.099,0.594l-0.099,0.594l-0.099,0.594v0.593l0.099,0.594l0.198,0.594l0.198,0.594l0.099,0.396l0.297,0.594l0.396,0.396
	l0.495,0.297l0.594,0.099h0.593l0.495-0.099l0.594-0.1l0.495-0.297l1.286-0.988l0.396-0.396l0.396-0.396l0.396-0.396l0.396-0.396
	l0.396-0.396l0.297-0.396l0.593-0.989l0.396-0.594l0.495-0.594l0.297-0.494l0.297-0.396l0.198-0.594l0.495-0.989l0.593-0.989
	l0.297-0.494l0.297-0.594l1.484-4.551l0.099-0.593l0.297-0.594l0.495-0.494l0.593-0.297h0.594l0.791,0.099l0.792,0.297l0.594,0.297
	l0.396,0.593l0.198,0.692l-0.099,0.594l-0.099,0.594l-0.396,1.187l-0.099,0.495l-0.198,0.594l-0.099,0.593l-0.396,1.188
	l-0.099,0.494l-0.099,0.495l-0.198,0.594l-0.396,1.681l-0.396,1.188l-0.099,0.594l-0.099,0.593l-0.099,0.396l-0.099,0.593
	l-0.099,0.594l-0.198,0.594l-0.297,0.791l-0.198,0.792l-0.198,0.593l-0.099,0.594l-0.593,1.682l-0.099,0.692l0.099,0.396
	l0.495-0.099l0.989-0.396l0.494-0.297l0.495-0.297l0.396-0.297l0.495-0.396l0.396-0.297l0.396-0.396l0.396-0.297l0.396-0.396
	l0.495-0.495l0.396-0.396l0.396-0.396l0.297-0.396l0.297-0.495l0.396-0.396l0.396-0.593l0.593-0.692l0.396-0.495l0.594-0.989
	l0.297-0.396l0.296-0.494l0.297-0.495l0.198-0.594l0.792-1.483l0.297-0.594l0.296-0.494l0.396-0.396l0.396-0.297h0.594l0.593,0.396
	l0.297,0.396v0.594l-0.297,0.594l-0.297,0.791l-0.296,0.692l-0.297,0.494l-0.297,0.495l-0.297,0.594l-0.296,0.692l-0.396,0.692
	l-0.396,0.593l-0.396,0.594l-0.396,0.594l-0.396,0.494l-0.297,0.396l-0.396,0.593l-0.198,0.297l-0.891,1.188l-0.593,0.593
	l-0.792,0.792l-0.495,0.396l-0.791,0.692l-0.396,0.396l-0.396,0.396l-0.396,0.396l-0.495,0.297l-0.396,0.297l-0.495,0.297
	l-0.396,0.297l-0.495,0.297l-0.989,0.494l-0.989,0.594l-0.495,0.297l-0.495,0.297l-0.297,0.593l-0.297,0.792l-0.099,0.594
	l-0.198,0.494l-0.099,0.594l-0.198,0.594l-0.099,0.296l-0.198,0.594l-0.198,0.594l-0.297,0.791l-0.296,0.989l-0.396,0.989
	l-0.296,0.791l-0.198,0.594l-0.198,0.495l-0.297,0.593l-0.396,0.594l-0.396,0.692l-0.396,0.494l-0.296,0.396l-0.396,0.396
	l-0.396,0.297l-0.396,0.396l-0.594,0.396l-0.495,0.297l-0.692,0.297l-0.989,0.297l-0.792,0.099l-0.594,0.099h-0.593l-0.594-0.099
	L73.693,553.939L73.693,553.939z M74.188,548.498l0.099,0.792l0.296,0.494l0.594,0.396l0.692,0.198l0.593-0.099l0.495-0.198
	l0.495-0.297l0.594-0.494l0.495-0.495l0.396-0.494l0.297-0.396l0.296-0.594l0.594-1.385l0.198-0.594l0.89-2.671l0.099-0.791
	l-0.396-0.297l-0.593,0.297l-0.594,0.297l-1.483,0.989l-0.396,0.297l-0.494,0.396l-0.396,0.396l-1.187,1.187l-0.396,0.396
	l-0.396,0.494l-0.297,0.396l-0.297,0.495l-0.297,0.593L74.188,548.498L74.188,548.498z"/>
<path fill="#FFFFFF" d="M115.04,521.889v0.692l-0.198,0.594l-0.495,0.989l-0.594,0.989l-0.296,0.594l-0.297,0.494l-0.396,0.594
	l-0.198,0.396l-0.296,0.594l-0.297,0.494l-0.297,0.396l-0.396,0.495l-0.297,0.396l-0.593,0.989l-1.187,1.286l-0.792,0.791
	l-0.396,0.396l-0.396,0.396l-0.396,0.396l-1.385,1.286l-0.396,0.297l-0.594,0.297l-0.593,0.198l-0.495,0.099l-1.187,0.297h-1.088
	l-0.692-0.1l-0.495-0.197l-0.593-0.198l-0.495-0.297l-0.396-0.396l-0.297-0.396l-0.297-0.494l-0.297-0.594l-0.099-0.495
	l-0.099-0.593l-0.099-0.594v-0.594l0.099-1.187l0.099-0.594l0.198-0.594l0.297-1.187l0.198-0.495l0.099-0.593l0.198-0.594
	l0.198-0.495l0.593-1.682l0.099-0.494l0.099-0.594l0.198-0.594l0.099-0.593l0.099-0.495l0.396-1.187l0.198-0.792l0.198-0.791
	l0.396-1.187l0.099-0.594l0.099-0.396l0.099-0.594l0.297-0.594l0.198-0.494l0.396-1.682l0.198-0.594l0.198-0.791l0.297-0.792
	l0.198-0.593l0.297-0.495l0.396-0.297l0.593-0.297l0.495-0.099l0.594,0.099l1.187,0.1l0.989,0.396l0.296,0.396v0.594l-0.099,0.594
	l-0.198,0.791l-0.198,0.791l-0.396,1.188l-0.099,0.494l-0.099,0.594l-0.198,0.594l-0.198,0.791l-0.594,1.88l-0.099,0.593
	l-0.297,0.792l-0.396,1.285l-0.099,0.594l-0.099,0.495l-0.099,0.593l-0.396,1.089l-0.099,0.593l-0.396,1.583l-0.396,1.187
	l-0.099,0.594l-0.198,0.791l-0.198,0.989l-0.099,1.089l0.099,0.988l0.495,0.693l0.692,0.197l0.594-0.099l0.593-0.297l0.396-0.297
	l0.495-0.396l2.077-2.077l0.396-0.396l0.297-0.396l0.396-0.494l0.594-0.989l0.396-0.396l0.297-0.396l0.296-0.495l0.396-0.593
	l0.297-0.594l0.494-1.088l0.792-1.484l0.297-0.494l0.593-0.297l0.792,0.099V521.889z M104.852,502.403l0.297-0.494l0.495-0.396
	l0.495-0.296l0.593-0.198l0.594-0.099h0.593l0.594,0.099l0.495,0.297l0.396,0.396l0.396,0.396l0.297,0.495l0.198,0.593l0.099,0.594
	v0.594l-0.198,0.594l-0.297,0.494l-0.396,0.495l-0.396,0.396l-0.495,0.396l-0.593,0.297l-0.594,0.099l-0.593-0.099l-0.594-0.1
	l-0.989-0.593l-0.396-0.396l-0.297-0.495l-0.099-0.594l-0.099-0.593l0.099-0.594l0.099-0.594L104.852,502.403L104.852,502.403z"/>
<path fill="#FFFFFF" d="M126.811,513.185l-0.495,0.297l-0.396,0.297l-0.396,0.296l-0.495,0.396l-0.396,0.396l-0.989,0.692
	l-0.396,0.297l-0.396,0.396l-0.396,0.396l-0.792,0.89l-0.396,0.396l-0.792,0.89l-0.594,0.989l-0.396,0.495l-0.792,1.483
	l-0.692,2.077l-0.198,0.791l-0.297,0.989l-0.296,0.792l-0.396,1.682l-0.296,0.791l-0.297,0.989l-0.198,0.791l-0.198,0.594
	l-0.198,0.791l-0.099,0.692l-0.198,0.594l-0.099,0.594l-0.099,0.494l-0.198,0.495l-0.396,0.297l-0.593,0.197l-0.594,0.099
	l-0.792,0.1l-0.989-0.1l-0.792-0.099l-0.495-0.297l-0.396-0.594l-0.099-0.692l0.099-0.593l0.198-0.792l0.198-0.791l0.099-0.594
	l0.198-0.593l0.099-0.594l0.198-0.495l0.198-0.593l0.099-0.594l0.099-0.495l0.099-0.593l0.198-0.594l0.198-0.495l0.296-1.187
	l0.099-0.494l0.099-0.594l0.198-0.594l0.099-0.594l0.198-0.593l0.198-0.792l0.296-0.791l0.297-1.188l0.099-0.494l0.099-0.594
	l0.198-0.594l0.099-0.593l0.198-0.495l0.099-0.594l0.198-0.593l0.198-0.792l0.198-0.791l0.099-0.594l0.396-1.187l0.099-0.495
	l0.198-0.593l0.297-1.188l0.396-0.594l0.792-0.396l0.989-0.099l0.989,0.099l0.989,0.297l0.594,0.594l0.099,0.791l-0.099,0.594
	l-0.099,0.396l-0.198,0.594l-0.099,0.594l-0.198,0.494l-0.099,0.594l-0.198,0.594l-0.099,0.593l-0.099,0.396l0.099,0.1l0.297-0.297
	l0.396-0.396l0.297-0.396l0.791-0.891l0.396-0.396l0.791-0.692l0.396-0.396l0.791-0.792l1.286-0.989l0.495-0.297l0.495-0.296
	l0.495-0.297l0.494-0.198l0.594-0.197l0.792-0.198l0.791-0.099h1.484l0.989,0.099l0.692,0.099l0.593,0.297l0.594,0.297l0.396,0.396
	l0.297,0.396l0.297,0.495l0.296,0.494l0.198,0.594l0.198,0.791l0.099,0.792v1.187l-0.099,0.594v0.594l-0.099,0.494l-0.099,0.594
	l-0.099,0.594l-0.099,0.396l-0.198,0.594l-0.198,0.791l-0.297,0.989l-0.296,0.791l-0.198,0.594l-0.198,0.791l-0.296,1.088
	l-0.297,0.989l-0.297,0.891l-0.099,0.594l-0.099,0.396l-0.099,0.594l-0.198,0.593l-0.099,0.495l-0.396,1.682l-0.099,0.593v1.188
	l0.296,0.494l0.396,0.297l0.593,0.1l0.594-0.198l0.593-0.297l0.495-0.297l0.396-0.297l0.495-0.396l0.792-0.791l0.297-0.396
	l0.396-0.495l0.297-0.396l0.396-0.494l0.297-0.396l0.396-0.594l0.594-0.989l0.396-0.594l0.198-0.297l0.396-0.594l0.297-0.593
	l0.495-0.989l0.297-0.594l0.198-0.494l0.198-0.594l0.297-0.495l0.593-0.396l0.792,0.198l0.495,0.594v0.593l-0.198,0.594
	l-0.297,0.495l-0.297,0.593l-0.296,0.495l-0.297,0.494l-0.297,0.495l-0.396,0.593l-0.198,0.396l-0.594,1.187l-0.099,0.396
	l-0.296,0.594l-0.594,0.989l-0.396,0.594l-0.297,0.296l-0.396,0.495l-0.396,0.594l-0.396,0.396l-0.692,0.791l-0.396,0.396
	l-0.89,0.792l-0.396,0.396l-0.495,0.396l-0.495,0.297l-0.989,0.494l-0.495,0.198l-0.594,0.197l-0.593,0.1l-0.495,0.099l-0.594,0.099
	h-0.593l-0.594-0.099l-0.495-0.099l-0.593-0.198l-0.495-0.197l-0.495-0.297l-0.396-0.297l-0.396-0.396l-0.296-0.594l-0.198-0.495
	l-0.099-0.593l-0.099-0.495v-1.385l0.099-0.791l0.099-0.594l0.198-0.791l0.593-2.077l0.198-1.089l0.297-1.088l0.297-0.989
	l0.297-0.791l0.198-0.594l0.297-0.791l0.296-0.989l0.198-0.989l0.297-0.791l0.297-1.188l0.099-0.593l0.296-1.188l0.099-0.594
	l-0.099-0.593l-0.396-0.594l-0.594-0.594l-0.593-0.197l-0.594-0.1l-0.593,0.1L126.811,513.185L126.811,513.185z"/>
<path fill="#FFFFFF" d="M172.511,523.571l-0.099,0.297l-0.297,0.594l-0.296,0.396l-0.297,0.494l-0.297,0.594l-0.297,0.495
	l-0.593,0.989l-0.297,0.396l-0.297,0.494l-0.296,0.495l-0.297,0.494l-0.396,0.396l-0.396,0.495l-0.396,0.396l-0.692,0.89
	l-0.396,0.396l-0.396,0.396l-1.78,1.483l-0.495,0.297l-0.594,0.297l-0.692,0.297l-0.791,0.297l-0.594,0.197l-0.593,0.1h-0.594
	l-0.791-0.1l-0.792-0.197l-0.594-0.198l-0.396-0.297l-0.396-0.396l-0.396-0.594l-0.396-0.692l-0.198-0.593l-0.198-0.792
	l-0.099-0.791v-0.594l0.099-0.791l0.099-0.792l-0.198-0.099l-0.297,0.396l-0.593,0.989l-0.594,0.891l-0.396,0.396l-0.297,0.396
	l-0.396,0.396l-0.297,0.396l-0.396,0.396l-0.396,0.396l-0.396,0.396l-0.396,0.297l-0.495,0.297l-0.692,0.396l-0.989,0.396
	l-0.989,0.297l-0.791,0.197l-1.187,0.1l-0.594-0.1l-0.791-0.099l-0.792-0.197l-0.593-0.198l-0.495-0.198l-0.396-0.296l-0.89-0.792
	l-0.297-0.396l-0.296-0.494l-0.396-0.692l-0.396-0.989l-0.198-0.792l-0.099-0.593l-0.099-0.792l-0.099-0.989v-0.791l0.099-0.594
	l0.099-0.791l0.099-0.791l0.198-0.594l0.198-0.791l0.198-0.792l0.198-0.594l0.297-0.494l0.198-0.594l1.484-3.066l0.297-0.494
	l0.297-0.396l0.296-0.495l0.594-0.89l0.396-0.396l0.792-0.989l0.297-0.296l0.396-0.495l0.89-0.791l0.594-0.594l0.692-0.494
	l0.89-0.692l0.495-0.297l0.396-0.297l0.594-0.297l0.791-0.297l0.692-0.396l0.594-0.297l0.791-0.297l0.792-0.197l0.594-0.198
	l1.583-0.099l0.593-0.1h0.792l1.286,0.1l1.483,0.099l1.385,0.297l0.594,0.099l0.692,0.198l2.572,1.187l0.396,0.396l0.396,0.297
	l0.396,0.396l0.396,0.396l0.099,0.692l-0.297,0.89l-0.692,0.792l-0.692,0.396l-0.495,0.099l-0.495-0.198l-0.495-0.396l-0.593-0.297
	l-0.495-0.296l-0.396-0.198l-0.495-0.297l-0.594-0.297l-0.495-0.099l-1.088-0.297l-0.594-0.197l-0.593-0.1h-1.286l-0.396,0.1
	l-0.593,0.099l-0.792,0.197l-1.583,0.594l-0.594,0.297l-0.593,0.396l-0.396,0.297l-0.495,0.297l-0.396,0.297l-0.989,1.088
	l-0.495,0.396l-0.296,0.297l-0.396,0.494l-0.396,0.396l-0.297,0.396l-0.791,0.89l-0.297,0.396l-0.297,0.494l-0.792,1.483
	l-0.296,0.495l-0.396,1.187l-0.296,0.594l-0.297,0.494l-0.396,1.682l-0.198,0.594l-0.198,1.682v1.78l0.099,0.594l0.198,0.594
	l0.297,0.494l0.297,0.495l0.396,0.396l0.593,0.297l0.792,0.099l0.792-0.099l0.593-0.198l0.989-0.494l0.89-0.792l0.396-0.396
	l0.396-0.396l0.396-0.396l0.297-0.396l0.396-0.396l0.297-0.396l0.692-0.988l0.297-0.396l0.989-1.483l0.396-0.692l0.396-0.791
	l0.297-0.396l0.792-1.682l0.296-0.594l0.099-0.396l0.297-0.594l0.198-0.494l0.198-0.594l0.297-0.692l0.396-1.286l0.297-0.692
	l0.198-0.594l0.396-0.594l0.594-0.296l0.593-0.1l0.594,0.1l0.593,0.099l0.989,0.494l0.495,0.297l0.297,0.396l0.099,0.594
	l-0.198,0.495l-0.099,0.593l-0.198,0.594l-0.296,1.188l-0.198,0.593l-0.099,0.495l-0.396,1.187l-0.099,0.594l-0.099,0.396
	l-0.198,0.791l-0.099,0.594l-0.297,1.088l-0.198,0.792l-0.099,0.593l-0.099,0.693l-0.198,0.988l-0.198,1.089l-0.099,0.989
	l0.099,0.791l0.297,0.494l0.594,0.297l0.989,0.099l0.792-0.296l0.594-0.297l0.89-0.594l0.396-0.396l0.792-0.792l0.791-0.89
	l0.594-0.891l0.297-0.494l0.396-0.495l0.099-0.396l0.989-1.483l0.297-0.495l0.297-0.494l1.286-2.572l0.594-0.296l0.792,0.099
	l0.494,0.594l0.099,0.593l-0.297,0.594L172.511,523.571L172.511,523.571z"/>
<path fill="#FFFFFF" d="M190.612,505.074l-0.297,0.594l-0.495,0.989l-0.296,0.692l-0.396,0.692l-0.296,0.396l-0.297,0.494
	l-0.297,0.396l-0.297,0.594l-0.296,0.396l-0.297,0.495l-0.396,0.593l-0.594,0.594l-0.593,0.594l-0.297,0.297l-0.396,0.494
	l-0.792,0.792l-0.396,0.396l-0.693,0.791l-0.396,0.396l-0.495,0.495l-0.692,0.494l-0.989,0.792l-0.495,0.296l-1.385,0.891
	l-0.396,0.198l-0.495,0.296l-0.692,0.594l-0.396,0.594l-0.297,0.494l-0.099,0.692l-0.198,1.188v0.396l-0.099,0.594l-0.099,0.594
	l-0.099,0.593v1.286l-0.099,0.791v1.286l0.099,0.692l0.099,0.396l0.099,0.594l0.296,0.594l0.297,0.494l0.396,0.396l0.495,0.296
	l0.495,0.198l0.594,0.099h1.088l0.495-0.099l0.594-0.198l0.791-0.296l0.692-0.396l0.495-0.396l0.594-0.494l0.593-0.594l0.792-0.692
	l0.495-0.396l0.396-0.495l0.297-0.296l0.396-0.495l0.297-0.396l0.396-0.594l0.297-0.297l0.396-0.593l0.495-0.989l0.297-0.495
	l0.396-0.594l0.297-0.593l0.297-0.594l0.593-0.791l0.594-0.495l0.791,0.099l0.495,0.594v0.594l-0.198,0.594l-0.297,0.494
	l-0.296,0.495l-0.297,0.593l-0.297,0.495l-0.198,0.494l-0.297,0.495l-0.296,0.396l-0.297,0.494l-0.396,0.594l-0.099,0.297
	l-0.297,0.594l-0.396,0.494l-0.594,0.891l-0.396,0.593l-0.297,0.297l-0.396,0.594l-0.396,0.396l-0.495,0.594l-0.594,0.494
	l-0.396,0.396l-0.396,0.296l-0.396,0.396l-0.593,0.297l-0.495,0.296l-0.594,0.297l-0.495,0.297l-0.494,0.198l-0.594,0.297
	l-0.792,0.297l-1.286,0.296l-0.792,0.1l-0.692-0.1h-0.396l-0.594-0.099l-0.593-0.099l-0.495-0.198l-0.594-0.197l-0.495-0.297
	l-0.494-0.297l-0.396-0.396l-0.396-0.396l-0.396-0.396l-0.297-0.494l-0.297-0.594l-0.198-0.494l-0.099-0.594l-0.198-0.594
	l-0.099-0.594l-0.099-0.593v-0.396l-0.099-0.692l-0.099-0.594v-0.594l0.099-0.594l0.099-0.593v-0.396l0.099-0.791l0.198-1.385
	l0.099-0.791v-0.594l0.099-0.594l0.099-0.594l0.396-2.077l0.198-0.791l0.198-1.187l0.099-0.297l0.198-0.792l0.099-0.396l0.296-0.989
	l0.198-0.791l0.099-0.594l0.198-0.791l0.297-0.891l0.099-0.396l0.296-0.891l0.297-0.791l0.198-0.396l0.297-0.791l0.297-0.792
	l0.296-0.593l0.594-1.682l0.099-0.396l0.396-0.89l0.396-0.989l0.297-0.791l0.297-0.594l0.198-0.396l0.297-0.594l0.396-1.088
	l0.297-0.594l0.296-0.594l0.396-0.593l0.495-0.792l0.791-1.187l0.396-0.495l0.791-0.791l0.297-0.297l0.396-0.396l0.396-0.297
	l0.989-0.692l0.692-0.396l0.693-0.297l0.593-0.198l0.594-0.099h1.187l0.594,0.099l0.396,0.1l0.594,0.197l0.495,0.297l0.89,0.791
	l0.297,0.495l0.396,0.594l0.297,0.791l0.297,0.594l0.296,0.791l0.099,0.791v1.188l-0.099,1.682l-0.296,1.187l-0.198,0.495
	l-0.099,0.593l-0.495,1.484l-0.297,0.494L190.612,505.074L190.612,505.074z M180.127,506.854l-0.89,2.671l-0.099,0.594l-0.198,0.594
	l-0.297,0.791l-0.396,1.286l-0.198,0.593l-0.099,0.396l-0.198,0.593l-0.198,0.594l-0.099,0.594l0.099,0.396l0.396-0.297l0.593-0.494
	l2.572-2.572l0.297-0.396l0.297-0.495l0.396-0.593l0.297-0.297l0.396-0.594l0.396-0.594l0.396-0.593l0.396-0.693l0.297-0.494
	l0.297-0.396l0.296-0.396l0.495-0.989l0.297-0.594l0.198-0.396l0.297-0.594l0.297-0.594l0.099-0.593l0.198-0.594l0.198-0.692
	l0.296-0.692l0.198-0.692l0.296-0.692l0.099-0.594l0.099-0.594v-1.187l-0.099-0.495l-0.198-0.494l-0.396-0.297l-0.495-0.099
	l-0.593,0.099l-0.594,0.396l-0.396,0.396l-0.297,0.396l-0.296,0.396l-0.297,0.494l-0.594,0.989l-0.296,0.594l-0.297,0.594
	l-0.297,0.494l-0.297,0.594l-0.296,0.494l-0.297,0.594l-0.198,0.494l-0.297,0.692l-0.396,0.989l-0.297,0.594L180.127,506.854
	L180.127,506.854z M217.913,536.035l-1.385-0.297l-0.593-0.198l-0.792-0.296l-0.692-0.297l-0.495-0.297l-0.396-0.396l-0.396-0.297
	l-1.286-1.188l-0.792-0.791l-0.396-0.396l-0.297-0.495l-0.593-0.989l-0.495-0.988l-0.198-0.594l-0.198-0.495l-0.297-0.593
	l-0.297-0.692l-0.198-0.792l-0.099-0.594l-0.099-0.593l-0.099-0.594l-0.099-0.791l-0.099-0.792l-0.099-0.593v-1.781l-0.099-0.593
	v-0.594l0.099-0.594l0.099-0.791l0.099-0.792l0.099-0.593l0.099-0.495l0.099-0.594l0.099-0.593l0.099-0.594l0.099-0.791l0.198-0.792
	l0.297-1.187l0.198-0.594l0.297-0.791l0.396-1.286l0.198-0.494l0.198-0.594l0.296-0.495l0.297-0.593l0.396-0.692l0.297-0.792
	l0.297-0.594l0.792-1.385l0.198-0.494v-0.495l-0.198-0.396l-0.297-0.494l-0.297-0.594l-0.297-0.692l-0.396-0.692l-0.495-0.494
	l-0.297-0.792l-0.296-0.692l-0.198-0.593l-0.198-0.792l-0.296-0.791l-0.297-1.188l-0.099-0.593l0.297-0.692l0.692-0.396h0.989
	l0.791,0.396l0.396,0.692l0.099,0.593l0.099,0.594l0.198,0.594l0.198,0.594l0.198,0.494l0.198,0.594l0.296,0.594l0.594,1.088
	l0.297,0.594l0.296,0.396h0.297l0.792-0.792l0.396-0.396l1.187-1.187l0.594-0.495l0.396-0.396l0.495-0.297l0.593-0.396l0.297-0.297
	l0.495-0.396l0.593-0.297l2.078-1.187l0.989-0.495l0.495-0.197l1.187-0.297l0.594-0.198l0.593-0.099l1.781-0.297l1.187-0.099h0.593
	l0.594,0.099h0.593l0.692,0.099h0.396l0.692,0.1l0.495,0.099l0.593,0.297l0.495,0.197l0.594,0.297l0.494,0.297l0.495,0.297
	l0.396,0.297l0.396,0.396l0.495,0.494l0.297,0.396l0.296,0.494l0.297,0.495l0.297,0.593l0.198,0.495l0.099,0.593l0.099,0.594
	l0.099,1.188v1.187l-0.099,0.495l-0.099,0.593l-0.198,0.594l-0.198,0.495l-0.296,0.593l-0.297,0.495l-0.297,0.494l-0.297,0.396
	l-0.396,0.495l-0.594,0.891l-0.396,0.396l-0.396,0.396l-0.89,0.791l-0.396,0.297l-0.495,0.297l-0.396,0.297l-0.495,0.297
	l-0.692,0.297l-0.792,0.296l-0.593,0.297l-0.594,0.198l-0.593,0.099l-0.495,0.099l-1.484,0.1l-0.791,0.099h-1.583l-1.187-0.099
	l-0.396-0.1l-0.594-0.099l-1.483-0.396l-1.187-0.396l-0.792-0.297l-0.495-0.297l-0.495-0.297l-0.495-0.297l-0.494-0.297
	l-0.495-0.296l-0.495-0.297l-0.396-0.297l-0.396-0.297l-0.297,0.099l-0.296,0.396l-0.692,1.781l-0.396,0.989l-0.297,0.791
	l-0.198,0.594l-0.099,0.494l-0.198,0.594l-0.099,0.791l-0.099,0.791l-0.099,1.188l-0.099,0.594l-0.099,0.791l-0.099,0.989
	l-0.099,0.791v1.385l0.099,0.792v0.593l0.099,0.792l0.198,0.989l0.099,0.791l0.099,0.594l0.198,0.791l0.396,1.286l0.396,0.791
	l0.396,0.989l0.396,0.692l0.297,0.495l0.297,0.396l0.396,0.396l0.594,0.494l0.593,0.396l0.594,0.297l0.495,0.198l0.593,0.197
	l0.792,0.198l0.989,0.099h1.385l0.593-0.099l1.385-0.297l0.792-0.099l0.593-0.198l0.792-0.297l0.989-0.396l1.286-0.593l0.495-0.297
	l0.396-0.297l1.286-0.989l1.286-1.188l0.495-0.593l0.495-0.594l0.791-1.188l0.396-0.593l0.396-0.495l0.297-0.396l0.296-0.494
	l0.396-0.692l0.396-0.594l0.495-0.297l0.792,0.297l0.494,0.594l0.099,0.692l-0.297,0.593l-0.296,0.495l-0.297,0.594l-0.792,1.385
	l-0.297,0.593l-1.286,1.781l-0.396,0.494l-0.396,0.495l-0.593,0.593l-0.495,0.594l-0.89,0.791l-0.396,0.396l-0.396,0.396
	l-0.593,0.396l-0.297,0.297l-0.594,0.396l-0.89,0.594l-0.495,0.296l-0.593,0.297l-0.495,0.297l-1.088,0.396l-0.593,0.198
	l-0.495,0.198l-0.594,0.099l-0.593,0.197l-0.495,0.1l-0.593,0.099l-1.781,0.297h-1.088l-0.594-0.099h-0.593L217.913,536.035
	L217.913,536.035z M227.409,495.776l-0.593,0.099l-0.594,0.197l-0.791,0.297l-0.792,0.297l-0.495,0.297l-0.495,0.297l-0.495,0.297
	l-0.989,0.594l-0.396,0.296l-0.396,0.396l-0.396,0.396l-0.297,0.297l-0.396,0.396l-0.692,0.594l-0.396,0.396l-0.396,0.396
	l-0.297,0.494l-0.297,0.692l0.099,0.792l0.495,0.593l0.989,0.594l0.396,0.297l0.495,0.297l0.396,0.297l0.594,0.197l0.495,0.1
	l1.187,0.297l0.594,0.099l1.682,0.099h1.187l0.593-0.099l0.594-0.099l0.495-0.1l0.593-0.197l0.792-0.297l0.692-0.396l0.495-0.297
	l0.89-0.792l0.396-0.396l0.396-0.494l0.296-0.396l0.989-1.979l0.099-0.594l0.099-0.594v-0.494l-0.099-0.594l-0.297-0.594
	l-0.396-0.593l-0.495-0.594l-0.396-0.396l-0.495-0.297l-0.594-0.198l-0.495-0.099l-0.593-0.099l-0.594-0.1h-0.593L227.409,495.776z"
	/>
<path fill="#FFFFFF" d="M267.471,523.571l-0.099,0.297l-0.297,0.594l-0.296,0.396l-0.297,0.494l-0.297,0.594l-0.296,0.495
	l-0.594,0.989l-0.297,0.396l-0.296,0.494l-0.297,0.495l-0.297,0.494l-0.396,0.396l-0.396,0.495l-0.396,0.396l-0.692,0.89
	l-0.396,0.396l-0.396,0.396l-1.78,1.483l-0.495,0.297l-0.593,0.297l-0.692,0.297l-0.792,0.297l-0.594,0.197l-0.593,0.1h-0.594
	l-0.791-0.1l-0.792-0.197l-0.593-0.198l-0.396-0.297l-0.396-0.396l-0.396-0.594l-0.396-0.692l-0.198-0.593l-0.198-0.792
	l-0.099-0.791v-0.594l0.099-0.791l0.099-0.792l-0.198-0.099l-0.297,0.396l-0.594,0.989l-0.593,0.891l-0.396,0.396l-0.296,0.396
	l-0.396,0.396l-0.296,0.396l-0.396,0.396l-0.396,0.396l-0.396,0.396l-0.396,0.297l-0.494,0.297l-0.693,0.396l-0.989,0.396
	l-0.989,0.297l-0.792,0.197l-1.187,0.1l-0.593-0.1l-0.792-0.099l-0.792-0.197l-0.593-0.198l-0.495-0.198l-0.396-0.296l-0.891-0.792
	l-0.296-0.396l-0.297-0.494l-0.396-0.692l-0.396-0.989l-0.198-0.792l-0.099-0.593l-0.099-0.792l-0.099-0.989v-0.791l0.099-0.594
	l0.099-0.791l0.099-0.791l0.198-0.594l0.198-0.791l0.198-0.792l0.198-0.594l0.297-0.494l0.198-0.594l1.483-3.066l0.297-0.494
	l0.297-0.396l0.297-0.495l0.593-0.89l0.396-0.396l0.792-0.989l0.297-0.296l0.396-0.495l0.89-0.791l0.594-0.594l0.692-0.494
	l0.89-0.692l0.495-0.297l0.396-0.297l0.594-0.297l0.792-0.297l0.692-0.396l0.593-0.297l0.792-0.297l0.791-0.197l0.594-0.198
	l1.583-0.099l0.594-0.1h0.791l1.286,0.1l1.484,0.099l1.385,0.297l0.593,0.099l0.692,0.198l2.572,1.187l0.396,0.396l0.396,0.297
	l0.396,0.396l0.396,0.396l0.099,0.692l-0.296,0.89l-0.692,0.792l-0.693,0.396l-0.495,0.099l-0.494-0.198l-0.495-0.396l-0.594-0.297
	l-0.495-0.296l-0.396-0.198l-0.495-0.297l-0.593-0.297l-0.495-0.099l-1.088-0.297l-0.593-0.197l-0.594-0.1h-1.286l-0.396,0.1
	l-0.593,0.099l-0.792,0.197l-1.583,0.594l-0.594,0.297l-0.593,0.396l-0.396,0.297l-0.495,0.297l-0.396,0.297l-0.989,1.088
	l-0.495,0.396l-0.297,0.297l-0.396,0.494l-0.396,0.396l-0.296,0.396l-0.792,0.89l-0.297,0.396l-0.297,0.494l-0.791,1.483
	l-0.297,0.495l-0.396,1.187l-0.297,0.594l-0.297,0.494l-0.396,1.682l-0.198,0.594l-0.198,1.682v1.78l0.099,0.594l0.198,0.594
	l0.297,0.494l0.297,0.495l0.396,0.396l0.594,0.297l0.791,0.099l0.792-0.099l0.593-0.198l0.989-0.494l0.89-0.792l0.396-0.396
	l0.396-0.396l0.396-0.396l0.297-0.396l0.396-0.396l0.297-0.396l0.692-0.988l0.297-0.396l0.989-1.483l0.396-0.692l0.396-0.791
	l0.297-0.396l0.792-1.682l0.297-0.594l0.099-0.396l0.297-0.594l0.198-0.494l0.198-0.594l0.297-0.692l0.396-1.286l0.297-0.692
	l0.198-0.594l0.396-0.594l0.593-0.296l0.593-0.1l0.594,0.1l0.594,0.099l0.989,0.494l0.495,0.297l0.297,0.396l0.099,0.594
	l-0.198,0.495l-0.099,0.593l-0.198,0.594l-0.297,1.188l-0.198,0.593l-0.099,0.495l-0.396,1.187l-0.099,0.594l-0.099,0.396
	l-0.198,0.791l-0.099,0.594l-0.297,1.088l-0.198,0.792l-0.099,0.593l-0.099,0.693l-0.198,0.988l-0.198,1.089l-0.099,0.989
	l0.099,0.791l0.297,0.494l0.594,0.297l0.989,0.099l0.792-0.296l0.594-0.297l0.89-0.594l0.396-0.396l0.792-0.792l0.791-0.89
	l0.594-0.891l0.297-0.494l0.396-0.495l0.099-0.396l0.989-1.483l0.297-0.495l0.297-0.494l1.286-2.572l0.594-0.296l0.791,0.099
	l0.495,0.594l0.099,0.593l-0.297,0.594L267.471,523.571L267.471,523.571z"/>
<path fill="#FFFFFF" d="M280.033,513.185l-0.495,0.297l-0.396,0.297l-0.396,0.296l-0.495,0.396l-0.396,0.396l-0.989,0.692
	l-0.396,0.297l-0.396,0.396l-0.396,0.396l-0.792,0.89l-0.396,0.396l-0.792,0.89l-0.593,0.989l-0.396,0.495l-0.792,1.483
	l-0.692,2.077l-0.198,0.791l-0.297,0.989l-0.297,0.792l-0.396,1.682l-0.297,0.791l-0.296,0.989l-0.198,0.791l-0.198,0.594
	l-0.198,0.791l-0.099,0.692l-0.198,0.594l-0.099,0.594l-0.099,0.494l-0.297,0.692l-0.396,0.297l-0.593,0.198l-0.594,0.099
	l-0.792,0.099l-0.989-0.099l-0.792-0.099l-0.495-0.297l-0.396-0.594l-0.099-0.692l0.099-0.594l0.198-0.791l0.198-0.791l0.099-0.594
	l0.198-0.594l0.099-0.594l0.198-0.494l0.198-0.594l0.099-0.594l0.099-0.494l0.099-0.594l0.198-0.594l0.198-0.494l0.297-1.187
	l0.099-0.495l0.099-0.594l0.198-0.593l0.099-0.594l0.198-0.594l0.198-0.791l0.297-0.792l0.297-1.187l0.099-0.495l0.099-0.593
	l0.198-0.594l0.099-0.594l0.198-0.494l0.099-0.594l0.198-0.594l0.198-0.791l0.198-0.791l0.099-0.594l0.396-1.188l0.099-0.494
	l0.198-0.594l0.297-1.187l0.396-0.594l0.791-0.396l0.989-0.099l0.989,0.099l0.989,0.297l0.593,0.593l0.099,0.792l-0.099,0.594
	l-0.099,0.396l-0.198,0.593l-0.099,0.594l-0.198,0.495l-0.099,0.593l-0.198,0.594l-0.099,0.594l-0.099,0.396l0.099,0.099
	l0.297-0.297l0.396-0.396l0.297-0.396l0.792-0.89l0.396-0.396l0.792-0.692l0.396-0.396l0.791-0.791l1.286-0.989l0.495-0.297
	l0.495-0.297l0.495-0.297l0.495-0.197l0.593-0.198l0.792-0.197l0.791-0.1h1.484l0.989,0.1l0.692,0.099l0.593,0.297l0.594,0.297
	l0.396,0.396l0.297,0.396l0.297,0.494l0.296,0.495l0.198,0.594l0.198,0.791l0.099,0.791v1.188l-0.099,0.594v0.593l-0.099,0.495
	l-0.099,0.593l-0.099,0.594l-0.099,0.396l-0.198,0.594l-0.198,0.791l-0.297,0.989L287.155,521l-0.198,0.593l-0.198,0.792
	l-0.296,1.088l-0.297,0.989l-0.297,0.89l-0.099,0.594l-0.099,0.396l-0.099,0.594l-0.198,0.594l-0.099,0.494l-0.396,1.682
	l-0.099,0.594v1.187l0.296,0.495l0.396,0.297l0.593,0.099l0.594-0.197l0.593-0.297l0.495-0.297l0.396-0.297l0.495-0.396l0.792-0.792
	l0.297-0.396l0.396-0.494l0.297-0.396l0.396-0.495l0.297-0.396l0.396-0.594l0.593-0.989l0.396-0.593l0.198-0.297l0.396-0.594
	l0.297-0.594l0.495-0.989l0.297-0.593l0.198-0.495l0.198-0.594l0.297-0.494l0.593-0.396l0.792,0.197l0.495,0.594v0.594l-0.198,0.594
	l-0.297,0.494l-0.297,0.594l-0.297,0.494l-0.296,0.495l-0.297,0.494l-0.396,0.594l-0.198,0.396l-0.593,1.188l-0.099,0.396
	l-0.296,0.593l-0.594,0.989l-0.396,0.594l-0.297,0.297l-0.396,0.495l-0.396,0.593l-0.396,0.396l-0.692,0.792l-0.396,0.396
	l-0.89,0.791l-0.396,0.396l-0.495,0.396l-0.495,0.296l-0.989,0.495l-0.495,0.197l-0.594,0.198l-0.593,0.099l-0.495,0.1l-0.594,0.099
	h-0.593l-0.594-0.099l-0.495-0.1l-0.593-0.197l-0.495-0.198l-0.495-0.297l-0.396-0.297l-0.396-0.396l-0.296-0.593l-0.198-0.495
	l-0.099-0.594l-0.099-0.494v-1.385l0.099-0.792l0.099-0.593l0.198-0.792l0.593-2.077l0.198-1.088l0.296-1.088l0.297-0.989
	l0.297-0.791l0.198-0.594l0.297-0.791l0.296-0.989l0.198-0.989l0.297-0.792l0.297-1.187l0.099-0.594l0.297-1.187l0.099-0.594
	l-0.099-0.594l-0.396-0.594l-0.594-0.593l-0.593-0.198l-0.594-0.099l-0.593,0.099L280.033,513.185L280.033,513.185z"/>
<path fill="#FFFFFF" d="M325.732,523.571l-0.098,0.297l-0.297,0.594l-0.297,0.396l-0.297,0.494l-0.297,0.594l-0.297,0.495
	l-0.594,0.989l-0.297,0.396l-0.297,0.494l-0.297,0.495l-0.297,0.494l-0.395,0.396l-0.396,0.495l-0.395,0.396l-0.693,0.89
	l-0.395,0.396l-0.396,0.396l-1.781,1.483l-0.494,0.297l-0.594,0.297l-0.691,0.297l-0.791,0.297l-0.594,0.197l-0.594,0.1h-0.594
	l-0.791-0.1l-0.791-0.197l-0.594-0.198l-0.396-0.297l-0.395-0.396l-0.396-0.594l-0.396-0.692l-0.197-0.593l-0.197-0.792l-0.1-0.791
	v-0.594l0.1-0.791l0.1-0.792l-0.199-0.099l-0.297,0.396l-0.594,0.989l-0.592,0.891l-0.396,0.396l-0.297,0.396l-0.396,0.396
	l-0.295,0.396l-0.396,0.396l-0.396,0.396l-0.395,0.396l-0.396,0.297l-0.494,0.297l-0.693,0.396l-0.988,0.396l-0.988,0.297
	l-0.793,0.197l-1.186,0.1l-0.594-0.1l-0.791-0.099l-0.792-0.197l-0.594-0.198l-0.495-0.198l-0.396-0.296l-0.89-0.792l-0.297-0.396
	l-0.297-0.494l-0.396-0.692l-0.396-0.989l-0.198-0.792l-0.099-0.593l-0.099-0.792l-0.099-0.989v-0.791l0.099-0.594l0.099-0.791
	l0.099-0.791l0.198-0.594l0.198-0.791l0.198-0.792l0.198-0.594l0.297-0.494l0.198-0.594l1.484-3.066l0.297-0.494l0.296-0.396
	l0.297-0.495l0.594-0.89l0.396-0.396l0.791-0.989l0.297-0.296l0.396-0.495l0.889-0.791l0.594-0.594l0.693-0.494l0.891-0.692
	l0.494-0.297l0.395-0.297l0.594-0.297l0.793-0.297l0.691-0.396l0.594-0.297l0.791-0.297l0.791-0.197l0.594-0.198l1.582-0.099
	l0.594-0.1h0.791l1.287,0.1l1.484,0.099l1.385,0.297l0.592,0.099l0.693,0.198l2.572,1.187l0.395,0.396l0.396,0.297l0.395,0.396
	l0.396,0.396l0.1,0.692l-0.297,0.89l-0.693,0.792l-0.691,0.396l-0.496,0.099l-0.494-0.198l-0.494-0.396l-0.594-0.297l-0.494-0.296
	l-0.396-0.198l-0.494-0.297l-0.594-0.297l-0.494-0.099l-1.088-0.297l-0.594-0.197l-0.594-0.1h-1.285l-0.396,0.1l-0.594,0.099
	l-0.791,0.197l-1.582,0.594l-0.594,0.297l-0.594,0.396l-0.395,0.297l-0.496,0.297l-0.395,0.297l-0.891,1.088l-0.494,0.396
	l-0.297,0.297l-0.396,0.494l-0.395,0.396l-0.297,0.396l-0.791,0.89l-0.297,0.396l-0.297,0.494l-0.793,1.483l-0.295,0.495
	l-0.396,1.187l-0.297,0.594l-0.297,0.494l-0.395,1.682l-0.199,0.594l-0.197,1.682v1.78l0.1,0.594l0.197,0.594l0.297,0.494
	l0.297,0.495l0.395,0.396l0.594,0.297l0.791,0.099l0.793-0.099l0.592-0.198l0.99-0.494l0.891-0.792l0.395-0.396l0.396-0.396
	l0.395-0.396l0.297-0.396l0.396-0.396l0.297-0.396l0.691-0.988l0.297-0.396l0.99-1.483l0.395-0.692l0.396-0.791l0.297-0.396
	l0.791-1.682l0.297-0.594l0.1-0.396l0.295-0.594l0.199-0.494l0.197-0.594l0.297-0.692l0.396-1.286l0.297-0.692l0.197-0.594
	l0.395-0.594l0.594-0.296l0.594-0.1l0.594,0.1l0.594,0.099l0.988,0.494l0.496,0.297l0.297,0.396l0.098,0.594l-0.197,0.495
	l-0.1,0.593l-0.197,0.594l-0.297,1.188l-0.197,0.593l-0.1,0.495l-0.396,1.187l-0.098,0.594l-0.1,0.396l-0.197,0.791l-0.1,0.594
	l-0.297,1.088l-0.197,0.792l-0.1,0.593l-0.098,0.693l-0.199,0.988l-0.197,1.089l-0.1,0.989l0.1,0.791l0.297,0.494l0.594,0.297
	l0.988,0.099l0.793-0.296l0.592-0.297l0.891-0.594l0.396-0.396l0.791-0.792l0.791-0.89l0.594-0.891l0.297-0.494l0.395-0.495
	l0.1-0.396l0.99-1.483l0.295-0.495l0.297-0.494l1.287-2.572l0.594-0.296l0.791,0.099l0.494,0.594l0.1,0.593l-0.297,0.594
	L325.732,523.571L325.732,523.571z"/>
<path fill="#FFFFFF" d="M327.71,515.164l0.396-0.396l0.791-0.89l1.285-1.188l0.396-0.297l0.494-0.396l0.396-0.297l0.494-0.296
	l0.594-0.297l0.988-0.495l0.594-0.297l1.188-0.396l0.494-0.197l1.188-0.297l0.594-0.1l0.594-0.099l1.186-0.099h1.484l0.791,0.099
	l0.693,0.099l0.395,0.1l0.396-0.198l0.297-0.396l0.098-0.594l0.396-1.187l0.1-0.495l0.197-0.593l0.396-1.089l0.197-0.593
	l0.098-0.396l0.297-0.593l0.1-0.495l0.396-1.187l0.197-0.495l0.594-1.879l0.297-0.792l0.395-1.187l0.199-0.494l0.297-0.594
	l0.098-0.396l0.494-1.188l0.199-0.494l0.594-1.089l0.297-0.494l0.592-0.396l0.693-0.297h0.594l0.594,0.099l0.594,0.1l0.395,0.099
	l0.594,0.197l0.396,0.297l0.197,0.495l-0.1,0.494l-0.098,0.594l-0.297,0.594l-0.297,0.494l-0.199,0.495l-0.197,0.593l-0.297,0.792
	l-0.297,0.791l-0.297,0.692l-0.791,1.979l-0.297,0.791l-0.297,0.792l-0.197,0.593l-0.197,0.495l-0.396,1.286l-0.297,0.791
	l-0.197,0.594l-0.693,2.077l-0.098,0.593l-0.199,0.495l-0.197,0.594l-0.197,0.494l-0.197,0.594l-0.199,0.494l-0.098,0.594
	l-0.1,0.495l-0.1,0.593L347,513.581l-0.197,0.494l-0.199,0.594l-0.098,0.594l-0.1,0.494l-0.1,0.594l-0.197,0.594l-0.197,0.791
	l-0.297,0.792l-0.1,0.396l-0.197,0.692l-0.1,0.594L345.121,521l-0.1,0.791l-0.396,1.682l-0.098,0.594l-0.1,0.594l-0.098,0.791
	l-0.1,0.791l-0.1,0.594l-0.098,0.594l-0.1,0.594v0.593l0.1,0.594l0.098,0.791l0.199,0.792l0.197,0.593l0.395,0.396l0.496,0.197
	l0.594,0.099l0.494-0.099l0.594-0.197l0.494-0.297l1.188-0.989l0.395-0.396l0.594-0.891l0.594-0.989l0.891-1.286l0.297-0.494
	l0.297-0.495l0.297-0.593l0.592-1.385l0.297-0.594l0.297-0.396l0.297-0.594l0.297-0.692l0.693-0.495l0.791,0.1l0.395,0.594v0.791
	l-0.297,0.791l-0.295,0.594l-0.396,0.692l-0.396,0.791l-0.297,0.396l-0.791,1.484l-0.395,0.594l-0.791,1.285l-0.594,0.989
	l-0.297,0.396l-0.396,0.495l-0.297,0.396l-0.395,0.396l-0.396,0.396l-0.396,0.495l-0.295,0.297l-0.396,0.494l-0.396,0.396
	l-0.494,0.297l-0.395,0.297l-0.496,0.297l-1.682,0.594l-0.592,0.099h-0.496l-0.594,0.099l-0.592-0.099l-0.594-0.099l-0.496-0.297
	l-0.494-0.297l-0.395-0.297l-0.396-0.396l-0.594-0.891l-0.297-0.494l-0.197-0.594l-0.1-0.494l-0.197-1.682v-1.188l-0.1-0.099
	l-0.297,0.396l-0.295,0.495l-0.594,0.988l-0.297,0.396l-0.396,0.396l-0.691,0.89l-0.396,0.396l-1.285,1.188l-0.594,0.396
	l-0.594,0.495l-0.594,0.396l-0.494,0.297l-0.594,0.197l-1.484,0.297l-0.594,0.099l-0.594,0.1l-0.494-0.1l-0.594-0.099l-0.592-0.099
	l-0.496-0.1l-0.594-0.296l-0.395-0.297l-0.494-0.396l-0.594-0.594l-0.594-0.495l-0.297-0.494l-0.297-0.495l-0.197-0.593
	l-0.396-0.989l-0.197-0.594l-0.1-0.594l-0.098-0.791v-0.791l-0.1-0.594v-0.594l0.1-0.594l0.098-0.791l0.1-0.791l0.098-0.594
	l0.199-0.594l0.098-0.396l0.199-0.594l0.197-0.593l0.594-1.484l0.197-0.594l0.494-0.988l0.396-0.692l0.297-0.693l0.395-0.593
	l0.297-0.297l0.396-0.495l0.594-0.89L327.71,515.164L327.71,515.164z M340.669,512.987l-1.188,0.099h-0.594l-0.594,0.1l-0.594,0.099
	l-0.395,0.099l-0.594,0.297l-0.594,0.198l-0.594,0.297l-0.494,0.297l-0.396,0.296l-0.395,0.396l-0.396,0.396l-0.891,0.791
	l-0.395,0.396l-0.396,0.396l-0.791,0.989l-0.297,0.396l-0.297,0.594l-0.791,1.385L329.689,521l-0.197,0.494l-0.197,0.594
	l-0.199,0.494l-0.297,0.594l-0.395,1.483l-0.199,0.594l-0.098,0.792l-0.1,0.791l-0.1,0.594l0.1,0.791l0.1,0.989l0.098,0.791
	l0.199,0.594l0.297,0.396l0.395,0.396l0.396,0.396l0.594,0.297l0.791,0.1l0.791-0.1l0.594-0.297l0.395-0.197l0.594-0.297
	l0.396-0.297l0.791-0.791l0.396-0.495l0.395-0.396l0.396-0.396l0.297-0.396l0.297-0.495l0.395-0.593l0.396-0.792l0.395-0.593
	l0.297-0.495l0.297-0.594l0.199-0.494l0.295-0.594l0.297-0.791l0.297-0.692l0.297-0.594l0.199-0.494l0.889-2.671l0.297-0.792
	l0.496-1.978l0.197-0.792l0.197-0.593l0.1-0.692l-0.199-0.594l-0.395-0.297h-0.494V512.987z"/>
<path fill="#FFFFFF" d="M368.267,521.889v0.692l-0.199,0.594l-0.494,0.989l-0.594,0.989l-0.297,0.594l-0.295,0.494l-0.396,0.594
	l-0.197,0.396l-0.297,0.594l-0.297,0.494l-0.297,0.396l-0.396,0.495l-0.297,0.396l-0.594,0.989l-1.186,1.286l-0.791,0.791
	l-0.396,0.396l-0.396,0.396l-0.395,0.396l-1.385,1.089l-0.396,0.297l-0.594,0.296l-0.594,0.198l-0.494,0.099l-1.188,0.297h-1.088
	l-0.691-0.099l-0.494-0.198l-0.594-0.197l-0.494-0.297l-0.396-0.396l-0.297-0.396l-0.297-0.495l-0.297-0.594l-0.098-0.494
	l-0.1-0.594l-0.1-0.594v-0.593l0.1-1.188l0.1-0.594l0.197-0.593l0.297-1.188l0.197-0.494l0.1-0.594l0.197-0.594l0.197-0.494
	l0.594-1.682l0.1-0.495l0.098-0.593l0.199-0.594l0.098-0.594l0.1-0.494l0.396-1.188l0.197-0.791l0.197-0.791l0.396-1.188
	l0.098-0.594l0.1-0.396l0.1-0.594l0.297-0.593l0.197-0.495l0.396-1.682l0.197-0.593l0.197-0.792l0.297-0.791l0.197-0.594
	l0.297-0.494l0.396-0.297l0.594-0.297l0.494-0.099l0.594,0.099l1.188,0.099l0.988,0.396l0.297,0.396v0.594l-0.1,0.594l-0.197,0.791
	l-0.197,0.792l-0.396,1.187l-0.098,0.495l-0.1,0.593l-0.197,0.594l-0.199,0.791l-0.594,1.88l-0.098,0.594l-0.297,0.791l-0.396,1.286
	l-0.098,0.594l-0.496,0.988l-0.098,0.594l-0.396,1.088l-0.1,0.594l-0.395,1.583l-0.396,1.187l-0.098,0.594l-0.199,0.791
	l-0.197,0.989l-0.1,1.088l0.1,0.989l0.494,0.692l0.693,0.198l0.594-0.099l0.594-0.297l0.395-0.297l0.494-0.396l2.078-2.077
	l0.396-0.396l0.295-0.396l0.396-0.494l0.594-0.989l0.395-0.396l0.297-0.396l0.297-0.495l0.396-0.594l0.297-0.593l0.494-1.088
	l0.791-1.484l0.297-0.494l0.594-0.297l0.791,0.099L368.267,521.889L368.267,521.889z M358.078,502.403l0.297-0.494l0.494-0.396
	l0.496-0.296l0.594-0.198l0.592-0.099h0.594l0.594,0.099l0.494,0.297l0.396,0.396l0.396,0.396l0.295,0.495l0.199,0.593l0.098,0.594
	v0.594l-0.197,0.594l-0.297,0.494l-0.395,0.495l-0.396,0.396l-0.494,0.396l-0.594,0.297l-0.594,0.099l-0.594-0.099l-0.594-0.1
	l-0.988-0.593l-0.396-0.396l-0.297-0.495l-0.098-0.594l-0.1-0.593l0.1-0.594l0.098-0.594L358.078,502.403L358.078,502.403z"/>
<path fill="#FFFFFF" d="M397.15,523.571l-0.098,0.297l-0.297,0.594l-0.297,0.396l-0.297,0.494l-0.297,0.594l-0.297,0.495
	l-0.594,0.989l-0.297,0.396l-0.297,0.494l-0.297,0.495l-0.297,0.494l-0.395,0.396l-0.396,0.495l-0.395,0.396l-0.693,0.89
	l-0.396,0.396l-0.395,0.396l-1.781,1.483l-0.494,0.297l-0.594,0.297l-0.691,0.297l-0.791,0.297l-0.594,0.197l-0.594,0.1h-0.594
	l-0.791-0.1l-0.791-0.197l-0.594-0.198l-0.396-0.297l-0.395-0.396l-0.396-0.594l-0.396-0.692l-0.197-0.593l-0.197-0.792l-0.1-0.791
	v-0.594l0.1-0.791l0.098-0.792l-0.197-0.099l-0.297,0.396l-0.594,0.989l-0.594,0.891l-0.395,0.396l-0.297,0.396l-0.396,0.396
	l-0.297,0.396l-0.395,0.396l-0.396,0.396l-0.395,0.396l-0.396,0.297l-0.494,0.297l-0.891,1.187l-0.988,0.396l-0.99,0.297
	l-0.791,0.198l-1.188,0.099l-0.594-0.099l-0.791-0.1l-0.791-0.197l-0.594-0.198l-0.494-0.197l-0.396-0.297l-0.889-0.791
	l-0.297-0.396l-0.297-0.494l-0.396-0.692l-0.395-0.989l-0.199-0.791l-0.098-0.594l-0.1-0.791l-0.1-0.989v-0.792l0.1-0.593l0.1-0.792
	l0.098-0.791l0.199-0.594l0.197-0.791l0.197-0.791l0.197-0.594l0.297-0.495l0.199-0.593l1.482-3.066l0.297-0.495l0.297-0.396
	l0.297-0.494l0.594-0.891l0.396-0.396l0.791-0.989l0.297-0.297l0.395-0.495l0.891-0.791l0.594-0.594l0.693-0.494l0.889-0.692
	l0.496-0.297l0.395-0.297l0.594-0.297l0.791-0.297l0.693-0.396l0.594-0.297l0.791-0.296l0.791-0.198l0.594-0.198l1.582-0.099
	l0.594-0.099h0.791l1.285,0.099l1.484,0.099l1.385,0.297l0.594,0.1l0.693,0.197l2.57,1.188l0.396,0.396l0.396,0.297l0.395,0.396
	l0.396,0.396l0.098,0.692l-0.297,0.891l-0.691,0.791l-0.693,0.396l-0.494,0.099l-0.494-0.197l-0.494-0.396l-0.594-0.297
	l-0.494-0.297l-0.396-0.198l-0.494-0.297l-0.594-0.296l-0.494-0.1l-1.088-0.297l-0.594-0.197l-0.594-0.099h-1.287l-0.395,0.099
	l-0.594,0.099l-0.791,0.198l-1.584,0.593l-0.592,0.297l-0.594,0.396l-0.396,0.297l-0.494,0.297l-0.396,0.297l-0.395,0.396
	l-0.494,0.396l-0.297,0.297l-0.396,0.495l-0.396,0.396l-0.295,0.396l-0.793,0.891l-0.297,0.396l-0.295,0.494l-0.793,1.484
	l-0.297,0.494l-0.395,1.188l-0.297,0.593l-0.297,0.495l-0.396,1.682l-0.197,0.593l-0.197,1.682v1.781l0.098,0.593l0.199,0.594
	l0.297,0.495l0.297,0.494l0.395,0.396l0.594,0.297l0.791,0.099l0.791-0.099l0.594-0.197l0.99-0.495l0.891-0.791l0.395-0.396
	l0.396-0.396l0.395-0.396l0.297-0.396l0.396-0.396l0.297-0.396l0.691-0.989l0.297-0.396l0.99-1.484l0.395-0.692l0.396-0.791
	l0.297-0.396l0.791-1.682l0.297-0.594l0.098-0.396l0.297-0.594l0.199-0.494l0.197-0.594l0.297-0.692l0.395-1.286l0.297-0.692
	l0.199-0.594l0.395-0.593l0.594-0.297l0.594-0.099l0.594,0.099l0.594,0.099l0.988,0.495l0.494,0.296l0.297,0.396l0.1,0.593
	l-0.197,0.495l-0.1,0.594l-0.197,0.593l-0.297,1.188l-0.197,0.594l-0.1,0.494l-0.396,1.187l-0.098,0.594l-0.1,0.396l-0.197,0.792
	l-0.1,0.593l-0.297,1.089l-0.197,0.791l-0.1,0.594l-0.098,0.692l-0.199,0.989l-0.197,1.088l-0.1,0.989l0.1,0.791l0.297,0.495
	l0.594,0.296l0.988,0.1l0.791-0.297l0.594-0.297l0.891-0.594l0.396-0.396l0.791-0.791l0.791-0.891l0.594-0.89l0.297-0.495
	l0.395-0.494l0.1-0.396l0.988-1.483l0.297-0.494l0.297-0.495l1.287-2.571l0.594-0.297l0.791,0.099l0.494,0.594l0.1,0.594
	l-0.297,0.593L397.15,523.571L397.15,523.571z"/>
<path fill="#FFFFFF" d="M409.812,513.185l-0.494,0.297l-0.396,0.297l-0.396,0.296l-0.494,0.396l-0.395,0.396l-0.99,0.692
	l-0.395,0.297l-0.396,0.396l-0.396,0.396l-0.791,0.89l-0.395,0.396l-0.791,0.89l-0.594,0.989l-0.396,0.495l-0.791,1.483
	l-0.693,2.077l-0.197,0.791l-0.297,0.989l-0.297,0.792l-0.594,1.78l-0.297,0.791l-0.295,0.989l-0.199,0.791l-0.197,0.594
	l-0.197,0.792l-0.1,0.692l-0.197,0.593l-0.1,0.594l-0.1,0.495l-0.197,0.494l-0.396,0.297l-0.592,0.197l-0.594,0.1l-0.791,0.099
	l-0.99-0.099l-0.791-0.1l-0.494-0.296l-0.396-0.594l-0.098-0.692l0.098-0.594l0.197-0.791l0.199-0.792l0.098-0.593l0.199-0.594
	l0.098-0.594l0.199-0.494l0.197-0.594l0.1-0.594l0.098-0.494l0.1-0.594l0.197-0.594l0.197-0.494l0.297-1.188l0.1-0.494l0.1-0.594
	l0.197-0.594l0.1-0.593l0.197-0.594l0.197-0.791l0.297-0.792l0.297-1.187l0.1-0.495l0.098-0.594l0.199-0.593l0.098-0.594
	l0.199-0.494l0.098-0.594l0.199-0.594l0.197-0.791l0.197-0.792l0.1-0.593l0.395-1.188l0.1-0.494l0.197-0.594l0.297-1.188
	l0.396-0.593l0.791-0.396l0.988-0.1l0.99,0.1l0.988,0.296l0.594,0.594l0.1,0.792l-0.1,0.593l-0.098,0.396l-0.199,0.594l-0.098,0.594
	l-0.199,0.494l-0.098,0.594l-0.199,0.594l-0.098,0.594l-0.1,0.396l0.1,0.099l0.297-0.297l0.395-0.396l0.297-0.396l0.791-0.891
	l0.396-0.396l0.791-0.692l0.396-0.396l0.791-0.791l1.285-0.989l0.494-0.297l0.496-0.297l0.494-0.297l0.494-0.198l0.594-0.197
	l0.791-0.198l0.791-0.099h1.484l0.988,0.099l0.693,0.1l0.594,0.297l0.594,0.296l0.395,0.396l0.297,0.396l0.297,0.494l0.297,0.495
	l0.197,0.593l0.199,0.792l0.098,0.791v1.187l-0.098,0.594v0.594l-0.1,0.494l-0.1,0.594l-0.098,0.594l-0.1,0.396l-0.197,0.594
	l-0.197,0.791l-0.297,0.989l-0.297,0.791l-0.199,0.594l-0.197,0.791l-0.297,1.089l-0.297,0.989l-0.297,0.89l-0.098,0.594l-0.1,0.396
	l-0.1,0.594l-0.197,0.594l-0.1,0.494l-0.395,1.682l-0.1,0.594v1.187l0.297,0.495l0.396,0.297l0.594,0.099l0.592-0.198l0.594-0.297
	l0.496-0.296l0.395-0.297l0.494-0.396l0.791-0.792l0.297-0.396l0.396-0.494l0.297-0.396l0.395-0.494l0.297-0.396l0.396-0.594
	l0.594-0.989l0.395-0.594l0.199-0.297l0.395-0.593l0.297-0.594l0.494-0.989l0.297-0.594l0.199-0.494l0.197-0.594L424.55,521
	l0.594-0.396l0.791,0.197l0.494,0.594v0.594l-0.197,0.593l-0.297,0.495l-0.297,0.594l-0.297,0.494l-0.297,0.494l-0.297,0.495
	l-0.395,0.594l-0.199,0.396l-0.594,1.187l-0.098,0.396l-0.297,0.594l-0.594,0.989l-0.396,0.594l-0.295,0.297l-0.396,0.494
	l-0.396,0.594l-0.395,0.396L420,532.473l-0.395,0.396l-0.891,0.791l-0.396,0.396l-0.494,0.396l-0.494,0.297l-0.99,0.495
	l-0.494,0.197l-0.594,0.198l-0.594,0.099l-0.494,0.099l-0.594,0.1h-0.594l-0.592-0.1l-0.496-0.099l-0.594-0.198l-0.494-0.197
	l-0.494-0.297l-0.396-0.297l-0.395-0.396l-0.297-0.594l-0.197-0.494l-0.1-0.594l-0.1-0.494v-1.385l0.1-0.792l0.1-0.594l0.197-0.791
	l0.594-2.077l0.197-1.088l0.297-1.088l0.297-0.989l0.297-0.792l0.197-0.593l0.297-0.792l0.297-0.989l0.197-0.989l0.297-0.791
	l0.297-1.187l0.1-0.594l0.297-1.188l0.098-0.593l-0.098-0.594l-0.396-0.594l-0.594-0.594l-0.594-0.197l-0.592-0.099l-0.594,0.099
	L409.812,513.185L409.812,513.185z M443.839,512.196l-0.396-0.495l-0.395-0.692l-0.297-0.692l-0.297-0.593l-0.199-0.495
	l-0.098-0.594l-0.1-0.791l-0.098-1.088v-0.989l0.098-0.791l0.1-0.594l0.297-1.188l0.098-0.494l0.199-0.594l0.197-0.494l0.297-0.495
	l0.594-0.989l0.494-0.692l0.494-0.593l1.188-1.286l0.396-0.396l1.779-1.484l0.396-0.297l0.494-0.296l0.594-0.297l0.691-0.297
	l0.693-0.396l0.594-0.297l0.494-0.198l0.594-0.197l2.176-0.792l0.594-0.099l1.188-0.198l1.088-0.296l1.188-0.1l0.691-0.099h0.396
	l1.879-0.099h0.594l0.395,0.099h0.693l0.594-0.099l1.682,0.197l0.594,0.1l0.691,0.099l0.791,0.197l0.791,0.297l0.396,0.1
	l1.188,0.396l0.494,0.197l1.484,0.792l0.494,0.296l0.988,0.594l0.693,0.495l0.594,0.494l1.188,1.286l0.395,0.494l0.297,0.495
	l0.594,1.483l0.297,0.594l0.098,0.396l0.199,0.594l0.098,0.594l0.1,0.593v1.188l-0.1,0.594l-0.098,0.593l-0.1,0.792l-0.197,0.791
	l-0.197,0.594l-0.1,0.494l-0.197,0.594l-0.199,0.494l-0.297,0.495l-0.297,0.494l-0.295,0.495l-0.297,0.396l-0.396,0.396
	l-0.396,0.396l-0.395,0.396l-0.396,0.396l-0.395,0.396l-0.496,0.297l-0.395,0.396l-0.693,0.396l-0.691,0.396l-0.594,0.297
	l-0.791,0.297l-0.791,0.297l-0.594,0.297l-0.791,0.197l-0.793,0.198l-0.592,0.099l-0.594,0.198l-0.297,0.197l0.297,0.396
	l0.791,0.891l0.297,0.494l0.494,1.188l0.297,0.594l0.197,0.396l0.199,0.593l0.295,0.594l0.1,0.594l0.297,1.187l0.197,0.594
	l0.1,0.594l0.1,0.791l0.098,0.792l0.1,0.593l0.1,0.594l0.098,0.495l0.1,0.593l0.197,0.594l0.1,0.594l0.098,0.494l0.1,0.594
	l0.197,0.594l0.199,0.494l0.197,0.594l0.297,0.494l0.297,0.396l0.297,0.494l0.791,1.483l0.791,0.891l1.287,0.989l0.494,0.297
	l0.494,0.297l0.594,0.197l0.594,0.1l0.395,0.099l0.594,0.099l0.297,0.396l0.1,0.594v0.494l-0.1,0.594l-0.297,0.495l-0.395,0.396
	l-0.496,0.396l-0.791,0.297l-0.791,0.099l-0.594-0.099l-0.594-0.099l-0.494-0.1l-0.594-0.099l-0.594-0.297l-0.594-0.297
	l-0.494-0.297l-0.395-0.296l-0.496-0.396l-0.297-0.297l-0.494-0.396l-0.395-0.396l-0.396-0.594l-0.197-0.296l-0.396-0.594
	l-0.395-0.495l-0.297-0.396l-0.297-0.494l-0.297-0.594l-0.197-0.495l-0.496-0.988l-0.197-0.594l-0.1-0.594l-0.197-0.494l-0.1-0.594
	l-0.197-0.594l-0.098-0.594l-0.297-1.187l-0.1-0.495l-0.1-0.593l-0.197-0.594l-0.1-0.594l-0.098-0.494l-0.396-1.682l-0.1-0.594
	l-0.494-2.275L463.623,521l-0.297-0.495l-0.297-0.594l-0.396-0.593l-0.197-0.297l-0.395-0.594l-0.396-0.396l-0.891-0.791
	l-0.494-0.297l-0.594-0.297l-0.594-0.099l-0.594-0.1l-0.494,0.1l-0.395,0.296l-0.297,0.495l-0.396,1.385l-0.1,0.594l-0.098,0.692
	l-0.1,0.494l-0.395,1.188l-0.1,0.494l-0.197,0.594l-0.199,0.791l-0.197,0.792l-0.197,0.593l-0.496,1.484l-0.098,0.593l-0.396,1.188
	l-0.197,0.494l-0.197,0.594l-0.199,0.494l-0.197,0.594l-0.297,0.792l-0.395,0.989l-0.297,0.791l-0.396,1.187l-0.297,0.495
	l-0.594,0.396l-0.891,0.396h-0.988l-0.988-0.297l-0.793-0.594l-0.395-0.791l0.098-0.692l0.297-0.594l0.297-0.494l0.396-1.088
	l0.197-0.594l0.494-0.989l0.199-0.594l0.197-0.494l0.396-1.188l0.098-0.593l0.396-1.089l0.098-0.593l0.199-0.594l0.098-0.594
	l0.1-0.396l0.1-0.594l0.197-0.692l0.1-0.297l0.197-0.692l0.1-0.593l0.098-0.396l0.1-0.593l0.197-0.792l0.396-1.285l0.197-0.792
	l0.197-0.594l0.297-1.187l0.199-0.594l0.098-0.594l0.199-0.593l0.098-0.495l0.1-0.593l0.197-0.594l0.297-1.188l0.197-0.593
	l0.1-0.594l0.594-1.88l0.197-0.692l0.297-0.594l0.396-0.692l0.297-0.692l0.297-0.593l0.295-0.792l0.396-0.791l0.396-0.692
	l0.395-0.494l1.287-1.286l0.791-0.594l0.691-0.396l0.594-0.297l0.594-0.099h0.594l0.594,0.099l0.494,0.198l0.494,0.396l0.297,0.396
	l0.1,0.494l-0.297,0.495l-0.99,0.594l-0.395,0.396l-0.396,0.396l-0.395,0.494l-0.297,0.495l-0.297,0.494l-0.297,0.396l-0.297,0.495
	l-0.297,0.594l-0.197,0.494l-0.396,1.187l-0.297,0.594l-0.197,0.594l-0.1,0.494l-0.395,1.188l-0.1,0.594l-0.197,0.593l-0.1,0.594
	l-0.197,0.594l-0.1,0.594v0.494l0.197,0.297l0.496,0.099h0.594l0.592-0.099l0.693-0.099l1.682-0.1l0.891-0.099l0.691-0.099
	l0.594-0.1l0.494-0.099l0.99-0.297l0.594-0.197l0.594-0.297l0.494-0.297l0.988-0.594l0.396-0.297l0.891-0.791l0.395-0.396
	l0.396-0.396l0.297-0.495l0.297-0.494l0.494-0.989l0.395-1.188l0.1-0.593l0.1-0.792l0.098-0.791l-0.098-0.594l-0.1-0.593l-0.1-0.495
	l-0.098-0.594l-0.197-0.593l-0.199-0.495l-0.594-0.989l-0.594-0.89l-0.395-0.396l-0.396-0.296l-0.494-0.297l-0.395-0.297
	l-0.496-0.297l-0.791-0.396l-0.791-0.297l-0.594-0.297l-0.594-0.099l-0.494-0.1l-0.594-0.099l-0.594-0.099l-0.691-0.099h-0.396
	l-1.285-0.1l-0.594-0.099l-2.869,0.297l-0.594,0.099l-0.691,0.099l-0.396,0.1l-0.594,0.297l-0.594,0.197l-1.682,0.594l-0.592,0.297
	l-0.496,0.297l-0.395,0.297l-0.494,0.296l-0.594,0.396l-0.396,0.396l-0.395,0.297l-0.396,0.396l-0.494,0.396l-0.396,0.396
	l-0.297,0.396l-0.594,0.989l-0.297,0.396l-0.297,0.594l-0.197,0.495l-0.197,0.593l-0.297,1.188v0.494l-0.1,0.594v1.187l0.1,0.594
	l0.1,0.495l0.297,0.593l0.197,0.495l0.297,0.594l0.297,0.494l0.297,0.396l0.297,0.495v0.494l-0.199,0.495l-0.395,0.396l-0.396,0.396
	l-0.594,0.297l-0.494,0.099l-0.594-0.099l-0.594-0.396l-0.791-0.594L443.839,512.196L443.839,512.196z"/>
<path fill="#FFFFFF" d="M497.947,520.406l-0.297,0.396l-0.791,0.891l-0.891,0.791l-0.396,0.297l-0.594,0.297l-0.395,0.099
	l-0.594,0.396l-0.396,0.198l-0.592,0.297l-0.594,0.197l-0.594,0.198l-0.594,0.099l-0.594,0.099l-0.693,0.1l-0.791,0.099
	l-0.594,0.099h-0.592l-1.188-0.099l-1.188-0.099l-0.594-0.1l-1.682-0.396h-0.395l-0.297,0.297l-0.1,0.396v0.594l-0.1,0.594v1.088
	l0.1,0.594l0.1,0.494l0.395,1.188l0.594,0.989l0.396,0.396l0.395,0.396l0.99,0.594l0.594,0.197l0.594,0.198l0.395,0.099l0.594,0.099
	l0.594,0.1h0.594l0.594-0.1l1.682-0.296l0.592-0.1l0.594-0.197l0.496-0.198l1.088-0.396l0.988-0.494l0.891-0.693l0.396-0.296
	l0.395-0.396l0.891-0.791l0.791-0.89l0.297-0.396l0.396-0.494l0.592-0.891l0.297-0.494l0.297-0.495l0.297-0.494l0.297-0.495
	l0.297-0.396l0.297-0.494l0.297-0.594l0.297-0.494l0.297-0.495l0.395-0.297h0.594l0.594,0.396l0.297,0.593l-0.1,0.594l-0.297,0.594
	l-0.295,0.692l-0.396,0.692l-0.297,0.692l-0.396,0.692l-0.395,0.594l-0.594,0.989l-0.197,0.396l-0.396,0.593l-0.594,0.891
	l-0.395,0.396l-0.396,0.396l-0.395,0.396l-0.396,0.494l-0.197,0.297l-0.396,0.494l-0.395,0.396l-0.891,0.792l-0.594,0.494
	l-0.594,0.495l-0.99,0.593l-1.582,0.692l-0.494,0.198l-0.594,0.198l-0.791,0.099l-0.791,0.197l-1.287,0.1l-0.791,0.099l-0.691,0.099
	h-0.693l-2.275-0.297l-0.494-0.099l-0.594-0.197l-0.594-0.297l-0.494-0.297l-0.988-0.594l-0.496-0.297l-0.395-0.396l-0.396-0.396
	l-0.297-0.297l-0.395-0.494l-0.396-0.396l-0.297-0.494l-0.297-0.396l-0.297-0.594l-0.197-0.494l-0.197-0.594l-0.1-0.594
	l-0.098-0.494l-0.1-0.594l-0.197-1.682v-1.187l0.098-0.594v-0.594l0.396-1.682l0.197-0.494l0.1-0.594l0.197-0.594l0.1-0.594
	l0.197-0.593l0.297-0.692l0.297-0.792l0.297-0.593l0.395-0.692l0.396-0.594l0.297-0.594l0.297-0.396l0.395-0.396l0.99-0.989
	l0.988-0.989l0.496-0.396l0.592-0.396l0.594-0.396l0.594-0.396l0.594-0.396l0.594-0.297l0.594-0.297l0.791-0.396l1.285-0.396
	l1.188-0.297l0.791-0.099h1.385l0.791,0.099l0.99,0.198l0.791,0.197l0.594,0.198l0.594,0.297l0.494,0.297l0.396,0.297l0.889,0.791
	l0.396,0.396l0.396,0.594l0.295,0.791l0.199,0.594l0.098,0.594l0.1,0.593v0.792l-0.1,0.791l-0.098,0.594l-0.199,0.791l-0.295,0.791
	l-0.297,0.594l-0.199,0.297l-0.297,0.594L497.947,520.406L497.947,520.406z M490.132,512.79l-0.891,0.396l-0.791,0.396l-0.494,0.297
	l-0.891,0.791l-0.594,0.594l-0.494,0.594l-0.396,0.494l-0.395,0.692l-0.396,0.594l-0.297,0.594l-0.396,0.692l-0.295,0.791
	l-0.297,0.594l-0.199,0.494l-0.098,0.396l0.297,0.297l0.791,0.198l1.285,0.099l0.594,0.099h1.781l0.592-0.099l0.594-0.099
	l0.594-0.297l0.396-0.099l0.594-0.297l0.395-0.297l0.396-0.396l0.395-0.396l0.396-0.396l0.396-0.494l0.297-0.396l0.295-0.495
	l0.297-0.593l0.396-1.188l0.1-0.594l0.098-0.593l-0.098-0.594l-0.297-0.594l-0.396-0.396l-0.494-0.396l-0.594-0.297l-0.594-0.099
	l-0.594-0.1l-0.594,0.1H490.132L490.132,512.79z"/>
<path fill="#FFFFFF" d="M509.519,536.035l-0.494-0.099l-0.594-0.1l-0.594-0.197l-0.791-0.297l-0.691-0.396l-0.594-0.297
	l-0.594-0.495l-0.594-0.593l-0.396-0.396l-0.395-0.396l-0.396-0.396l-0.297-0.494l-0.297-0.594l-0.297-0.791l-0.295-0.692
	l-0.199-0.594l-0.197-0.792l-0.1-0.791l-0.098-0.594l-0.1-0.593v-1.188l0.1-0.494l0.098-0.594l0.1-0.594l0.1-0.791l0.197-0.791
	l0.197-0.594l0.1-0.594l0.395-1.286l0.297-0.692l0.297-0.593l0.99-1.979l0.297-0.495l0.594-0.89l0.889-0.989l0.199-0.297
	l0.395-0.495l0.396-0.396l0.395-0.396l0.396-0.396l0.396-0.297l0.494-0.396l0.395-0.297l0.496-0.297l0.494-0.297l0.395-0.297
	l0.496-0.296l0.691-0.297l1.287-0.396l0.691-0.198l0.594-0.099l0.594-0.1l0.594-0.099h1.088l0.594,0.099l0.791,0.1l0.988,0.297
	l0.791,0.296l0.594,0.198l0.396,0.297l0.395,0.297l0.396,0.396l0.396,0.396l0.395,0.396l0.297,0.594l0.297,0.692l0.197,0.791
	l0.1,0.594l-0.1,0.791l-0.197,0.792l-0.197,0.593l-0.297,0.495l-0.297,0.494l-0.396,0.594l-0.395,0.594l-0.396,0.396l-0.395,0.396
	l-0.496,0.297l-0.791,0.099h-0.988l-0.99-0.297l-0.594-0.396v-0.494l0.297-0.594l0.396-0.692l0.396-0.594l0.295-0.593l0.1-0.495
	l0.1-0.594v-0.396l-0.1-0.594l-0.395-0.593l-0.594-0.396l-0.594-0.198l-0.594-0.099l-0.594,0.099l-0.791,0.099l-0.791,0.297
	l-0.594,0.297l-0.396,0.297l-0.494,0.396l-0.396,0.297l-0.494,0.396l-0.494,0.594l-0.396,0.396l-0.395,0.594l-0.594,0.692
	l-0.396,0.692l-0.297,0.594l-0.295,0.494l-0.297,0.396l-0.297,0.495l-0.199,0.593l-0.197,0.495l-0.197,0.594l-0.199,0.791
	l-0.197,0.791l-0.098,0.594l-0.1,0.791l-0.1,0.792l-0.098,0.593v0.792l0.098,0.989l0.199,0.89l0.197,0.594l0.594,1.286l0.395,0.494
	l0.396,0.396l0.396,0.396l0.691,0.296l0.791,0.297l0.594,0.1l0.791,0.099h1.385l1.484-0.099l0.594-0.1l0.691-0.197l0.594-0.297
	l0.693-0.396l0.691-0.297l1.484-0.989l0.594-0.495l0.594-0.494l0.889-0.791l0.793-0.891l0.395-0.396l0.791-0.891l0.594-0.89
	l0.396-0.594l0.197-0.396l0.396-0.692l0.395-0.594l0.297-0.594l0.396-0.791l0.594-0.396l0.791,0.099l0.494,0.594v0.692l-0.197,0.494
	l-0.297,0.495l-0.297,0.593l-0.297,0.594l-0.396,0.692l-0.494,0.692l-0.494,0.792l-0.99,1.385l-0.395,0.494l0.1,0.594l-0.396,0.396
	l-1.188,1.286l-0.297,0.396l-0.395,0.396l-0.396,0.396l-0.891,0.594l-0.395,0.494l-0.396,0.297l-0.594,0.396l-0.494,0.296
	l-0.494,0.297l-0.494,0.297l-0.793,0.297l-0.791,0.297l-0.691,0.197l-0.791,0.1l-0.793,0.197l-1.186,0.198l-1.682,0.197
	l-1.188-0.099L509.519,536.035L509.519,536.035z"/>
<path fill="#FFFFFF" d="M541.271,521.889v0.692l-0.197,0.594l-0.494,0.989l-0.594,0.989l-0.297,0.594l-0.297,0.494l-0.395,0.594
	l-0.199,0.396l-0.297,0.594l-0.297,0.494l-0.295,0.396l-0.396,0.495l-0.297,0.396l-0.594,0.989l-1.188,1.286l-0.791,0.791
	l-0.395,0.396l-0.396,0.396l-0.396,0.396l-1.385,1.089l-0.395,0.297l-0.594,0.296l-0.594,0.198l-0.494,0.099l-1.188,0.297h-1.088
	l-0.691-0.099l-0.496-0.198l-0.594-0.197l-0.494-0.297l-0.395-0.396l-0.297-0.396l-0.297-0.495l-0.297-0.594l-0.1-0.494
	l-0.098-0.594l-0.1-0.594v-0.593l0.1-1.188l0.098-0.594l0.197-0.593l0.297-1.188l0.199-0.494l0.098-0.594l0.199-0.594l0.197-0.494
	l0.594-1.682l0.098-0.495l0.1-0.593l0.197-0.594l0.1-0.594l0.1-0.494l0.395-1.188l0.199-0.791l0.197-0.791l0.395-1.188l0.1-0.594
	l0.1-0.396l0.098-0.594l0.297-0.593l0.199-0.495l0.395-1.682l0.197-0.593l0.199-0.792l0.297-0.791l0.197-0.594l0.297-0.494
	l0.395-0.297l0.594-0.297l0.496-0.099l0.592,0.099l1.188,0.099l0.99,0.396l0.297,0.396v0.594l-0.1,0.594l-0.197,0.791l-0.199,0.792
	l-0.395,1.187l-0.1,0.495l-0.1,0.593l-0.197,0.594l-0.197,0.791l-0.594,1.88l-0.1,0.594l-0.297,0.791l-0.395,1.286l-0.1,0.594
	l-0.395,0.988l-0.1,0.594l-0.396,1.088l-0.098,0.594l-0.396,1.583l-0.395,1.187l-0.1,0.594l-0.197,0.791l-0.199,0.989l-0.098,1.088
	l0.098,0.989l0.496,0.692l0.691,0.198l0.594-0.099l0.594-0.297l0.395-0.297l0.496-0.396l2.076-2.077l0.396-0.396l0.297-0.396
	l0.395-0.494l0.594-0.989l0.396-0.396l0.297-0.396l0.297-0.495l0.395-0.594l0.297-0.593l0.494-1.088l0.793-1.484l0.295-0.494
	l0.594-0.297l0.791,0.099L541.271,521.889L541.271,521.889z M531.083,502.403l0.297-0.494l0.494-0.396l0.494-0.296l0.594-0.198
	l0.594-0.099h0.594l0.594,0.099l0.494,0.297l0.396,0.396l0.395,0.396l0.297,0.495l0.197,0.593l0.1,0.594v0.594l-0.197,0.594
	l-0.297,0.494l-0.396,0.495l-0.395,0.396l-0.496,0.396l-0.592,0.297l-0.594,0.099l-0.594-0.099l-0.594-0.1l-0.988-0.593
	l-0.396-0.396l-0.297-0.495l-0.1-0.594l-0.098-0.593l0.098-0.594l0.1-0.594L531.083,502.403L531.083,502.403z"/>
<path fill="#FFFFFF" d="M571.046,521.791v0.791l-0.199,0.594l-0.197,0.396l-0.297,0.495l-0.395,0.593l-0.199,0.297l-0.395,0.495
	l-0.297,0.594l-0.297,0.494l-0.594,0.891l-0.396,0.396l-0.395,0.396l-0.99,0.989l-0.494,0.396l-0.594,0.396l-0.594,0.396
	l-0.395,0.297l-0.494,0.297l-0.594,0.198l-0.693,0.296l-0.791,0.198l-0.594,0.198l-0.594,0.099h-0.691l-0.594-0.099l-0.594-0.1
	l-0.594-0.197h-0.494l-0.494,0.099l-0.396,0.297l-0.395,0.396l-0.396,0.396l-0.396,0.396l-0.395,0.297l-0.494,0.396l-0.594,0.396
	l-0.297,0.197l-0.594,0.297l-0.494,0.297l-0.594,0.297l-0.594,0.197l-0.396,0.1l-0.594,0.197l-1.186,0.297h-2.176l-0.693-0.099
	l-0.594-0.099l-0.594-0.1l-0.494-0.197l-0.594-0.297l-0.494-0.297l-0.594-0.297l-0.395-0.297l-0.396-0.396l-0.396-0.396
	l-0.395-0.198l-0.297,0.1l-0.197,0.396l-0.199,0.494l-0.297,1.188l-0.098,0.494l-0.1,0.594l-0.197,0.594l-0.396,1.483l-0.1,0.594
	l-0.098,0.594l-0.1,0.593l-0.197,0.594l-0.494,2.275l-0.1,0.593l-0.1,0.792l-0.098,0.791l-0.197,0.594l-0.1,0.791l-0.1,0.791
	l-0.098,0.594l-0.1,0.594l-0.197,0.494l-0.1,0.594l-0.1,0.594l-0.098,0.791l-0.1,0.791l-0.098,0.594l-0.199,0.495l-0.395,0.297
	l-0.396,0.197l-0.594,0.099l-0.691,0.1h-0.693l-0.395-0.1l-0.693-0.099l-0.594-0.297l-0.297-0.396l-0.098-0.494l0.098-0.594
	l0.1-0.594l0.098-0.494l0.496-2.275l0.098-0.594l0.1-0.593l0.197-0.792l0.1-0.791l0.1-0.594l0.098-0.791l0.1-0.791l0.594-2.869
	l0.098-0.594l0.1-0.494l0.1-0.594l0.197-0.594l0.395-1.483l0.1-0.594l0.1-0.791l0.197-0.791l0.197-0.594l0.1-0.594l0.1-0.494
	l0.395-1.682l0.197-0.495l0.199-0.593l0.297-1.089l0.197-0.593l0.1-0.792l0.197-0.791l0.1-0.594l0.395-1.187l0.396-1.484
	l0.197-0.593l0.297-1.188l0.197-0.791l0.199-0.792l0.098-0.593l0.197-0.594l0.199-0.495l0.197-0.593l0.1-0.495l0.197-0.593
	l0.1-0.594l0.197-0.495l0.197-0.593l0.1-0.594l0.1-0.495l0.295-0.989l0.199-0.593l0.197-0.594l0.197-0.494l0.1-0.594l0.494-1.484
	l0.396-0.396l0.791-0.297l0.988-0.099l0.99,0.099l0.988,0.396l0.594,0.692v0.988l-0.197,0.792l-0.1,0.396l0.1,0.099l0.297-0.297
	l0.594-0.494l0.594-0.396l0.494-0.396l0.594-0.396l0.691-0.396l0.594-0.297l0.791-0.296l0.891-0.297l0.791-0.297l0.594-0.099
	l0.791-0.1h0.791l0.594,0.1l0.594,0.099l0.494,0.197l0.494,0.1l0.496,0.197l0.594,0.297l0.494,0.297l0.395,0.297l0.396,0.396
	l0.791,0.791l0.396,0.594l0.297,0.495l0.197,0.494l0.197,0.594l0.1,0.594l0.098,0.494l0.297,1.187v1.682l0.1,0.594l-0.1,0.594v0.594
	l-0.098,0.593l-0.1,0.594l-0.098,0.594l-0.1,0.494l-0.1,0.594l-0.297,1.088l-0.197,0.594l-0.1,0.594l-0.098,0.494l-0.199,0.594
	l-0.295,0.594l-0.693,1.483l-0.693,1.385l0.1,0.297l0.396,0.099l0.594-0.099l0.592-0.099h0.396l0.594-0.1l0.594-0.296l0.494-0.297
	l1.088-0.594l0.891-0.791l0.395-0.396l0.396-0.396l0.297-0.396l0.396-0.494l0.297-0.495l0.592-0.989l0.396-0.593l0.297-0.495
	l0.297-0.594l0.494-0.988l0.594-0.297l0.791,0.099L571.046,521.791L571.046,521.791z M555.812,524.363l0.199-0.495l0.395-1.187
	l0.1-0.495l0.098-0.594l0.199-0.593l0.098-0.495l0.1-0.593l0.297-2.275l-0.1-0.594v-0.594l-0.098-0.593l-0.1-0.495l-0.1-0.594
	l-0.297-0.593l-0.494-0.594l-0.594-0.495l-0.592-0.296l-0.594-0.1l-0.496-0.099h-0.592l-0.594,0.099l-0.396,0.1l-0.594,0.099
	l-1.285,0.494l-0.396,0.1l-1.186,0.593l-0.594,0.297l-0.396,0.396l-0.494,0.297l-0.396,0.396l-0.891,0.891l-0.395,0.494
	l-0.297,0.692l-0.297,0.989l-0.297,0.792l-0.396,1.285l-0.197,0.792l-0.098,0.594l-0.199,0.791l-0.297,0.989l-0.197,0.791
	l-0.197,0.594l-0.1,1.088l-0.297,0.989l-0.297,0.989l-0.197,0.791l-0.1,0.594l0.1,0.494l0.297,0.396l0.395,0.396l0.396,0.396
	l0.396,0.297l0.592,0.297l0.793,0.297l0.791,0.197l1.188,0.099l0.592-0.099l0.594-0.099l0.594-0.099l0.494-0.1l0.594-0.099
	l0.494-0.297l0.99-0.594l0.494-0.297l0.396-0.396l0.297-0.396l-0.1-0.594l-0.297-0.593l-0.197-0.594l-0.1-0.495l0.1-0.593
	l0.297-0.396l0.395-0.396l0.791-0.297l0.891-0.197l0.594-0.297l0.396-0.594L555.812,524.363L555.812,524.363z"/>
<path fill="#FFFFFF" d="M589.246,520.406l-0.297,0.396l-0.791,0.891l-0.889,0.791l-0.396,0.297l-0.594,0.297l-0.396,0.099
	l-0.592,0.396l-0.396,0.198l-0.594,0.297l-0.594,0.197l-0.594,0.198l-0.592,0.099l-0.594,0.099l-0.693,0.1l-0.791,0.099
	l-0.594,0.099h-0.594l-1.186-0.099l-1.188-0.099l-0.594-0.1l-1.582-0.396h-0.396l-0.297,0.297l-0.1,0.396v0.594l-0.098,0.594v1.088
	l0.098,0.594l0.1,0.494l0.396,1.188l0.594,0.989l0.395,0.396l0.396,0.396l0.988,0.594l0.594,0.197l0.594,0.198l0.396,0.099
	l0.592,0.099l0.594,0.1h0.594l0.594-0.1l1.682-0.296l0.594-0.1l0.594-0.197l0.494-0.198l1.088-0.396l0.988-0.494l0.891-0.693
	l0.396-0.296l0.395-0.396l0.891-0.791l0.791-0.89l0.297-0.396l0.396-0.494l0.594-0.891l0.297-0.494l0.297-0.495l0.297-0.494
	l0.297-0.495l0.295-0.396l0.297-0.494l0.297-0.594l0.297-0.494l0.297-0.495l0.396-0.297h0.594l0.592,0.396l0.297,0.593l-0.098,0.594
	l-0.297,0.594l-0.297,0.692l-0.396,0.692l-0.297,0.692l-0.395,0.692l-0.396,0.594l-0.594,0.989l-0.197,0.396l-0.396,0.593
	l-0.592,0.891l-0.396,0.396l-0.396,0.396l-0.395,0.396l-0.396,0.494l-0.197,0.297l-0.396,0.494l-0.395,0.396l-0.891,0.792
	l-0.594,0.494l-0.594,0.495l-0.988,0.593l-1.584,0.692l-0.494,0.198l-0.594,0.198l-0.791,0.099l-0.791,0.197l-1.285,0.1
	l-0.793,0.099l-0.691,0.099h-0.594l-2.275-0.297l-0.494-0.099l-0.594-0.197l-0.594-0.297l-0.494-0.297l-0.988-0.594l-0.496-0.297
	l-0.395-0.396l-0.396-0.396l-0.297-0.297l-0.395-0.494l-0.396-0.396l-0.297-0.494l-0.297-0.396l-0.297-0.594l-0.197-0.494
	l-0.197-0.594l-0.297-0.692l-0.1-0.495l-0.098-0.593l-0.199-1.682v-1.188l0.1-0.594v-0.593l0.395-1.682l0.199-0.495l0.098-0.593
	l0.199-0.594l0.098-0.594l0.199-0.594l0.297-0.692l0.295-0.791l0.297-0.594l0.396-0.692l0.396-0.594l0.297-0.593l0.295-0.396
	l0.396-0.396l0.99-0.989l0.988-0.988l0.494-0.396l0.594-0.396l0.594-0.396l0.594-0.396l0.594-0.396l0.592-0.297l0.594-0.297
	l0.791-0.396l1.287-0.396l1.188-0.297l0.791-0.099h1.385l0.791,0.099l0.988,0.197l0.793,0.198l0.592,0.198l0.594,0.296l0.496,0.297
	l0.395,0.297l0.891,0.791l0.396,0.396l0.395,0.593l0.297,0.792l0.197,0.594l0.1,0.593l0.1,0.594v0.791l-0.1,0.792l-0.1,0.593
	l-0.197,0.792l-0.297,0.791l-0.297,0.594l-0.197,0.297l-0.297,0.593L589.246,520.406L589.246,520.406z M581.531,512.79l-0.891,0.396
	l-0.791,0.396l-0.494,0.297l-0.891,0.791l-0.594,0.594l-0.494,0.594l-0.396,0.494l-0.395,0.692l-0.396,0.594l-0.297,0.594
	l-0.395,0.692l-0.297,0.791l-0.297,0.594l-0.197,0.494l-0.1,0.396l0.297,0.297l0.791,0.198l1.285,0.099l0.594,0.099h1.781
	l0.594-0.099l0.594-0.099l0.592-0.297l0.396-0.099l0.594-0.297l0.395-0.297l0.396-0.396l0.396-0.396l0.395-0.396l0.396-0.494
	l0.297-0.396l0.297-0.495l0.297-0.593l0.395-1.188l0.1-0.594l0.098-0.593l-0.098-0.594l-0.297-0.594l-0.396-0.396l-0.494-0.396
	l-0.594-0.297l-0.594-0.099l-0.592-0.1l-0.594,0.1H581.531L581.531,512.79z"/>
<path fill="#D22C24" d="M152.035,321.089c1.187-0.099,1.682-0.89,2.572-1.187c-0.792-3.463,1.978-3.66,3.462-5.045l-7.221-3.66
	l1.088,10.683C152.035,321.781,152.134,321.584,152.035,321.089L152.035,321.089z M195.163,347.104v0.593
	C195.261,347.4,195.261,347.203,195.163,347.104z M159.651,315.648l-0.791-0.396v0.594
	C159.354,316.044,159.553,315.846,159.651,315.648z"/>
<path fill="#D22C24" d="M248.182,331.969l-15.728,0.791l-3.066-9.396l-1.385,0.791c0.099,0.396-0.099,0.891,0,1.188
	c-0.297-0.198-0.495-0.297-0.989-0.297c0-0.198,0-0.297,0.099-0.396l-15.728,8.902l11.87-28.39l-9.694,3.066l-6.825-20.377
	l-14.541,15.827l-1.681-1.483c-0.099,0.099-0.099,0.197-0.198,0.296c-0.396-0.296-0.495-0.494-0.396-0.692l-5.341-4.748
	l-0.692,30.764l-12.266-16.717l-6.727,7.319l-4.649-2.374c-0.099,0.1-0.099,0.297,0,0.594c-1.088-0.198-1.385,0.594-1.979,0
	c-1.385,1.88-2.572,3.562-3.561,6.43c-0.692-0.198-0.89-0.791-0.989-1.483c-0.89-0.198-0.692,0.593-1.286,0.593
	c0.198,0.297,0.593,0.495,0.989,0.594c-0.297,0.791-0.692-0.099-1.385-0.099l0.693,6.528l-7.716,2.968l3.166,3.759
	c0.593-0.297,1.78-0.198,1.978-0.1c-0.296,0.297-0.89,0.495-1.483,0.594l2.077,2.473c0.89,0,1.682,0.1,2.374,0.297
	c0,0.692-0.396,1.188-0.792,1.484l0.594,0.692c0.791,0.099,0.989,0.297,1.78,0c-0.297,0.197-0.593,0.692-0.89,1.088l12.167,14.145
	l-1.088,5.145l-2.572,5.539l27.004,2.176l25.521,9.101v-6.133l1.088-5.144l29.082-13.75l-5.836-5.836L248.182,331.969
	L248.182,331.969z M152.727,333.057c-0.099-0.692,0.594-0.692,0.297-1.483c0.495,0,0.89,0,0.989-0.297
	c0.495,0.099,0.099,0.891,0.692,0.891C153.618,332.068,154.112,332.86,152.727,333.057z M153.024,330.882
	c-0.593-0.891,0.89-2.572,0.989-3.957c0.396,0.297,1.187,0.297,1.682,0.594C154.112,328.012,153.618,329.595,153.024,330.882z
	 M210.198,344.927h0.989v1.484C210.89,345.917,210,345.917,210.198,344.927z M210.198,356.798c-0.692,0.692,0.594,1.483,0.297,2.77
	c-0.692,0.198-0.89,0.791-1.979,0.594c-0.198-1.483,0.198-2.473,0.692-3.363H210.198z M207.626,345.224
	c1.286-0.494,0.099,1.385,1.286,0.891c-0.297,0.396-0.495,0.989-1.286,0.89C208.22,346.51,207.329,346.312,207.626,345.224z
	 M210.198,360.755c0.792,0.692-1.879,0.89-0.692,2.176c-0.989-0.891-1.286,0.594-1.978,0.891c-0.891,0,0.791-0.792-0.693-0.594
	C207.131,361.546,209.11,361.644,210.198,360.755z M199.812,346.412c-0.396-1.781-0.89-2.968-0.297-4.551
	c0.396,0.495,0.692,2.572,1.286,1.78c0.198,0.692-0.692,2.177,0.297,3.363c-0.297,0-0.297,0.396-0.297,0.594
	c-0.989,0.791-0.989-1.187-2.572-0.594C198.526,346.312,198.822,346.115,199.812,346.412z M196.152,332.465
	c0,0.89-0.792,0.89-1.583,0.89C194.866,332.76,195.163,332.266,196.152,332.465z M189.327,323.858c0.494,0.396,0.099,0.594,0,1.484
	c-0.891-0.792-0.297,0.494-1.286,0.296C188.337,325.046,189.128,324.65,189.327,323.858z M188.041,346.708
	c-0.495-0.099-0.297-0.989-1.286-0.593v-1.484C187.843,344.631,188.634,346.015,188.041,346.708z M163.806,333.057
	c0.692,0.792,0.692,0.692,0.989,2.177c1.088-0.1,0.297-1.979,1.979-1.484c-0.198-0.692-1.187-0.692-1.979-0.89
	c0.495-0.594,0.495-1.781,1.583-1.781c0.099,0.792-0.495,0.989-0.692,1.484c0.396,0.692,1.583,0.692,1.978,0
	c0.989,0.494-0.198,1.385-0.989,1.187v1.88c-0.593,0.297-1.583,0.099-1.978,0.594c-0.396-0.1-0.297-0.792-0.297-1.188
	c-0.792,0.297,0.198,2.176-1.286,1.78C163.312,335.333,164.004,333.849,163.806,333.057z M168.752,338.201
	c-0.989,0.1-1.484-0.296-1.286-1.187C168.455,336.816,168.554,337.509,168.752,338.201z M158.563,342.455
	c0.396-0.594,1.088-0.989,1.978-1.188c-0.396,0.692-1.088,1.484,0.692,1.188c-0.099,0.396,0.099,0.594,0.297,0.594
	C161.036,344.334,159.058,343.049,158.563,342.455z M162.125,348.885c-0.594,0-1.088-0.198-1.286-0.594
	c0.297-0.989,1.385-1.088,2.275-1.483C163.509,348.093,161.729,347.4,162.125,348.885z M162.817,344.631
	c0.099-0.593,1.484,0,0.989-1.187c-1.088-0.396-0.297,0.989-1.286,0.594c-0.495-1.089-0.593-2.572-0.297-3.066
	c1.187-0.297,0.594,0.988,0,0.89c0.594,0.396,1.682,0.396,1.979,1.188c0.495-0.297,0.792-0.891,1.286-1.188
	c-0.989-1.483-1.385-1.483-0.692-3.363c-0.593,0.1-0.296,1.188-1.286,0.891c-0.692-0.594-1.187-0.891-0.692-1.78
	c0.989,0.791,1.682-0.396,2.572-0.594c-0.099,0.594,0.198,0.791,0.297,1.187c0.396,0,0.296-0.593,0.296-0.89
	c0.396,0.099,0.198,2.868,0.297,4.847c0.495,0,1.286,0.198,1.286-0.297c0.396,0.099,0.296,0.791,0.296,1.188
	c-1.583-0.396-1.879,0.494-1.978,1.483c-1.385,0.198-1.781-0.891-1.286,0.594C163.707,345.423,163.509,344.829,162.817,344.631
	L162.817,344.631z M165.487,354.424c0.297-0.692,0.693-1.187,1.682-1.187c-0.099,1.385-0.198,2.67,1.286,1.879
	c0.099,1.286-1.879,0.692-1.286,2.473c-0.89,0-0.989-0.791-0.989-1.483C167.565,356.599,165.982,354.622,165.487,354.424z
	 M168.06,364.118c-0.989,0.099-1.088-0.692-0.989-1.484C168.06,362.634,168.752,363.524,168.06,364.118z M166.081,359.864
	c0.099-0.396,0.593-0.297,0.989-0.297c0.396-0.197,0.593-0.692,0.692-1.187c0.297,0.197,0.593,0.396,0.692,0
	c0.89-0.198-0.198,1.483,0.692,1.187C168.158,360.161,166.971,360.952,166.081,359.864L166.081,359.864z M169.048,336.718
	c-0.495-0.297-0.692-0.791-0.692-1.483c0.891,0,0.792,0.89,1.682,0.89C169.939,336.519,169.048,336.223,169.048,336.718z
	 M171.621,360.161c1.187,0.692,3.264-0.594,4.55,0.297c-0.495,1.088-2.176-0.198-1.978,0.89c-1.088-0.494-2.078-0.197-3.265,0
	C170.631,360.458,172.016,361.15,171.621,360.161z M177.555,365.997c-1.385-0.198-1.879,0.495-2.967,0.594
	c-0.396-1.88-1.286-0.396-2.275-0.891c0.989-0.791,3.165-0.494,3.561-1.879c-0.198-0.297-0.792-0.297-0.693-0.891
	c-0.791-0.099-0.989,0.494-1.286,0.891c-1.385-1.089,0.89-1.385,0.989-2.177c0.296,0,0.296,0.396,0.296,0.594
	c0.989-0.198-0.296-0.692,0-1.187c1.682,1.285,1.781,0.197,2.572,2.176c-0.594,0-0.692,0.396-1.286,0.297
	C176.764,364.909,177.951,363.721,177.555,365.997L177.555,365.997z M178.149,340.378c-0.396,0.297-0.89,0.396-1.682,0.297
	c0-0.792,0.989-0.692,0.989-1.484C178.149,339.19,178.248,339.685,178.149,340.378z M183.392,358.084
	c0.099-0.396-0.099-0.594-0.297-0.594c0.198-0.989,0.89-0.396,1.682-0.297C184.875,357.885,184.084,357.885,183.392,358.084z
	 M182.798,343.049c-0.099-0.692,0.594-0.692,0.297-1.484c1.682,0.297,2.967-2.274,2.967,0.594
	C184.776,342.356,184.183,343.049,182.798,343.049z M184.381,303.778c-0.099-1.088,1.78-0.396,2.275-0.89
	c-0.198,0.197-0.297,0.494-0.297,0.89H184.381z M186.656,351.357c0.89-1.088,0.692-0.494,0.297-2.176
	c2.275,0.692,0.89,0.593,3.264,0c-0.198,1.483-0.396,1.978,0.297,3.066C189.623,351.456,187.546,351.456,186.656,351.357
	L186.656,351.357z M190.909,348.588h-0.989V347.4h0.989C190.415,347.994,191.008,347.797,190.909,348.588z M192.591,316.539
	c-0.594,0.297-1.088-0.891-1.286,0c-0.692,0.099-0.198-1.088-0.297-1.484c1.484,0.594,1.781,0.594,2.572-0.593
	C194.371,314.956,192.492,315.648,192.591,316.539z M193.876,347.104c0.692-0.297,1.385-0.495,1.583-1.188
	c0.593,0.297,0.495,1.088,1.286,1.188c-0.297,0.396-0.989,0.396-1.583,0.593c0,0.792-0.099,1.979,0.989,1.88
	c-0.594,0.594-1.187,0.494-1.979,0.297C195.063,348.983,193.679,348.291,193.876,347.104z M195.855,358.973
	c0.099-0.593,1.484-0.099,1.286-0.89c0.396,0,0.296,0.594,0.296,0.89C196.053,358.776,196.646,360.062,195.855,358.973z
	 M198.822,354.127c-0.989,0.396-0.791-0.494-1.286-0.594c-0.495,0.692-0.692,1.583-1.979,1.484v-1.188
	c0.099-0.692-1.484,0.198-0.989-0.89c1.088-0.198,1.385,0.593,1.979,0c-0.495-0.989-0.099-1.385,0-2.474
	c0.89,0.692,1.484,3.265,3.264,2.177C200.702,353.039,198.822,353.533,198.822,354.127z M200.405,349.181
	c-0.692-0.692,0.396-1.188,0.692-1.88C201.79,347.697,201.295,349.379,200.405,349.181z M200.108,341.564
	c-1.385-0.692,1.187-2.671,1.979-3.363C202.482,339.19,199.515,340.476,200.108,341.564z M205.648,345.818
	c0-0.792,0.494-0.989,0.692-1.583c0.692,0.198,1.286,0.495,0.989,1.583c-0.593,0.099-0.593-0.198-0.692-0.594
	C206.34,345.423,206.34,345.917,205.648,345.818z M211.879,366.887c-1.187,1.879-4.451,0-5.243,2.473
	c-1.78-0.594,1.879-2.077,0.989-2.77c0.198-0.792,2.275,0.297,1.682-1.188c1.088-0.297,0.495,0.989,1.286,0.891
	c0.692,0.099,1.78-1.88,0.296-1.88c-0.099-0.296,0.099-0.296,0.297-0.296v-0.594C211.979,364.118,211.879,365.601,211.879,366.887z
	 M212.176,363.227c-1.187-0.692,0.989-0.692,0.692-1.483C214.649,362.04,212.473,362.93,212.176,363.227z M211.879,344.631
	c-0.099-1.088,1.781-0.396,2.275-0.89C214.155,344.631,212.869,344.532,211.879,344.631z M219.397,357.094
	c0.396,1.187-1.088,0.594-0.692,1.879C217.518,358.677,218.21,356.996,219.397,357.094z M218.111,360.161
	c0.297-0.989,0.593-0.099,1.682-0.297C219.298,360.853,218.804,360.853,218.111,360.161z M222.958,329.694
	c0.692-0.296,1.187-0.791,1.286-1.483c1.879,0.396,1.583-1.187,2.967-1.187c0.297,0.296,0.396,0.692,0.297,1.187
	c-1.286-0.396,0.099,0.297,0.692,0.297v1.187c-0.792-0.296-1.286-0.89-1.979-1.187c-0.396,0.099-0.296,0.791-0.296,1.187
	C224.837,328.606,223.552,330.288,222.958,329.694z M228.201,346.412c-1.682,0-1.484-1.682-3.264-1.484
	c0-0.594,1.088-0.197,0.989-0.89c0.791,0.396,1.187,1.088,2.572,0.89C228.794,345.818,228.102,345.719,228.201,346.412z"/>
</svg>
