<svg xmlns="http://www.w3.org/2000/svg" width="141" height="45" viewBox="0 0 141 45"><defs><style>.cls-1{fill:#fff;fill-rule:evenodd}</style></defs><path class="cls-1" d="M0 30.32c0-3.17 1.894-6.2 9.362-6.19 5.669 0 8.648 2.1 8.643 5.63v2.84h-7.724v-3.74c0-.66 0-1.37-1.383-1.37a1.139 1.139 0 0 0-1.178 1.32v11.51a1.131 1.131 0 0 0 1.173 1.31c1.383 0 1.384-.76 1.387-1.63v-4.06h7.724v3.31c0 3.54-3.323 5.75-8.819 5.75-7.765-.01-9.191-3.04-9.188-6.2v-8.48m20.459-5.69l7.72-.04.041 7.26 2.936-.01-.037-7.27 7.726-.04.1 20.03-7.725.04-.044-8.39-2.936.02.041 8.39-7.721.04-.1-20.03m20.859 0h7.725l-.01 20.03h-7.722l.007-20.03m9.714 5.78c-.032-3.17 1.828-6.22 9.3-6.29 5.669-.05 8.666 2.02 8.7 5.56l.025 2.83-7.724.07-.034-3.73c0-.67-.011-1.37-1.4-1.36a1.139 1.139 0 0 0-1.164 1.33l.112 11.5a1.137 1.137 0 0 0 1.187 1.31c1.384-.01 1.376-.77 1.369-1.64l-.036-4.07 7.718-.07.034 3.31c.032 3.53-3.26 5.78-8.759 5.83-7.764.07-9.22-2.94-9.25-6.11l-.081-8.47m28.031 9.9a1.476 1.476 0 0 0 2.936 0l-.014-11.5a1.475 1.475 0 0 0-2.934 0l.012 11.5m-7.731-9.98c-.012-3.16 1.418-6.2 9.187-6.21s9.193 3.02 9.19 6.19l.014 8.47c0 3.18-1.424 6.21-9.188 6.22s-9.195-3.02-9.2-6.19zm28.353 2.79h1.336c1.35 0 1.851-.42 1.851-1.21v-2.72c0-.78-.507-1.2-1.85-1.2h-1.342l.008 5.13m-7.481-8.49l10.116-.01c4.45-.01 7.094 1.45 7.1 4.56v2.47c.009 2.89-1.586 4.83-6.372 4.84h-3.358l.013 8.16-7.475.01zm19.672-.03l13.058.03-.011 4.04-5.335-.01v3.68l4.994.01-.014 3.87-4.99-.02-.017 4.41 5.758.01-.016 4.04-13.469-.03.047-20.03m15.682 0l13.057.03-.011 4.04-5.335-.01v3.68l5 .01-.015 3.87-4.99-.02-.017 4.41 5.759.01-.017 4.04-13.469-.03.048-20.03M35.393 8.92a1.89 1.89 0 0 0 .7-.32c-.2-.93.535-.97.918-1.35l-1.932-.98.285 2.87a.214.214 0 0 0 .02-.22zm11.551 6.96v.17h.007a.543.543 0 0 0-.016-.17zm-9.51-8.41l-.2-.11a.9.9 0 0 0 0 .17.182.182 0 0 0 .191-.06zm23.688 4.37l-4.214.21-.83-2.53-.378.22c.015.09-.026.24 0 .33a.474.474 0 0 0-.263-.08.2.2 0 0 1 .021-.11l-4.2 2.4 3.185-7.61-2.585.81L50.02 0l-3.9 4.26-.451-.4a.19.19 0 0 0-.043.07c-.112-.07-.126-.14-.1-.2L44.09 2.45l-.195 8.25-3.277-4.49-1.788 1.97-1.255-.64a.287.287 0 0 0 0 .16 1.118 1.118 0 0 1-.526 0 6.15 6.15 0 0 0-.963 1.72.45.45 0 0 1-.263-.41c-.239-.06-.174.16-.349.16a.584.584 0 0 0 .263.16c-.066.22-.187-.03-.363-.02l.173 1.76-2.06.8.855 1a.779.779 0 0 1 .519-.02.615.615 0 0 1-.4.16l.561.66a1.752 1.752 0 0 1 .628.08.467.467 0 0 1-.22.39l.17.2a.681.681 0 0 0 .486-.01 1.366 1.366 0 0 0-.242.3l3.25 3.8-.293 1.37-.675 1.49 7.24.57 6.841 2.45-.01-1.64.293-1.37 7.789-3.69-1.554-1.58zm-25.556.28a1.355 1.355 0 0 0 .09-.41c.124.01.247.01.261-.08a1.157 1.157 0 0 0 .175.24c-.287 0-.151.21-.535.25zm.09-.58a2.926 2.926 0 0 1 .261-1.06c.115.09.323.08.438.16a1.483 1.483 0 0 0-.708.9zm15.315 3.77h.263v.41c-.093-.14-.334-.13-.272-.41zm0 3.19c-.184.2.169.39.088.74a.908.908 0 0 1-.526.16 1.347 1.347 0 0 1 .175-.9h.263zm-.7-3.11c.332-.12.017.37.35.25a.341.341 0 0 1-.35.24c.154-.14-.081-.2-.01-.49zm.7 4.18c.206.17-.5.23-.176.57-.26-.23-.354.15-.525.25-.245 0 .209-.23-.174-.17.021-.46.574-.43.866-.65zm-2.8-3.85a2 2 0 0 1-.088-1.23c.1.14.195.69.351.49a1.33 1.33 0 0 0 .087.9c-.083.01-.067.1-.087.17-.258.22-.258-.31-.7-.17a.28.28 0 0 1 .426-.16zm-.962-3.76c.013.22-.214.23-.436.24a.372.372 0 0 1 .427-.24zm-1.838-2.3c.121.11.024.17 0 .41-.231-.21-.068.13-.349.08a2.082 2.082 0 0 0 .338-.49zm-.349 6.14c-.138-.03-.074-.25-.351-.16v-.41a.388.388 0 0 1 .34.57zm-6.478-3.68a.817.817 0 0 1 .264.57c.283-.03.07-.53.524-.41a.653.653 0 0 0-.524-.25.679.679 0 0 1 .436-.49 1.035 1.035 0 0 1-.173.42.312.312 0 0 0 .524 0c.263.12-.064.36-.263.32v.49a1.316 1.316 0 0 0-.524.17c-.119-.03-.073-.21-.088-.33-.21.07.053.6-.35.49a5.638 5.638 0 0 0 .163-.98zm1.314 1.39q-.411.06-.35-.33c.282-.05.308.14.339.33zm-2.714 1.15a.8.8 0 0 1 .527-.33c-.116.19-.3.4.173.33a.124.124 0 0 0 .089.16c-.133.33-.67 0-.8-.16zm.963 1.72a.416.416 0 0 1-.35-.17.878.878 0 0 1 .613-.41c.092.37-.398.18-.27.58zm.174-1.15c.036-.16.4-.01.263-.33-.282-.1-.066.27-.35.17a1.169 1.169 0 0 1-.087-.82c.308-.08.153.27 0 .24a.981.981 0 0 1 .525.33c.135-.09.216-.23.35-.33a.683.683 0 0 1-.174-.9c-.169.03-.07.32-.35.25-.179-.16-.305-.24-.177-.49.252.21.463-.12.7-.17a.508.508 0 0 0 .089.33c.1-.01.074-.15.086-.25a4.59 4.59 0 0 1 .087 1.31c.139 0 .334.05.351-.08.118.03.073.21.087.33-.422-.1-.492.14-.525.41-.379.05-.485-.23-.349.16a.911.911 0 0 1-.537-.16zm.7 2.62a.435.435 0 0 1 .439-.33c-.025.37-.046.73.349.49.021.35-.5.19-.349.66-.247.01-.253-.2-.264-.41.38.19-.041-.35-.185-.41zm.7 2.62c-.273.04-.279-.17-.261-.41.251-.01.434.24.251.41zm-.525-1.15c.015-.09.16-.07.264-.08a.346.346 0 0 0 .174-.33c.079.05.158.1.175 0 .237-.05-.062.39.175.33-.237.16-.572.37-.798.08zm.788-6.22a.386.386 0 0 1-.175-.41c.248-.01.2.25.437.25a.9.9 0 0 0-.272.16zm.7 6.3c.319.2.864-.16 1.224.09-.123.28-.569-.05-.525.24a1.378 1.378 0 0 0-.875 0c-.117-.26.274-.06.167-.33zm1.575 1.56a2.965 2.965 0 0 0-.788.17c-.111-.51-.346-.12-.612-.25.272-.21.847-.14.962-.49-.057-.09-.2-.09-.176-.25a.361.361 0 0 0-.349.25c-.365-.3.249-.36.262-.58.086.01.068.11.087.17.263-.06-.082-.18 0-.33.45.34.487.06.7.57-.157-.01-.184.1-.35.09.054.36.376.06.255.65zm.175-6.88a.624.624 0 0 1-.438.09 3.513 3.513 0 0 0 .263-.42.246.246 0 0 1 .166.33zm1.4 4.75a.125.125 0 0 0-.089-.16c.061-.26.234-.11.438-.08.019.21-.191.21-.357.24zm-.176-4.01a1.355 1.355 0 0 0 .087-.41c.451.07.8-.6.789.16a5.7 5.7 0 0 1-.884.25zm.438-10.56c-.026-.3.466-.11.612-.25a.391.391 0 0 0-.087.25h-.525zm.612 12.77c.248-.3.2-.13.088-.57a.814.814 0 0 0 .875 0 .926.926 0 0 0 .087.82 2.356 2.356 0 0 0-1.058-.25zm1.138-.74h-.262v-.32h.256c-.149.16.006.1 0 .32zm.437-8.59c-.163.07-.293-.25-.349 0-.19.01-.04-.29-.088-.41.385.16.468.15.7-.17.194.15-.282.34-.271.58zm.352 8.18a.7.7 0 0 0 .437-.32 1.045 1.045 0 0 0 .35.32.765.765 0 0 1-.432.17c-.008.21-.024.52.256.49a.459.459 0 0 1-.525.08c.208-.22-.145-.41-.094-.74zm.524 3.2c.025-.17.387-.02.35-.25.1.02.073.15.087.25-.379-.05-.241.29-.445 0zm.787-1.31c-.275.09-.214-.13-.35-.17a.57.57 0 0 1-.524.41v-.32c.034-.2-.4.04-.262-.25a1.111 1.111 0 0 0 .524 0 .92.92 0 0 1 0-.66c.248.18.393.89.874.58.241.13-.251.25-.268.41zm.437-1.31c-.185-.17.1-.32.175-.49.188.08.062.54-.183.49zm-.087-2.05c-.378-.19.313-.72.526-.9.118.25-.682.6-.534.9zm1.488 1.15a.975.975 0 0 1 .175-.41.3.3 0 0 1 .263.41c-.149.03-.165-.07-.176-.17a.307.307 0 0 1-.27.17zm1.662 5.65c-.307.5-1.2 0-1.4.65-.467-.16.5-.55.263-.73.04-.21.614.08.438-.33.281-.07.12.27.351.24.182.02.472-.49.087-.49-.016-.07.034-.08.088-.08v-.16a1.172 1.172 0 0 1 .167.9zm.089-.99c-.322-.17.262-.18.174-.41.472.09-.106.33-.182.41zm-.089-4.99c-.025-.3.468-.11.614-.25-.02.26-.354.23-.62.25zm2.014 3.36c.112.32-.288.16-.175.49-.338-.07-.145-.54.167-.49zm-.349.81c.079-.27.161-.03.437-.08-.117.25-.262.27-.445.08zm1.312-8.18a.561.561 0 0 0 .349-.41c.5.1.412-.33.789-.33a.451.451 0 0 1 .088.33c-.352-.11.02.09.174.08v.33c-.206-.08-.334-.24-.526-.33-.118.02-.072.2-.086.33-.291-.29-.641.16-.796 0zm1.4 4.5c-.443.01-.395-.45-.876-.41a.789.789 0 0 0 .264-.24.955.955 0 0 0 .7.24 1.418 1.418 0 0 1-.096.41z"/></svg>