<svg id="Layer_1" xmlns="http://www.w3.org/2000/svg" viewBox="0 0 601.8 269.1"><style>.st0{fill-rule:evenodd;clip-rule:evenodd}.st1{fill:#9f130e}</style><path class="st0" d="M20.1 114.3c0-11.9 7.2-23.4 35.4-23.3 21.4 0 32.7 7.9 32.6 21.2v10.7H58.9v-14.1c0-2.5 0-5.2-5.2-5.2-3.3 0-4.4 2.3-4.4 5V152c0 2.6 1.1 5 4.4 5 5.2 0 5.2-2.9 5.2-6.1v-15.3h29.2v12.5c0 13.3-12.6 21.7-33.3 21.7-29.3 0-34.7-11.4-34.7-23.4v-32.1m77.2-21.5l29.2-.1.2 27.3h11l-.1-27.4 29.2-.2.4 75.5-29.2.2-.2-31.7-11.1.1.2 31.6-29.2.2-.4-75.5m78.8 0h29.2v75.5h-29.2V92.8m36.7 21.8c-.1-12 6.9-23.4 35.1-23.7 21.4-.2 32.7 7.6 32.9 20.9l.1 10.7-29.2.3-.1-14.1c0-2.5 0-5.2-5.3-5.1-3.3 0-4.4 2.4-4.4 5l.4 43.3c0 2.6 1.2 5 4.5 4.9 5.2 0 5.2-2.9 5.2-6.2l-.1-15.3 29.2-.3.1 12.5c.1 13.3-12.3 21.8-33.1 22-29.3.3-34.8-11.1-34.9-23l-.4-31.9m105.9 37.3c0 2.6 1.1 5 5.6 5 4.4 0 5.5-2.3 5.5-5l-.1-43.3c0-2.7-1.1-5-5.5-5s-5.5 2.3-5.5 5v43.3m-29.2-37.6c0-11.9 5.4-23.4 34.7-23.4 29.3 0 34.7 11.4 34.7 23.3l.1 31.9c0 12-5.4 23.4-34.7 23.4-29.3 0-34.7-11.4-34.7-23.3l-.1-31.9zm107.1 10.5h5c5.1 0 7-1.6 7-4.6v-10.3c0-3-1.9-4.5-7-4.5h-5.1l.1 19.4m-28.2-32h38.2c16.8 0 26.8 5.5 26.8 17.2v9.3c0 10.9-6 18.2-24.1 18.2h-12.7v30.8h-28.2V92.8zm74.3-.1l49.3.1-.1 15.2h-20.1v13.8l18.8.1v14.6l-18.9-.1V153h21.7v15.3l-50.9-.1.2-75.5M567 177.4v-9.5h2.3l2.4 7.6 2.3-7.6h2.3v9.5h-1.4v-8l-2.4 8H571l-2.5-8.1v8.1H567m-5.8 0v-8.1h-3.1v-1.4h7.8v1.4h-3.1v8.1h-1.6zm-59.3-84.7l49.3.1V108H531v13.8l18.9.1-.1 14.6-18.8-.1-.1 16.6h21.8l-.1 15.3-50.9-.1.2-75.5"/><path d="M60.4 237.1l.1.7-.3.6-.3.6-.2.5-.3.4-.3.5-.2.5-.3.6-.3.7-.4.7-.3.6-.3.4-.4.5-.8 1.3-.4.5-.3.4-.8.8-.4.3-.8.8-.4.4-1 .5-.8.3-.8.4-.4.1-.6.3-.8.1-.8.1-1.2-.1H46l-.6-.1-1.2-.4-1-.6-.4-.3-.4-.4-.4-.4-.3-.4-.3-.5-.3-.5-.3-.6-.1-.6-.2-1.7-.1-.6v-.5l.3-1.2.2-.8.3-1 .3-.8.3-.6.2-.5.3-.5.3-.4.3-.5.8-1.4.4-.6.4-.6.5-.6.3-.5.4-.7.4-.6.3-.6v-.7l-.2-.8-.3-.6-1-1.3-.4-.4-.5-.6-.7-.5-.6.1-.4.5-.3.5-.3.5-.3.5-.6.9-.4.4-1.3 1.3-.9.8-.4.3-.6.4-1.2.7-.6.4-.5.3-1.1.4-.6.2-.5.2-.6.1-.7.3-.6.4-.3.5-.5 1-.2.5-.2.6-.3.5-.3.5-.6 1-.3.5-.3.6-.2.4-.4.6-.3.5-1 1.3-.4.4-.4.5-.4.4-.4.4-.8.8-.4.4-.9.8-1 .6-.4.3-.5.3-.6.3-.8.4-1.2.6-.6.2-.5.2-.6.1-1.7.2h-1.2l-1.2-.1-.8-.1-.8-.1-1.2-.3-.6-.1-1.1-.1-.7-.3-.5-.3-.5-.3-.5-.4-.4-.4-1.3-1.3-.4-.4-.3-.4-.6-1-.3-.4-.3-.5-.3-.5-.2-.6-.3-1.2-.1-.6-.2-.5-.1-.6-.1-.6v-.7l-.1-.8L0 237v-.6l.2-1.7v-.7l.1-.6.1-.6.1-.6.1-.6.2-.8.2-.8.2-.6.2-.5.3-.6.2-.5.2-.6.3-.8.4-.8.3-.6.4-.6.6-.6.6-.3.6.1.6.2.6.3.5.4.4.4.1.6-.1.6-.2.6-.5 1-.3.6-.2.7-.5 1.5-.2.6-.1.6-.1.5-.1.6-.3 2.9v1.2l.1.7.1.6v.5l.1.6.3 1.2.1.5.2.6.1.5.2.6.3.6.3.5.3.4.4.5.3.3.4.4.4.4.4.3.5.3.8.3.8.2.7.1 1.2.1h.6l.6-.1.6-.1.5-.2.6-.2.5-.2.6-.2.4-.3.5-.3.6-.4.4-.3.9-.8 1.5-1.8.3-.4.4-.5.3-.4.5-1 .3-.6.2-.4.4-.6.5-1 .3-.6.3-.5.2-.6.1-.4-.2-.3-.4-.2-1.2-.1-1.2-.3-.6-.2-.3-.1-1.2-.3-.6-.2-1.6-.6-.5-.3-.5-.3-1-.6-.5-.4-.3-.3-.6-.4-.5-.3-.8-.8-.4-.4-1.2-1.2-.4-.4-.3-.5-.3-.4-.4-.5-.3-.4-.3-.6-.5-1-.2-.5-.2-.6-.4-1.1-.2-.6-.2-.3-.1-.6-.1-.6-.1-.6-.1-.5v-1.2l.1-.6.1-.6v-.6l.1-.5.3-1.2.3-.8.3-.8.3-.6.5-1 .3-.4.4-.4.3-.3.4-.5.4-.4.4-.4.4-.3.5-.4 1.4-.8.6-.3.4-.1.7-.3 1.5-.4.6-.1.6-.1H21l1.2.1.8.2.8.2 1.3.4.8.3.6.3 1 .6.6.4.6.6.4.4.3.4.3.4.4.4.3.5.6 1.2.3.8.3.6.3.8.3 1 .2.8.1.6.1.8.1.8.1.6.1.6-.1.6v2.8l-.1 1.2-.1.6-.1.8-.1.8v.6l-.1.8-.2.8-.1.6-.3 1.2v.7l.4.4h.7l.6-.3 1-.4.6-.3.6-.3.5-.3.5-.3.5-.4 1.6-1.6.4-.4.3-.5.3-.6.2-.4.3-.6.3-.6.1-.6-.2-.7-.3-.7-.3-.6-.3-.7-.2-.8v-.6l.1-.8.3-1 .4-.6.5-.4.7-.3.8-.1.6.1.5.3.4.4.3.4.3.5.1.8.1.8v1.4l.1.8.3.4.8.9.5.5.4.4.4.3.8.8.4.4.4.4.3.4.4.4.7.8.4.6.3.4.3.5.3.6.2.5v.6l-.1.5-.2.6-.3.5-.3.4-.3.4-.4.5-.4.4-.3.4-.4.5-.3.5-.3.5-.3.4-.3.5-.3.4-.4 1.1-.3.5-.3.6-.1.5-.2.6-.1.6-.1 1.2v1.2l.1.6.2.6.2.5.3.5.6.5.7.3.6.1.8-.1.8.4.6-.2.5-.2.5-.3.6-.4.6-.6.4-.4.8-.8.5-.6.6-.8.5-.7.3-.5.6-1 .4-.8.4-.6.3-.6.8-1.7.6-.6.8.2.6.7zm-33.6-8.3l.1-.8.1-.6.1-.8.1-.8.1-.6.1-.8.1-.8.1-.6.1-.8v-1.3l-.1-.6-.1-.6-.1-.8v-.8l-.1-.6-.2-.8-.1-.8-.2-.6-.2-.5-.3-.6-.3-.7-.4-.7-.4-.5-.4-.4-.4-.3-.4-.3-.5-.3-.5-.2-.6-.3-.8-.2-1-.1h-1.1l-1.1.1-1 .2-.8.3-.6.3-.6.4-.6.5-.4.4-.3.4-.3.5-.3.8-.3.9-.3.8-.1.6-.1 1.2v.6l.1.6v1.2l.1.6.1.6.4 1.2.3.5.2.6.3.5.3.6.3.6.4.4.3.4.8.9.5.5.3.3 1 .9.4.3.9.7.6.4.8.4.4.2.7.3 1.2.4.6.1 1.2.3.6.1.5-.1.4-.5.3-1 .1-1.4z"/><path d="M73.3 236.6v.7l-.2.6-.5 1-.6 1-.3.6-.3.5-.4.6-.2.4-.3.6-.3.5-.3.4-.4.5-.3.4-.6 1-1.2 1.3-.8.8-.4.4-.4.4-.4.4-1.4 1.1-.4.3-.6.3-.6.2-.5.1-1.2.3h-1.1l-.7-.1-.5-.2-.6-.2-.5-.3-.4-.4-.3-.4-.3-.5-.3-.6-.1-.5-.1-.6-.1-.6v-.6l.1-1.2.1-.6.2-.6.3-1.2.2-.5.1-.6.2-.6.2-.5.6-1.7.1-.5.1-.6.2-.6.1-.6.1-.5.4-1.2.2-.8.2-.8.4-1.2.1-.6.1-.4.1-.6.3-.6.2-.5.4-1.7.2-.6.2-.8.3-.8.2-.6.3-.5.4-.3.6-.3.5-.1.6.1 1 .6 1 .4.3.4v.6l-.1.6-.2.8-.2.8-.4 1.2-.1.5-.1.6-.2.6-.2.8-.6 1.9-.1.6-.3.8-.4 1.3-.1.6-.3.5-.1.6-.4 1.1-.1.6-.4 1.6-.4 1.2-.1.6-.2.8-.2 1-.1 1.1.1 1 .5.7.7.2.6-.1.6-.3.4-.3.5-.4 2.1-2.1.4-.4.3-.4.4-.5.6-1 .4-.4.3-.4.3-.5.4-.6.3-.6.5-1.1.8-1.5.3-.5.6-.3.8.1.4.4zM63 216.9l.3-.5.5-.4.5-.3.6-.2.6-.1h.6l.6.1.5.3.4.4.4.4.3.5.2.6.1.6v.6l-.2.6-.3.5-.4.5-.4.4-.5.4-.6.3-.6.1-.6-.1-.6-.1-1-.6-.4-.4-.3-.5-.1-.6-.1-.6.1-.6.1-.6.3-.7z"/><path d="M74.5 269l-.7-.2-.4-.1-.6-.3-.5-.3-.4-.4-.4-.4-.3-.5-.4-.7-.3-.7-.1-.6-.1-.6.1-.6.1-.8.2-.8.2-.6.3-.7.4-.7.3-.5.4-.5.4-.4.7-.8 1.3-1.2.4-.3 1.4-.9.6-.3.7-.4.8-.3.6-.3.3-.1.7-.4.7-.3.6-.3.6-.3.5-.2.4-.3.4-.4.2-.5.4-1.1.5-1.6.1-.6.2-.6.1-.5.1-.6.2-.6.1-.5.2-.6.4-1 .2-.6H86l-.3.5-.6 1-.3.4-.4.4-.3.4-.4.5-.3.3-.4.5-.4.4-.8.8-.4.4-.5.3-1 .5-.5.3-.5.3-.5.1-.6.1-1.2.1h-1.2l-.8-.1-.8-.1-.6-.3-.7-.4-.6-.4-.4-.4-.4-.4-.3-.5-.4-.8-.3-.7-.1-.6-.1-.6-.1-.6-.1-.8-.1-.8v-.6l.1-1.2.1-.8.2-1 .3-.8.2-.6.1-.5.2-.6.2-.5.3-.6.3-.7.5-1.2.3-.6.3-.6.3-.4.8-1.2.4-.7.4-.4.6-.9.8-.9.4-.4.5-.4.8-.7 1.8-1.3 1.4-.8.6-.3.7-.3 1.3-.4.6-.1.4-.1.6-.2.6-.1 1.2-.1h.6l1.7.1h.8l.6.1.5.1.6.1.6.3.6.2.4.1.5.3.5.2.6.3.7.4.6.3.6.4.5.4.4.4.2.6-.2.7-.4.5-.4.4-.4.3-.5.3-.6-.1-.6-.3-.9-.6-1-.6-.5-.3-.6-.2-.6-.1-.6-.2-1.2-.3h-1.8l-.6.1-.6.1-.7.2-.7.3-.7.2-.8.4-.9.5-.7.5-.4.3-.4.4-.4.4-.5.6-.5.6-.4.5-.4.6-.8 1.1-.5.8-.4.7-.5 1.2-.2.5-.3.6-.4 1.2-.1.6-.2.6-.1.6-.1.6-.1.6-.1.6-.1.6v.6l.1.6.2.6.2.6.1.4.3.6.4.4.5.3.6.1h.6l.5-.1.6-.1.5-.3 1.3-1 .4-.4.4-.4.4-.4.4-.4.4-.4.3-.4.6-1 .4-.6.5-.6.3-.5.3-.4.2-.6.5-1 .6-1 .3-.5.3-.6 1.5-4.6.1-.6.3-.6.5-.5.6-.3h.6l.8.1.8.3.6.3.4.6.2.7-.1.6-.1.6-.4 1.2-.1.5-.2.6-.1.6-.4 1.2-.1.5-.1.5-.2.6-.4 1.7-.4 1.2-.1.6-.1.6-.1.4-.1.6-.1.6-.2.6-.3.8-.2.8-.2.6-.1.6-.6 1.7-.1.7.1.4.5-.1 1-.4.5-.3.5-.3.4-.3.5-.4.4-.3.4-.4.4-.3.4-.4.5-.5.4-.4.4-.4.3-.4.3-.5.4-.4.4-.6.6-.7.4-.5.6-1 .3-.4.3-.5.3-.5.2-.6.8-1.5.3-.6.3-.5.4-.4.4-.3h.6l.6.4.3.4v.6l-.3.6-.3.8-.3.7-.3.5-.3.5-.3.6-.3.7-.4.7-.4.6-.4.6-.4.6-.4.5-.3.4-.4.6-.2.3-.9 1.2-.6.6-.8.8-.5.4-.8.7-.4.4-.4.4-.4.4-.5.3-.4.3-.5.3-.4.3-.5.3-1 .5-1 .6-.5.3-.5.3-.3.6-.3.8-.1.6-.2.5-.1.6-.2.6-.1.3-.2.6-.2.6-.3.8-.3 1-.4 1-.3.8-.2.6-.2.5-.3.6-.4.6-.4.7-.4.5-.3.4-.4.4-.4.3-.4.4-.6.4-.5.3-.7.3-1 .3-.8.1-.6.1h-.6l-.6-.1-1.6-.8zm.5-5.5l.1.8.3.5.6.4.7.2.6-.1.5-.2.5-.3.6-.5.5-.5.4-.5.3-.4.3-.6.6-1.4.2-.6.9-2.7.1-.8-.4-.3-.6.3-.6.3-1.5 1-.4.3-.5.4-.4.4-1.2 1.2-.4.4-.4.5-.3.4-.3.5-.3.6.1.7z"/><path d="M116.3 236.6v.7l-.2.6-.5 1-.6 1-.3.6-.3.5-.4.6-.2.4-.3.6-.3.5-.3.4-.4.5-.3.4-.6 1-1.2 1.3-.8.8-.4.4-.4.4-.4.4-1.4 1.3-.4.3-.6.3-.6.2-.5.1-1.2.3h-1.1l-.7-.1-.5-.2-.6-.2-.5-.3-.4-.4-.3-.4-.3-.5-.3-.6-.1-.5-.1-.6-.1-.6v-.6l.1-1.2.1-.6.2-.6.3-1.2.2-.5.1-.6.2-.6.2-.5.6-1.7.1-.5.1-.6.2-.6.1-.6.1-.5.4-1.2.2-.8.2-.8.4-1.2.1-.6.1-.4.1-.6.3-.6.2-.5.4-1.7.2-.6.2-.8.3-.8.2-.6.3-.5.4-.3.6-.3.5-.1.6.1 1.2.1 1 .4.3.4v.6l-.1.6-.2.8-.2.8-.4 1.2-.1.5-.1.6-.2.6-.2.8-.6 1.9-.1.6-.3.8-.4 1.3-.1.6-.1.5-.1.6-.4 1.1-.1.6-.4 1.6-.4 1.2-.1.6-.2.8-.2 1-.1 1.1.1 1 .5.7.7.2.6-.1.6-.3.4-.3.5-.4 2.1-2.1.4-.4.3-.4.4-.5.6-1 .4-.4.3-.4.3-.5.4-.6.3-.6.5-1.1.8-1.5.3-.5.6-.3.8.1v.7zM106 216.9l.3-.5.5-.4.5-.3.6-.2.6-.1h.6l.6.1.5.3.4.4.4.4.3.5.2.6.1.6v.6l-.2.6-.3.5-.4.5-.4.4-.5.4-.6.3-.6.1-.6-.1-.6-.1-1-.6-.4-.4-.3-.5-.1-.6-.1-.6.1-.6.1-.6.3-.7z"/><path d="M128.2 227.8l-.5.3-.4.3-.4.3-.5.4-.4.4-1 .7-.4.3-.4.4-.4.4-.8.9-.4.4-.8.9-.6 1-.4.5-.8 1.5-.7 2.1-.2.8-.3 1-.3.8-.4 1.7-.3.8-.3 1-.2.8-.2.6-.2.8-.1.7-.2.6-.1.6-.1.5-.2.5-.4.3-.6.2-.6.1-.8.1-1-.1-.8-.1-.5-.3-.4-.6-.1-.7.1-.6.2-.8.2-.8.1-.6.2-.6.1-.6.2-.5.2-.6.1-.6.1-.5.1-.6.2-.6.2-.5.3-1.2.1-.5.1-.6.2-.6.1-.6.2-.6.2-.8.3-.8.3-1.2.1-.5.1-.6.2-.6.1-.6.2-.5.1-.6.2-.6.2-.8.2-.8.1-.6.4-1.2.1-.5.2-.6.3-1.2.4-.6.8-.4 1-.1 1 .1 1 .3.6.6.1.8-.1.6-.1.4-.2.6-.1.6-.2.5-.1.6-.2.6-.1.6-.1.4.1.1.3-.3.4-.4.3-.4.8-.9.4-.4.8-.7.4-.4.8-.8 1.3-1 .5-.3.5-.3.5-.3.5-.2.6-.2.8-.2.8-.1h1.5l1 .1.7.1.6.3.6.3.4.4.3.4.3.5.3.5.2.6.2.8.1.8v1.2l-.1.6v.6l-.1.5-.1.6-.1.6-.1.4-.2.6-.2.8-.3 1-.3.8-.2.6-.2.8-.3 1.1-.3 1-.3.9-.1.6-.1.4-.1.6-.2.6-.1.5-.4 1.7-.1.6v1.2l.3.5.4.3.6.1.6-.2.6-.3.5-.3.4-.3.5-.4.8-.8.3-.4.4-.5.3-.4.4-.5.3-.4.4-.6.6-1 .4-.6.2-.3.4-.6.3-.6.5-1 .3-.6.2-.5.2-.6.3-.5.6-.4.8.2.5.6v.6l-.2.6-.3.5-.3.6-.3.5-.3.5-.3.5-.4.6-.2.4-.6 1.2-.1.4-.3.6-.6 1-.4.6-.3.3-.4.5-.4.6-.4.4-.7.8-.4.4-.9.8-.4.4-.5.4-.5.3-1 .5-.5.2-.6.2-.6.1-.5.1-.6.1h-.6l-.6-.1-.5-.1-.6-.2-.5-.2-.5-.3-.4-.3-.4-.4-.3-.6-.2-.5-.1-.6-.1-.5v-1.4l.1-.8.1-.6.2-.8.6-2.1.2-1.1.3-1.1.3-1 .3-.8.2-.6.3-.8.3-1 .2-1 .3-.8.3-1.2.1-.6.3-1.2.1-.6-.1-.6-.4-.6-.6-.6-.6-.2-.6-.1-.6.1-.5.4z"/><path d="M174.4 238.3l-.1.3-.3.6-.3.4-.3.5-.3.6-.3.5-.6 1-.3.4-.3.5-.3.5-.3.5-.4.4-.4.5-.4.4-.7.9-.4.4-.4.4-1.8 1.5-.5.3-.6.3-.7.3-.8.3-.6.2-.6.1h-.6l-.8-.1-.8-.2-.6-.2-.4-.3-.4-.4-.4-.6-.4-.7-.2-.6-.2-.8-.1-.8v-.6l.1-.8.1-.8-.2-.1-.3.4-.6 1-.6.9-.4.4-.3.4-.4.4-.3.4-.4.4-.4.4-.4.4-.4.3-.5.3-.7.4-1 .4-1 .3-.8.2-1.2.1-.6-.1-.8-.1-.8-.2-.6-.2-.5-.2-.4-.3-.9-.8-.3-.4-.3-.5-.4-.7-.4-1-.2-.8-.1-.6-.1-.8-.1-1v-.8l.1-.6.1-.8.1-.8.2-.6.2-.8.2-.8.2-.6.3-.5.2-.6 1.5-3.1.3-.5.3-.4.3-.5.6-.9.4-.4.8-1 .3-.3.4-.5.9-.8.6-.6.7-.5.9-.7.5-.3.4-.3.6-.3.8-.3.7-.4.6-.3.8-.3.8-.2.6-.2 1.6-.1.6-.1h.8l1.3.1 1.5.1 1.4.3.6.1.7.2 2.6 1.2.4.4.4.3.4.4.4.4.1.7-.3.9-.7.8-.7.4-.5.1-.5-.2-.5-.4-.6-.3-.5-.3-.4-.2-.5-.3-.6-.3-.5-.1-1.1-.3-.6-.2-.6-.1h-1.3l-.4.1-.6.1-.8.2-1.6.6-.6.3-.6.4-.4.3-.5.3-.4.3-1 1.1-.5.4-.3.3-.4.5-.4.4-.3.4-.8.9-.3.4-.3.5-.8 1.5-.3.5-.4 1.2-.3.6-.3.5-.4 1.7-.2.6-.2 1.7v1.8l.1.6.2.6.3.5.3.5.4.4.6.3.8.1.8-.1.6-.2 1-.5.9-.8.4-.4.4-.4.4-.4.3-.4.4-.4.3-.4.7-1 .3-.4 1-1.5.4-.7.4-.8.3-.4.8-1.7.3-.6.1-.4.3-.6.2-.5.2-.6.3-.7.4-1.3.3-.7.2-.6.4-.6.6-.3.6-.1.6.1.6.1 1 .5.5.3.3.4.1.6-.2.5-.1.6-.2.6-.3 1.2-.2.6-.1.5-.4 1.2-.1.6-.1.4-.2.8-.1.6-.3 1.1-.2.8-.1.6-.1.7-.2 1-.2 1.1-.1 1 .1.8.3.5.6.3 1 .1.8-.3.6-.3.9-.6.4-.4.8-.8.8-.9.6-.9.3-.5.4-.5.1-.4 1-1.5.3-.5.3-.5 1.3-2.6.6-.3.8.1.5.6.1.6-.3.6-.6.4z"/><path d="M192.7 219.6l-.3.6-.5 1-.3.7-.4.7-.3.4-.3.5-.3.4-.3.6-.3.4-.3.5-.4.6-.6.6-.6.6-.3.3-.4.5-.8.8-.4.4-.7.8-.4.4-.5.5-.7.5-1 .8-.5.3-1.4.9-.4.2-.5.3-.7.6-.4.6-.3.5-.1.7-.2 1.2v.4l-.1.6-.1.6-.1.6v1.3l-.1.8v1.3l.1.7.1.4.1.6.3.6.3.5.4.4.5.3.5.2.6.1h1.1l.5-.1.6-.2.8-.3.7-.4.5-.4.6-.5.6-.6.8-.7.5-.4.4-.5.3-.3.4-.5.3-.4.4-.6.3-.3.4-.6.5-1 .3-.5.4-.6.3-.6.3-.6.6-.8.6-.5.8.1.5.6v.6l-.2.6-.3.5-.3.5-.3.6-.3.5-.2.5-.3.5-.3.4-.3.5-.4.6-.1.3-.3.6-.4.5-.6.9-.4.6-.3.3-.4.6-.4.4-.5.6-.6.5-.4.4-.4.3-.4.4-.6.3-.5.3-.6.3-.5.3-.5.2-.6.3-.8.3-1.3.3-.8.1-.7-.1h-.4l-.6-.1-.6-.1-.5-.2-.6-.2-.5-.3-.5-.3-.4-.4-.4-.4-.4-.4-.3-.5-.3-.6-.2-.5-.1-.6-.2-.6-.1-.6-.1-.6v-.4l-.1-.7-.1-.6v-.6l.1-.6.1-.6v-.4l.1-.8.2-1.4.1-.8v-.6l.1-.6.1-.6.4-2.1.2-.8.2-1.2.1-.3.2-.8.1-.4.3-1 .2-.8.1-.6.2-.8.3-.9.1-.4.3-.9.3-.8.2-.4.3-.8.3-.8.3-.6.6-1.7.1-.4.4-.9.4-1 .3-.8.3-.6.2-.4.3-.6.4-1.1.3-.6.3-.6.4-.6.5-.8.8-1.2.4-.5.8-.8.3-.3.4-.4.4-.3 1-.7.7-.4.7-.3.6-.2.6-.1h1.2l.6.1.4.1.6.2.5.3.9.8.3.5.4.6.3.8.3.6.3.8.1.8v1.2l-.1 1.7-.3 1.2-.2.5-.1.6-.5 1.5-.3.5-.5.9zm-10.6 1.8l-.9 2.7-.1.6-.2.6-.3.8-.4 1.3-.2.6-.1.4-.2.6-.2.6-.1.6.1.4.4-.3.6-.5 2.6-2.6.3-.4.3-.5.4-.6.3-.3.4-.6.4-.6.4-.6.4-.7.3-.5.3-.4.3-.4.5-1 .3-.6.2-.4.3-.6.3-.6.1-.6.2-.6.2-.7.3-.7.2-.7.3-.7.1-.6.1-.6V212l-.1-.5-.2-.5-.4-.3-.5-.1-.6.1-.6.4-.4.4-.3.4-.3.4-.3.5-.6 1-.3.6-.3.6-.3.5-.3.6-.3.5-.3.6-.2.5-.3.7-.4 1-.3.6-.6 1.4zm38.2 29.5l-1.4-.3-.6-.2-.8-.3-.7-.3-.5-.3-.4-.4-.4-.3-1.3-1.2-.8-.8-.4-.4-.3-.5-.6-1-.5-1-.2-.6-.2-.5-.3-.6-.3-.7-.2-.8-.1-.6-.1-.6-.1-.6-.1-.8-.1-.8-.1-.6v-1.8l-.1-.6v-.6l.1-.6.1-.8.1-.8.1-.6.1-.5.1-.6.1-.6.1-.6.1-.8.2-.8.3-1.2.2-.6.3-.8.4-1.3.2-.5.2-.6.3-.5.3-.6.4-.7.3-.8.3-.6.8-1.4.2-.5v-.5l-.2-.4-.3-.5-.3-.6-.3-.7-.4-.7-.5-.5-.3-.8-.3-.7-.2-.6-.2-.8-.3-.8-.3-1.2-.1-.6.3-.7.7-.4h1l.8.4.4.7.1.6.1.6.2.6.2.6.2.5.2.6.3.6.6 1.1.3.6.3.4h.3l.8-.8.4-.4 1.2-1.2.6-.5.4-.4.5-.3.6-.4.3-.3.5-.4.6-.3 2.1-1.2 1-.5.5-.2 1.2-.3.6-.2.6-.1 1.8-.3 1.2-.1h.6l.6.1h.6l.7.1h.4l.7.1.5.1.6.3.5.2.6.3.5.3.5.3.4.3.4.4.5.5.3.4.3.5.3.5.3.6.2.5.1.6.1.6.1 1.2v1.2l-.1.5-.1.6-.2.6-.2.5-.3.6-.3.5-.3.5-.3.4-.4.5-.6.9-.4.4-.4.4-.9.8-.4.3-.5.3-.4.3-.5.3-.7.3-.8.3-.6.3-.6.2-.6.1-.5.1-1.5.1-.8.1H228l-1.2-.1-.4-.1-.6-.1-1.5-.4-1.2-.4-.8-.3-.5-.3-.5-.3-.5-.3-.5-.3-.5-.3-.5-.3-.4-.3-.4-.3-.3.1-.3.4-.7 1.8-.4 1-.3.8-.2.6-.1.5-.2.6-.1.8-.1.8-.1 1.2-.1.6-.1.8-.1 1-.1.8v1.4l.1.8v.6l.1.8.2 1 .1.8.1.6.2.8.4 1.3.4.8.4 1 .4.7.3.5.3.4.4.4.6.5.6.4.6.3.5.2.6.2.8.2 1 .1h1.4l.6-.1 1.4-.3.8-.1.6-.2.8-.3 1-.4 1.3-.6.5-.3.4-.3 1.3-1 1.3-1.2.5-.6.5-.6.8-1.2.4-.6.4-.5.3-.4.3-.5.4-.7.4-.6.5-.3.8.3.5.6.1.7-.3.6-.3.5-.3.6-.8 1.4-.3.6-1.3 1.8-.4.5-.4.5-.6.6-.5.6-.9.8-.4.4-.4.4-.6.4-.3.3-.6.4-.9.6-.5.3-.6.3-.5.3-1.1.4-.6.2-.5.2-.6.1-.6.2-.5.1-.6.1-1.8.3h-1.1l-.6-.1h-.6l-.9.1zm9.6-40.7l-.6.1-.6.2-.8.3-.8.3-.5.3-.5.3-.5.3-1 .6-.4.3-.4.4-.4.4-.3.3-.4.4-.7.6-.4.4-.4.4-.3.5-.3.7.1.8.5.6 1 .6.4.3.5.3.4.3.6.2.5.1 1.2.3.6.1 1.7.1h1.2l.6-.1.6-.1.5-.1.6-.2.8-.3.7-.4.5-.3.9-.8.4-.4.4-.5.3-.4 1-2 .1-.6.1-.6v-.5l-.1-.6-.3-.6-.4-.6-.5-.6-.4-.4-.5-.3-.6-.2-.5-.1-.6-.1-.6-.1h-.6l-1.8.4z"/><path d="M270.4 238.3l-.1.3-.3.6-.3.4-.3.5-.3.6-.3.5-.6 1-.3.4-.3.5-.3.5-.3.5-.4.4-.4.5-.4.4-.7.9-.4.4-.4.4-1.8 1.5-.5.3-.6.3-.7.3-.8.3-.6.2-.6.1h-.6l-.8-.1-.8-.2-.6-.2-.4-.3-.4-.4-.4-.6-.4-.7-.2-.6-.2-.8-.1-.8v-.6l.1-.8.1-.8-.2-.1-.3.4-.6 1-.6.9-.4.4-.3.4-.4.4-.3.4-.4.4-.4.4-.4.4-.4.3-.5.3-.7.4-1 .4-1 .3-.8.2-1.2.1-.6-.1-.8-.1-.8-.2-.6-.2-.5-.2-.4-.3-.9-.8-.3-.4-.3-.5-.4-.7-.4-1-.2-.8-.1-.6-.1-.8-.1-1v-.8l.1-.6.1-.8.1-.8.2-.6.2-.8.2-.8.2-.6.3-.5.2-.6 1.5-3.1.3-.5.3-.4.3-.5.6-.9.4-.4.8-1 .3-.3.4-.5.9-.8.6-.6.7-.5.9-.7.5-.3.4-.3.6-.3.8-.3.7-.4.6-.3.8-.3.8-.2.6-.2 1.6-.1.6-.1h.8l1.3.1 1.5.1 1.4.3.6.1.7.2 2.6 1.2.4.4.4.3.4.4.4.4.1.7-.3.9-.7.8-.7.4-.5.1-.5-.2-.5-.4-.6-.3-.5-.3-.4-.2-.5-.3-.6-.3-.5-.1-1.1-.3-.6-.2-.6-.1h-1.3l-.4.1-.6.1-.8.2-1.6.6-.6.3-.6.4-.4.3-.5.3-.4.3-1 1.1-.5.4-.3.3-.4.5-.4.4-.3.4-.8.9-.3.4-.3.5-.8 1.5-.3.5-.4 1.2-.3.6-.3.5-.4 1.7-.2.6-.2 1.7v1.8l.1.6.2.6.3.5.3.5.4.4.6.3.8.1.8-.1.6-.2 1-.5.9-.8.4-.4.4-.4.4-.4.3-.4.4-.4.3-.4.7-1 .3-.4 1-1.5.4-.7.4-.8.3-.4.8-1.7.3-.6.1-.4.3-.6.2-.5.2-.6.3-.7.4-1.3.3-.7.2-.6.4-.6.6-.3.6-.1.6.1.6.1 1 .5.5.3.3.4.1.6-.2.5-.1.6-.2.6-.3 1.2-.2.6-.1.5-.4 1.2-.1.6-.1.4-.2.8-.1.6-.3 1.1-.2.8-.1.6-.1.7-.2 1-.2 1.1-.1 1 .1.8.3.5.6.3 1 .1.8-.3.6-.3.9-.6.4-.4.8-.8.8-.9.6-.9.3-.5.4-.5.1-.4 1-1.5.3-.5.3-.5 1.3-2.6.6-.3.8.1.5.6.1.6-.3.6-.6.4z"/><path d="M283.1 227.8l-.5.3-.4.3-.4.3-.5.4-.4.4-1 .7-.4.3-.4.4-.4.4-.8.9-.4.4-.8.9-.6 1-.4.5-.8 1.5-.7 2.1-.2.8-.3 1-.3.8-.4 1.7-.3.8-.3 1-.2.8-.2.6-.2.8-.1.7-.2.6-.1.6-.1.5-.3.7-.4.3-.6.2-.6.1-.8.1-1-.1-.8-.1-.5-.3-.4-.6-.1-.7.1-.6.2-.8.2-.8.1-.6.2-.6.1-.6.2-.5.2-.6.1-.6.1-.5.1-.6.2-.6.2-.5.3-1.2.1-.5.1-.6.2-.6.1-.6.2-.6.2-.8.3-.8.3-1.2.1-.5.1-.6.2-.6.1-.6.2-.5.1-.6.2-.6.2-.8.2-.8.1-.6.4-1.2.1-.5.2-.6.3-1.2.4-.6.8-.4 1-.1 1 .1 1 .3.6.6.1.8-.1.6-.1.4-.2.6-.1.6-.2.5-.1.6-.2.6-.1.6-.1.4.1.1.3-.3.4-.4.3-.4.8-.9.4-.4.8-.7.4-.4.8-.8 1.3-1 .5-.3.5-.3.5-.3.5-.2.6-.2.8-.2.8-.1h1.5l1 .1.7.1.6.3.6.3.4.4.3.4.3.5.3.5.2.6.2.8.1.8v1.2l-.1.6v.6l-.1.5-.1.6-.1.6-.1.4-.2.6-.2.8-.3 1-.3.8-.2.6-.2.8-.3 1.1-.3 1-.3.9-.1.6-.1.4-.1.6-.2.6-.1.5-.4 1.7-.1.6v1.2l.3.5.4.3.6.1.6-.2.6-.3.5-.3.4-.3.5-.4.8-.8.3-.4.4-.5.3-.4.4-.5.3-.4.4-.6.6-1 .4-.6.2-.3.4-.6.3-.6.5-1 .3-.6.2-.5.2-.6.3-.5.6-.4.8.2.5.6v.6l-.2.6-.3.5-.3.6-.3.5-.3.5-.3.5-.4.6-.2.4-.6 1.2-.1.4-.3.6-.6 1-.4.6-.3.3-.4.5-.4.6-.4.4-.7.8-.4.4-.9.8-.4.4-.5.4-.5.3-1 .5-.5.2-.6.2-.6.1-.5.1-.6.1h-.6l-.6-.1-.5-.1-.6-.2-.5-.2-.5-.3-.4-.3-.4-.4-.3-.6-.2-.5-.1-.6-.1-.5v-1.4l.1-.8.1-.6.2-.8.6-2.1.2-1.1.3-1.1.3-1 .3-.8.2-.6.3-.8.3-1 .2-1 .3-.8.3-1.2.1-.6.3-1.2.1-.6-.1-.6-.4-.6-.6-.6-.6-.2-.6-.1-.6.1-.4.2z"/><path d="M329.3 238.3l-.1.3-.3.6-.3.4-.3.5-.3.6-.3.5-.6 1-.3.4-.3.5-.3.5-.3.5-.4.4-.4.5-.4.4-.7.9-.4.4-.4.4-1.8 1.5-.5.3-.6.3-.7.3-.8.3-.6.2-.6.1h-.6l-.8-.1-.8-.2-.6-.2-.4-.3-.4-.4-.4-.6-.4-.7-.2-.6-.2-.8-.1-.8v-.6l.1-.8.1-.8-.2-.1-.3.4-.6 1-.6.9-.4.4-.3.4-.4.4-.3.4-.4.4-.4.4-.4.4-.4.3-.5.3-.7.4-1 .4-1 .3-.8.2-1.2.1-.6-.1-.8-.1-.8-.2-.6-.2-.5-.2-.4-.3-.9-.8-.3-.4-.3-.5-.4-.7-.4-1-.2-.8-.1-.6-.1-.8-.1-1v-.8l.1-.6.1-.8.1-.8.2-.6.2-.8.2-.8.2-.6.3-.5.2-.6 1.5-3.1.3-.5.3-.4.3-.5.6-.9.4-.4.8-1 .3-.3.4-.5.9-.8.6-.6.7-.5.9-.7.5-.3.4-.3.6-.3.8-.3.7-.4.6-.3.8-.3.8-.2.6-.2 1.6-.1.6-.1h.8l1.3.1 1.5.1 1.4.3.6.1.7.2 2.6 1.2.4.4.4.3.4.4.4.4.1.7-.3.9-.7.8-.7.4-.5.1-.5-.2-.5-.4-.6-.3-.5-.3-.4-.2-.5-.3-.6-.3-.5-.1-1.1-.3-.6-.2-.6-.1h-1.3l-.4.1-.6.1-.8.2-1.6.6-.6.3-.6.4-.4.3-.5.3-.4.3-.9 1.1-.5.4-.3.3-.4.5-.4.4-.3.4-.8.9-.3.4-.3.5-.8 1.5-.3.5-.4 1.2-.3.6-.3.5-.4 1.7-.2.6-.2 1.7v1.8l.1.6.2.6.3.5.3.5.4.4.6.3.8.1.8-.1.6-.2 1-.5.9-.8.4-.4.4-.4.4-.4.3-.4.4-.4.3-.4.7-1 .3-.4 1-1.5.4-.7.4-.8.3-.4.8-1.7.3-.6.1-.4.3-.6.2-.5.2-.6.3-.7.4-1.3.3-.7.2-.6.4-.6.6-.3.6-.1.6.1.6.1 1 .5.5.3.3.4.1.6-.2.5-.1.6-.2.6-.3 1.2-.2.6-.1.5-.4 1.2-.1.6-.1.4-.2.8-.1.6-.3 1.1-.2.8-.1.6-.1.7-.2 1-.2 1.1-.1 1 .1.8.3.5.6.3 1 .1.8-.3.6-.3.9-.6.4-.4.8-.8.8-.9.6-.9.3-.5.4-.5.1-.4 1-1.5.3-.5.3-.5 1.3-2.6.6-.3.8.1.5.6.1.6-.3.6-.7.4z"/><path d="M331.3 229.8l.4-.4.8-.9 1.3-1.2.4-.3.5-.4.4-.3.5-.3.6-.3 1-.5.6-.3 1.2-.4.5-.2 1.2-.3.6-.1.6-.1 1.2-.1h1.5l.8.1.7.1.4.1.4-.2.3-.4.1-.6.4-1.2.1-.5.2-.6.4-1.1.2-.6.1-.4.3-.6.1-.5.4-1.2.2-.5.6-1.9.3-.8.4-1.2.2-.5.3-.6.1-.4.5-1.2.2-.5.6-1.1.3-.5.6-.4.7-.3h.6l.6.1.6.1.4.1.6.2.4.3.2.5-.1.5-.1.6-.3.6-.3.5-.2.5-.2.6-.3.8-.3.8-.3.7-.8 2-.3.8-.3.8-.2.6-.2.5-.4 1.3-.3.8-.2.6-.7 2.1-.1.6-.2.5-.2.6-.2.5-.2.6-.2.5-.1.6-.1.5-.1.6-.2.6-.2.5-.2.6-.1.6-.1.5-.1.6-.2.6-.2.8-.3.8-.1.4-.2.7-.1.6-.1.8-.1.8-.4 1.7-.1.6-.1.6-.1.8-.1.8-.1.6-.1.6-.1.6v.6l.1.6.1.8.2.8.2.6.4.4.5.2.6.1.5-.1.6-.2.5-.3 1.2-1 .4-.4.6-.9.6-1 .9-1.3.3-.5.3-.5.3-.6.6-1.4.3-.6.3-.4.3-.6.3-.7.7-.5.8.1.4.6v.8l-.3.8-.3.6-.4.7-.4.8-.3.4-.8 1.5-.4.6-.8 1.3-.6 1-.3.4-.4.5-.3.4-.4.4-.4.4-.4.5-.3.3-.4.5-.4.4-.5.3-.4.3-.5.3-1.7.6-.6.1h-.5l-.6.1-.6-.1-.6-.1-.5-.3-.5-.3-.4-.3-.4-.4-.6-.9-.3-.5-.2-.6-.1-.5-.2-1.7v-1.2l-.1-.1-.3.4-.3.5-.6 1-.3.4-.4.4-.7.9-.4.4-1.3 1.2-.6.4-.6.5-.6.4-.5.3-.6.2-1.5.3-.6.1-.6.1-.5-.1-.6-.1-.6-.1-.5-.1-.6-.3-.4-.3-.5-.4-.6-.6-.6-.5-.3-.5-.3-.5-.2-.6-.4-1-.2-.6-.1-.6-.1-.8v-.8l-.1-.6v-.6l.1-.6.1-.8.1-.8.1-.6.2-.6.1-.4.2-.6.2-.6.6-1.5.2-.6.5-1 .4-.7.3-.7.4-.6.3-.3.4-.5.6-.9.2-.4zm13.1-2.2l-1.2.1h-.6l-.6.1-.6.1-.4.1-.6.3-.6.2-.6.3-.5.3-.4.3-.4.4-.4.4-.9.8-.4.4-.4.4-.8 1-.3.4-.3.6-.8 1.4-.3.5-.2.5-.2.6-.2.5-.3.6-.4 1.5-.2.6-.1.8-.1.8-.1.6.1.8.1 1 .1.8.2.6.3.4.4.4.4.4.6.3.8.1.8-.1.6-.3.4-.2.6-.3.4-.3.8-.8.4-.5.4-.4.4-.4.3-.4.3-.5.4-.6.4-.8.4-.6.3-.5.3-.6.2-.5.3-.6.3-.8.3-.7.3-.6.2-.5.9-2.7.3-.8.5-2 .2-.8.2-.6.1-.7-.2-.6-.4-.3h-.5z"/><path d="M372.3 236.6v.7l-.2.6-.5 1-.6 1-.3.6-.3.5-.4.6-.2.4-.3.6-.3.5-.3.4-.4.5-.3.4-.6 1-1.2 1.3-.8.8-.4.4-.4.4-.4.4-1.4 1.1-.4.3-.6.3-.6.2-.5.1-1.2.3h-1.1l-.7-.1-.5-.2-.6-.2-.5-.3-.4-.4-.3-.4-.3-.5-.3-.6-.1-.5-.1-.6-.1-.6v-.6l.1-1.2.1-.6.2-.6.3-1.2.2-.5.1-.6.2-.6.2-.5.6-1.7.1-.5.1-.6.2-.6.1-.6.1-.5.4-1.2.2-.8.2-.8.4-1.2.1-.6.1-.4.1-.6.3-.6.2-.5.4-1.7.2-.6.2-.8.3-.8.2-.6.3-.5.4-.3.6-.3.5-.1.6.1 1.2.1 1 .4.3.4v.6l-.1.6-.2.8-.2.8-.4 1.2-.1.5-.1.6-.2.6-.2.8-.6 1.9-.1.6-.3.8-.4 1.3-.1.6-.5 1-.1.6-.4 1.1-.1.6-.4 1.6-.4 1.2-.1.6-.2.8-.2 1-.1 1.1.1 1 .5.7.7.2.6-.1.6-.3.4-.3.5-.4 2.1-2.1.4-.4.3-.4.4-.5.6-1 .4-.4.3-.4.3-.5.4-.6.3-.6.5-1.1.8-1.5.3-.5.6-.3.8.1.4.4zM362 216.9l.3-.5.5-.4.5-.3.6-.2.6-.1h.6l.6.1.5.3.4.4.4.4.3.5.2.6.1.6v.6l-.2.6-.3.5-.4.5-.4.4-.5.4-.6.3-.6.1-.6-.1-.6-.1-1-.6-.4-.4-.3-.5-.1-.6-.1-.6.1-.6.1-.6.3-.7z"/><path d="M401.5 238.3l-.1.3-.3.6-.3.4-.3.5-.3.6-.3.5-.6 1-.3.4-.3.5-.3.5-.3.5-.4.4-.4.5-.4.4-.7.9-.4.4-.4.4-1.8 1.5-.5.3-.6.3-.7.3-.8.3-.6.2-.6.1h-.6l-.8-.1-.8-.2-.6-.2-.4-.3-.4-.4-.4-.6-.4-.7-.2-.6-.2-.8-.1-.8v-.6l.1-.8.1-.8-.2-.1-.3.4-.6 1-.6.9-.4.4-.3.4-.4.4-.3.4-.4.4-.4.4-.4.4-.4.3-.5.3-.9 1.2-1 .4-1 .3-.8.2-1.2.1-.6-.1-.8-.1-.8-.2-.6-.2-.5-.2-.4-.3-.9-.8-.3-.4-.3-.5-.4-.7-.4-1-.2-.8-.1-.6-.1-.8-.1-1v-.8l.1-.6.1-.8.1-.8.2-.6.2-.8.2-.8.2-.6.3-.5.2-.6 1.5-3.1.3-.5.3-.4.3-.5.6-.9.4-.4.8-1 .3-.3.4-.5.9-.8.6-.6.7-.5.9-.7.5-.3.4-.3.6-.3.8-.3.7-.4.6-.3.8-.3.8-.2.6-.2 1.6-.1.6-.1h.8l1.3.1 1.5.1 1.4.3.6.1.7.2 2.6 1.2.4.4.4.3.4.4.4.4.1.7-.3.9-.7.8-.7.4-.5.1-.5-.2-.5-.4-.6-.3-.5-.3-.4-.2-.5-.3-.6-.3-.5-.1-1.1-.3-.6-.2-.6-.1h-1.3l-.4.1-.6.1-.8.2-1.6.6-.6.3-.6.4-.4.3-.5.3-.4.3-.4.4-.5.4-.3.3-.4.5-.4.4-.3.4-.8.9-.3.4-.3.5-.8 1.5-.3.5-.4 1.2-.3.6-.3.5-.4 1.7-.2.6-.2 1.7v1.8l.1.6.2.6.3.5.3.5.4.4.6.3.8.1.8-.1.6-.2 1-.5.9-.8.4-.4.4-.4.4-.4.3-.4.4-.4.3-.4.7-1 .3-.4 1-1.5.4-.7.4-.8.3-.4.8-1.7.3-.6.1-.4.3-.6.2-.5.2-.6.3-.7.4-1.3.3-.7.2-.6.4-.6.6-.3.6-.1.6.1.6.1 1 .5.5.3.3.4.1.6-.2.5-.1.6-.2.6-.3 1.2-.2.6-.1.5-.4 1.2-.1.6-.1.4-.2.8-.1.6-.3 1.1-.2.8-.1.6-.1.7-.2 1-.2 1.1-.1 1 .1.8.3.5.6.3 1 .1.8-.3.6-.3.9-.6.4-.4.8-.8.8-.9.6-.9.3-.5.4-.5.1-.4 1-1.5.3-.5.3-.5 1.3-2.6.6-.3.8.1.5.6.1.6-.3.6-1 .3z"/><path d="M414.3 227.8l-.5.3-.4.3-.4.3-.5.4-.4.4-1 .7-.4.3-.4.4-.4.4-.8.9-.4.4-.8.9-.6 1-.4.5-.8 1.5-.7 2.1-.2.8-.3 1-.3.8-.6 1.8-.3.8-.3 1-.2.8-.2.6-.2.8-.1.7-.2.6-.1.6-.1.5-.2.5-.4.3-.6.2-.6.1-.8.1-1-.1-.8-.1-.5-.3-.4-.6-.1-.7.1-.6.2-.8.2-.8.1-.6.2-.6.1-.6.2-.5.2-.6.1-.6.1-.5.1-.6.2-.6.2-.5.3-1.2.1-.5.1-.6.2-.6.1-.6.2-.6.2-.8.3-.8.3-1.2.1-.5.1-.6.2-.6.1-.6.2-.5.1-.6.2-.6.2-.8.2-.8.1-.6.4-1.2.1-.5.2-.6.3-1.2.4-.6.8-.4 1-.1 1 .1 1 .3.6.6.1.8-.1.6-.1.4-.2.6-.1.6-.2.5-.1.6-.2.6-.1.6-.1.4.1.1.3-.3.4-.4.3-.4.8-.9.4-.4.8-.7.4-.4.8-.8 1.3-1 .5-.3.5-.3.5-.3.5-.2.6-.2.8-.2.8-.1h1.5l1 .1.7.1.6.3.6.3.4.4.3.4.3.5.3.5.2.6.2.8.1.8v1.2l-.1.6v.6l-.1.5-.1.6-.1.6-.1.4-.2.6-.2.8-.3 1-.3.8-.2.6-.2.8-.3 1.1-.3 1-.3.9-.1.6-.1.4-.1.6-.2.6-.1.5-.4 1.7-.1.6v1.2l.3.5.4.3.6.1.6-.2.6-.3.5-.3.4-.3.5-.4.8-.8.3-.4.4-.5.3-.4.4-.5.3-.4.4-.6.6-1 .4-.6.2-.3.4-.6.3-.6.5-1 .3-.6.2-.5.2-.6.3-.5.6-.4.8.2.5.6v.6l-.2.6-.3.5-.3.6-.3.5-.3.5-.3.5-.4.6-.2.4-.6 1.2-.1.4-.3.6-.6 1-.4.6-.3.3-.4.5-.4.6-.4.4-.7.8-.4.4-.9.8-.4.4-.5.4-.5.3-1 .5-.5.2-.6.2-.6.1-.5.1-.6.1h-.6l-.6-.1-.5-.1-.6-.2-.5-.2-.5-.3-.4-.3-.4-.4-.3-.6-.2-.5-.1-.6-.1-.5v-1.4l.1-.8.1-.6.2-.8.6-2.1.2-1.1.3-1.1.3-1 .3-.8.2-.6.3-.8.3-1 .2-1 .3-.8.3-1.2.1-.6.3-1.2.1-.6-.1-.6-.4-.6-.6-.6-.6-.2-.6-.1-.6.1-.3.3zm34.4-1l-.4-.5-.4-.7-.3-.7-.3-.6-.2-.5-.1-.6-.1-.8-.1-1.1v-1l.1-.8.1-.6.3-1.2.1-.5.2-.6.2-.5.3-.5.6-1 .5-.7.5-.6 1.2-1.3.4-.4 1.8-1.5.4-.3.5-.3.6-.3.7-.3.7-.4.6-.3.5-.2.6-.2 2.2-.8.6-.1 1.2-.2 1.1-.3 1.2-.1.7-.1h.4l1.9-.1h.6l.4.1h.7l.6-.1 1.7.2.6.1.7.1.8.2.8.3.4.1 1.2.4.5.2 1.5.8.5.3 1 .6.7.5.6.5 1.2 1.3.4.5.3.5.6 1.5.3.6.1.4.2.6.1.6.1.6v1.2l-.1.6-.1.6-.1.8-.2.8-.2.6-.1.5-.2.6-.2.5-.3.5-.3.5-.3.5-.3.4-.4.4-.4.4-.4.4-.4.4-.4.4-.5.3-.4.4-.7.4-.7.4-.6.3-.8.3-.8.3-.6.3-.8.2-.8.2-.6.1-.6.2-.3.2.3.4.8.9.3.5.5 1.2.3.6.2.4.2.6.3.6.1.6.3 1.2.2.6.1.6.1.8.1.8.1.6.1.6.1.5.1.6.2.6.1.6.1.5.1.6.2.6.2.5.2.6.3.5.3.4.3.5.8 1.5.8.9 1.3 1 .5.3.5.3.6.2.6.1.4.1.6.1.3.4.1.6v.5l-.1.6-.3.5-.4.4-.5.4-.8.3-.8.1-.6-.1-.6-.1-.5-.1-.6-.1-.6-.3-.6-.3-.5-.3-.4-.3-.5-.4-.3-.3-.5-.4-.4-.4-.4-.6-.2-.3-.4-.6-.4-.5-.3-.4-.3-.5-.3-.6-.2-.5-.5-1-.2-.6-.1-.6-.2-.5-.1-.6-.2-.6-.1-.6-.3-1.2-.1-.5-.1-.6-.2-.6-.1-.6-.1-.5-.4-1.7-.1-.6-.5-2.3-.2-.6-.3-.5-.3-.6-.4-.6-.2-.3-.4-.6-.4-.4-.9-.8-.5-.3-.6-.3-.6-.1-.6-.1-.5.1-.4.3-.3.5-.4 1.4-.1.6-.1.7-.1.5-.4 1.2-.1.5-.2.6-.2.8-.2.8-.2.6-.5 1.5-.1.6-.4 1.2-.2.5-.2.6-.2.5-.2.6-.3.8-.4 1-.3.8-.4 1.2-.3.5-.6.4-.9.4h-1l-1-.3-.8-.6-.4-.8.1-.7.3-.6.3-.5.4-1.1.2-.6.5-1 .2-.6.2-.5.4-1.2.1-.6.4-1.1.1-.6.2-.6.1-.6.1-.4.1-.6.2-.7.1-.3.2-.7.1-.6.1-.4.1-.6.2-.8.4-1.3.2-.8.2-.6.3-1.2.2-.6.1-.6.2-.6.1-.5.1-.6.2-.6.3-1.2.2-.6.1-.6.6-1.9.2-.7.3-.6.4-.7.3-.7.3-.6.3-.8.4-.8.4-.7.4-.5 1.3-1.3.8-.6.7-.4.6-.3.6-.1h.6l.6.1.5.2.5.4.3.4.1.5-.3.5-1 .6-.4.4-.4.4-.4.5-.3.5-.3.5-.3.4-.3.5-.3.6-.2.5-.4 1.2-.3.6-.2.6-.1.5-.4 1.2-.1.6-.2.6-.1.6-.2.6-.1.6v.5l.2.3.5.1h.6l.6-.1.7-.1 1.7-.1.9-.1.7-.1.6-.1.5-.1 1-.3.6-.2.6-.3.5-.3 1-.6.4-.3.9-.8.4-.4.4-.4.3-.5.3-.5.5-1 .4-1.2.1-.6.1-.8.1-.8-.1-.6-.1-.6-.1-.5-.1-.6-.2-.6-.2-.5-.6-1-.6-.9-.4-.4-.4-.3-.5-.3-.4-.3-.5-.3-.8-.4-.8-.3-.6-.3-.6-.1-.5-.1-.6-.1-.6-.1-.7-.1h-.4l-1.3-.1-.6-.1-2.9.3-.6.1-.7.1-.4.1-.6.3-.6.2-1.7.6-.6.3-.5.3-.4.3-.5.3-.6.4-.4.4-.4.3-.4.4-.5.4-.4.4-.3.4-.6 1-.3.4-.3.6-.2.5-.2.6-.3 1.2v.5l-.1.6v1.2l.1.6.1.5.3.6.2.5.3.6.3.5.3.4.3.5v.5l-.2.5-.4.4-.4.4-.6.3-.5.1-.6-.1-.6-.4-.8-.6-.8-.1z"/><path d="M503.4 235.1l-.3.4-.8.9-.9.8-.4.3-.6.3-.4.1-.6.4-.4.2-.6.3-.6.2-.6.2-.6.1-.6.1-.7.1-.8.1-.6.1h-.6l-1.2-.1-1.2-.1-.6-.1-1.7-.4h-.4l-.3.3-.1.4v.6l-.1.6v1.1l.1.6.1.5.4 1.2.6 1 .4.4.4.4 1 .6.6.2.6.2.4.1.6.1.6.1h.6l.6-.1 1.7-.3.6-.1.6-.2.5-.2 1.1-.4 1-.5.9-.7.4-.3.4-.4.9-.8.8-.9.3-.4.4-.5.6-.9.3-.5.3-.5.3-.5.3-.5.3-.4.3-.5.3-.6.3-.5.3-.5.4-.3h.6l.6.4.3.6-.1.6-.3.6-.3.7-.4.7-.3.7-.4.7-.4.6-.6 1-.2.4-.4.6-.6.9-.4.4-.4.4-.4.4-.4.5-.2.3-.4.5-.4.4-.9.8-.6.5-.6.5-1 .6-1.6.7-.5.2-.6.2-.8.1-.8.2-1.3.1-.8.1-.7.1h-.7l-2.3-.3-.5-.1-.6-.2-.6-.3-.5-.3-1-.6-.5-.3-.4-.4-.4-.4-.3-.3-.4-.5-.4-.4-.3-.5-.3-.4-.3-.6-.2-.5-.2-.6-.1-.6-.1-.5-.1-.6-.2-1.7v-1.2l.1-.6v-.6l.4-1.7.2-.5.1-.6.2-.6.1-.6.2-.6.3-.7.3-.8.3-.6.4-.7.4-.6.3-.6.3-.4.4-.4 1-1 1-1 .5-.4.6-.4.6-.4.6-.4.6-.4.6-.3.6-.3.8-.4 1.3-.4 1.2-.3.8-.1h1.4l.8.1 1 .2.8.2.6.2.6.3.5.3.4.3.9.8.4.4.4.6.3.8.2.6.1.6.1.6v.8l-.1.8-.1.6-.2.8-.3.8-.3.6-.2.3-.3.6-.1.1zm-7.9-7.7l-.9.4-.8.4-.5.3-.9.8-.6.6-.5.6-.4.5-.4.7-.4.6-.3.6-.4.7-.3.8-.3.6-.2.5-.1.4.3.3.8.2 1.3.1.6.1h1.8l.6-.1.6-.1.6-.3.4-.1.6-.3.4-.3.4-.4.4-.4.4-.4.4-.5.3-.4.3-.5.3-.6.4-1.2.1-.6.1-.6-.1-.6-.3-.6-.4-.4-.5-.4-.6-.3-.6-.1-.6-.1-.6.1h-.4z"/><path d="M515.1 250.9l-.5-.1-.6-.1-.6-.2-.8-.3-.7-.4-.6-.3-.6-.5-.6-.6-.4-.4-.4-.4-.4-.4-.3-.5-.3-.6-.3-.8-.3-.7-.2-.6-.2-.8-.1-.8-.1-.6-.1-.6V240l.1-.5.1-.6.1-.6.1-.8.2-.8.2-.6.1-.6.4-1.3.3-.7.3-.6 1-2 .3-.5.6-.9.9-1 .2-.3.4-.5.4-.4.4-.4.4-.4.4-.3.5-.4.4-.3.5-.3.5-.3.4-.3.5-.3.7-.3 1.3-.4.7-.2.6-.1.6-.1.6-.1h1.1l.6.1.8.1 1 .3.8.3.6.2.4.3.4.3.4.4.4.4.4.4.3.6.3.7.2.8.1.6-.1.8-.2.8-.2.6-.3.5-.3.5-.4.6-.4.6-.4.4-.4.4-.5.3-.8.1h-1l-1-.3-.6-.4v-.5l.3-.6.4-.7.4-.6.3-.6.1-.5.1-.6v-.4l-.1-.6-.4-.6-.6-.4-.6-.2-.6-.1-.6.1-.8.1-.8.3-.6.3-.4.3-.5.4-.4.3-.5.4-.5.6-.4.4-.4.6-.6.7-.4.7-.3.6-.3.5-.3.4-.3.5-.2.6-.2.5-.2.6-.2.8-.2.8-.1.6-.1.8-.1.8-.1.6v.8l.1 1 .2.9.2.6.6 1.3.4.5.4.4.4.4.7.3.8.3.6.1.8.1h1.4l1.5-.1.6-.1.7-.2.6-.3.7-.4.7-.3 1.5-1 .6-.5.6-.5.9-.8.8-.9.4-.4.8-.9.6-.9.4-.6.2-.4.4-.7.4-.6.3-.6.4-.8.6-.4.8.1.5.6v.7l-.2.5-.3.5-.3.6-.3.6-.4.7-.5.7-.5.8-1 1.4-.4.5.1.6-.4.4-1.2 1.3-.3.4-.4.4-.4.4-.9.6-.4.5-.4.3-.6.4-.5.3-.5.3-.5.3-.8.3-.8.3-.7.2-.8.1-.8.2-1.2.2-1.7.2-1.2-.1-.4-.1z"/><path d="M547.2 236.6v.7l-.2.6-.5 1-.6 1-.3.6-.3.5-.4.6-.2.4-.3.6-.3.5-.3.4-.4.5-.3.4-.6 1-1.2 1.3-.8.8-.4.4-.4.4-.4.4-1.4 1.1-.4.3-.6.3-.6.2-.5.1-1.2.3h-1.1l-.7-.1-.5-.2-.6-.2-.5-.3-.4-.4-.3-.4-.3-.5-.3-.6-.1-.5-.1-.6-.1-.6v-.6l.1-1.2.1-.6.2-.6.3-1.2.2-.5.1-.6.2-.6.2-.5.6-1.7.1-.5.1-.6.2-.6.1-.6.1-.5.4-1.2.2-.8.2-.8.4-1.2.1-.6.1-.4.1-.6.3-.6.2-.5.4-1.7.2-.6.2-.8.3-.8.2-.6.3-.5.4-.3.6-.3.5-.1.6.1 1.2.1 1 .4.3.4v.6l-.1.6-.2.8-.2.8-.4 1.2-.1.5-.1.6-.2.6-.2.8-.6 1.9-.1.6-.3.8-.4 1.3-.1.6-.4 1-.1.6-.4 1.1-.1.6-.4 1.6-.4 1.2-.1.6-.2.8-.2 1-.1 1.1.1 1 .5.7.7.2.6-.1.6-.3.4-.3.5-.4 2.1-2.1.4-.4.3-.4.4-.5.6-1 .4-.4.3-.4.3-.5.4-.6.3-.6.5-1.1.8-1.5.3-.5.6-.3.8.1.3.4zm-10.3-19.7l.3-.5.5-.4.5-.3.6-.2.6-.1h.6l.6.1.5.3.4.4.4.4.3.5.2.6.1.6v.6l-.2.6-.3.5-.4.5-.4.4-.5.4-.6.3-.6.1-.6-.1-.6-.1-1-.6-.4-.4-.3-.5-.1-.6-.1-.6.1-.6.1-.6.3-.7z"/><path d="M577.3 236.5v.8l-.2.6-.2.4-.3.5-.4.6-.2.3-.4.5-.3.6-.3.5-.6.9-.4.4-.4.4-1 1-.5.4-.6.4-.6.4-.4.3-.5.3-.6.2-.7.3-.8.2-.6.2-.6.1h-.7l-.6-.1-.6-.1-.6-.2h-.5l-.5.1-.4.3-.4.4-.4.4-.4.4-.4.3-.5.4-.6.4-.3.2-.6.3-.5.3-.6.3-.6.2-.4.1-.6.2-1.2.3h-2.2l-.7-.1-.6-.1-.6-.1-.5-.2-.6-.3-.5-.3-.6-.3-.4-.3-.4-.4-.4-.4-.4-.2-.3.1-.2.4-.2.5-.3 1.2-.1.5-.1.6-.2.6-.4 1.5-.1.6-.1.6-.1.6-.2.6-.5 2.3-.1.6-.1.8-.1.8-.2.6-.1.8-.1.8-.1.6-.1.6-.2.5-.1.6-.1.6-.1.8-.1.8-.1.6-.2.5-.4.3-.4.2-.6.1-.7.1h-.7l-.4-.1-.7-.1-.6-.3-.3-.4-.1-.5.1-.6.1-.6.1-.5.5-2.3.1-.6.1-.6.2-.8.1-.8.1-.6.1-.8.1-.8.6-2.9.1-.6.1-.5.1-.6.2-.6.4-1.5.1-.6.1-.8.2-.8.2-.6.1-.6.1-.5.4-1.7.2-.5.2-.6.3-1.1.2-.6.1-.8.2-.8.1-.6.4-1.2.4-1.5.2-.6.3-1.2.2-.8.2-.8.1-.6.2-.6.2-.5.2-.6.1-.5.2-.6.1-.6.2-.5.2-.6.1-.6.1-.5.3-1 .2-.6.2-.6.2-.5.1-.6.5-1.5.4-.4.8-.3 1-.1 1 .1 1 .4.6.7v1l-.2.8-.1.4.1.1.3-.3.6-.5.6-.4.5-.4.6-.4.7-.4.6-.3.8-.3.9-.3.8-.3.6-.1.8-.1h.8l.6.1.6.1.5.2.5.1.5.2.6.3.5.3.4.3.4.4.8.8.4.6.3.5.2.5.2.6.1.6.1.5.3 1.2v1.7l.1.6-.1.6v.6l-.1.6-.1.6-.1.6-.1.5-.1.6-.3 1.1-.2.6-.1.6-.1.5-.2.6-.3.6-.7 1.5-.7 1.4.1.3.4.1.6-.1.6-.1h.4l.6-.1.6-.3.5-.3 1.1-.6.9-.8.4-.4.4-.4.3-.4.4-.5.3-.5.6-1 .4-.6.3-.5.3-.6.5-1 .6-.3.8.1.7.7zm-15.4 2.6l.2-.5.4-1.2.1-.5.1-.6.2-.6.1-.5.1-.6.3-2.3-.1-.6v-.6l-.1-.6-.1-.5-.1-.6-.3-.6-.5-.6-.6-.5-.6-.3-.6-.1-.5-.1h-.6l-.6.1-.4.1-.6.1-1.3.5-.4.1-1.2.6-.6.3-.4.4-.5.3-.4.4-.9.9-.4.5-.3.7-.3 1-.3.8-.4 1.3-.2.8-.1.6-.2.8-.3 1-.2.8-.2.6-.1 1.1-.3 1-.3 1-.2.8-.1.6.1.5.3.4.4.4.4.4.4.3.6.3.8.3.8.2 1.2.1.6-.1.6-.1.6-.1.5-.1.6-.1.5-.3 1-.6.5-.3.4-.4.3-.4-.1-.6-.3-.6-.2-.6-.1-.5.1-.6.3-.4.4-.4.8-.3.9-.2.6-.3.4-.6.4-.6z"/><path d="M595.7 235.1l-.3.4-.8.9-.9.8-.4.3-.6.3-.4.1-.6.4-.4.2-.6.3-.6.2-.6.2-.6.1-.6.1-.7.1-.8.1-.6.1h-.6l-1.2-.1-1.2-.1-.6-.1-1.6-.4h-.4l-.3.3-.1.4v.6l-.1.6v1.1l.1.6.1.5.4 1.2.6 1 .4.4.4.4 1 .6.6.2.6.2.4.1.6.1.6.1h.6l.6-.1 1.7-.3.6-.1.6-.2.5-.2 1.1-.4 1-.5.9-.7.4-.3.4-.4.9-.8.8-.9.3-.4.4-.5.6-.9.3-.5.3-.5.3-.5.3-.5.3-.4.3-.5.3-.6.3-.5.3-.5.4-.3h.6l.6.4.3.6-.1.6-.3.6-.3.7-.4.7-.3.7-.4.7-.4.6-.6 1-.2.4-.4.6-.6.9-.4.4-.4.4-.4.4-.4.5-.2.3-.4.5-.4.4-.9.8-.6.5-.6.5-1 .6-1.6.7-.5.2-.6.2-.8.1-.8.2-1.3.1-.8.1-.7.1h-.6l-2.3-.3-.5-.1-.6-.2-.6-.3-.5-.3-1-.6-.5-.3-.4-.4-.4-.4-.3-.3-.4-.5-.4-.4-.3-.5-.3-.4-.3-.6-.2-.5-.2-.6-.3-.7-.1-.5-.1-.6-.2-1.7V240l.1-.6v-.6l.4-1.7.2-.5.1-.6.2-.6.1-.6.2-.6.3-.7.3-.8.3-.6.4-.7.4-.6.3-.6.3-.4.4-.4 1-1 1-1 .5-.4.6-.4.6-.4.6-.4.6-.4.6-.3.6-.3.8-.4 1.3-.4 1.2-.3.8-.1h1.4l.8.1 1 .2.8.2.6.2.6.3.5.3.4.3.9.8.4.4.4.6.3.8.2.6.1.6.1.6v.8l-.1.8-.1.6-.2.8-.3.8-.3.6-.2.3-.3.6-.1.2zm-7.8-7.7l-.9.4-.8.4-.5.3-.9.8-.6.6-.5.6-.4.5-.4.7-.4.6-.3.6-.4.7-.3.8-.3.6-.2.5-.1.4.3.3.8.2 1.3.1.6.1h1.8l.6-.1.6-.1.6-.3.4-.1.6-.3.4-.3.4-.4.4-.4.4-.4.4-.5.3-.4.3-.5.3-.6.4-1.2.1-.6.1-.6-.1-.6-.3-.6-.4-.4-.5-.4-.6-.3-.6-.1-.6-.1-.6.1h-.4z"/><path class="st1" d="M153.7 33.6c1.2-.1 1.7-.9 2.6-1.2-.8-3.5 2-3.7 3.5-5.1l-7.3-3.7 1.1 10.8c.1-.1.2-.3.1-.8zm43.6 26.3v.6c.1-.3.1-.5 0-.6zm-35.9-31.8l-.8-.4v.6c.5.2.7 0 .8-.2z"/><path class="st1" d="M250.9 44.6l-15.9.8-3.1-9.5-1.4.8c.1.4-.1.9 0 1.2-.3-.2-.5-.3-1-.3 0-.2 0-.3.1-.4l-15.9 9 12-28.7-9.8 3.1L209 0l-14.7 16-1.7-1.5c-.1.1-.1.2-.2.3-.4-.3-.5-.5-.4-.7l-5.4-4.8-.7 31.1-12.4-16.9-6.8 7.4-4.7-2.4c-.1.1-.1.3 0 .6-1.1-.2-1.4.6-2 0-1.4 1.9-2.6 3.6-3.6 6.5-.7-.2-.9-.8-1-1.5-.9-.2-.7.6-1.3.6.2.3.6.5 1 .6-.3.8-.7-.1-1.4-.1l.7 6.6-7.8 3 3.2 3.8c.6-.3 1.8-.2 2-.1-.3.3-.9.5-1.5.6l2.1 2.5c.9 0 1.7.1 2.4.3 0 .7-.4 1.2-.8 1.5l.6.7c.8.1 1 .3 1.8 0-.3.2-.6.7-.9 1.1l12.3 14.3-1.1 5.2-2.6 5.6 27.3 2.2 25.8 9.2v-6.2l1.1-5.2 29.4-13.9-5.9-5.9 9.1-15.9zm-96.5 1.1c-.1-.7.6-.7.3-1.5.5 0 .9 0 1-.3.5.1.1.9.7.9-1.1-.1-.6.7-2 .9zm.3-2.2c-.6-.9.9-2.6 1-4 .4.3 1.2.3 1.7.6-1.6.5-2.1 2.1-2.7 3.4zm57.8 14.2h1v1.5c-.3-.5-1.2-.5-1-1.5zm0 12c-.7.7.6 1.5.3 2.8-.7.2-.9.8-2 .6-.2-1.5.2-2.5.7-3.4h1zM209.9 58c1.3-.5.1 1.4 1.3.9-.3.4-.5 1-1.3.9.6-.5-.3-.7 0-1.8zm2.6 15.7c.8.7-1.9.9-.7 2.2-1-.9-1.3.6-2 .9-.9 0 .8-.8-.7-.6.3-1.7 2.3-1.6 3.4-2.5zM202 59.2c-.4-1.8-.9-3-.3-4.6.4.5.7 2.6 1.3 1.8.2.7-.7 2.2.3 3.4-.3 0-.3.4-.3.6-1 .8-1-1.2-2.6-.6.3-.7.6-.9 1.6-.6zm-3.7-14.1c0 .9-.8.9-1.6.9.3-.6.6-1.1 1.6-.9zm-6.9-8.7c.5.4.1.6 0 1.5-.9-.8-.3.5-1.3.3.3-.6 1.1-1 1.3-1.8zm-1.3 23.1c-.5-.1-.3-1-1.3-.6v-1.5c1.1 0 1.9 1.4 1.3 2.1zm-24.5-13.8c.7.8.7.7 1 2.2 1.1-.1.3-2 2-1.5-.2-.7-1.2-.7-2-.9.5-.6.5-1.8 1.6-1.8.1.8-.5 1-.7 1.5.4.7 1.6.7 2 0 1 .5-.2 1.4-1 1.2v1.9c-.6.3-1.6.1-2 .6-.4-.1-.3-.8-.3-1.2-.8.3.2 2.2-1.3 1.8.2-1.5.9-3 .7-3.8zm5 5.2c-1 .1-1.5-.3-1.3-1.2 1-.2 1.1.5 1.3 1.2zm-10.3 4.3c.4-.6 1.1-1 2-1.2-.4.7-1.1 1.5.7 1.2-.1.4.1.6.3.6-.5 1.3-2.5 0-3-.6zm3.6 6.5c-.6 0-1.1-.2-1.3-.6.3-1 1.4-1.1 2.3-1.5.4 1.3-1.4.6-1 2.1zm.7-4.3c.1-.6 1.5 0 1-1.2-1.1-.4-.3 1-1.3.6-.5-1.1-.6-2.6-.3-3.1 1.2-.3.6 1 0 .9.6.4 1.7.4 2 1.2.5-.3.8-.9 1.3-1.2-1-1.5-1.4-1.5-.7-3.4-.6.1-.3 1.2-1.3.9-.7-.6-1.2-.9-.7-1.8 1 .8 1.7-.4 2.6-.6-.1.6.2.8.3 1.2.4 0 .3-.6.3-.9.4.1.2 2.9.3 4.9.5 0 1.3.2 1.3-.3.4.1.3.8.3 1.2-1.6-.4-1.9.5-2 1.5-1.4.2-1.8-.9-1.3.6-.9.3-1.1-.3-1.8-.5zm2.7 9.9c.3-.7.7-1.2 1.7-1.2-.1 1.4-.2 2.7 1.3 1.9.1 1.3-1.9.7-1.3 2.5-.9 0-1-.8-1-1.5 1.4.5-.2-1.5-.7-1.7zm2.6 9.8c-1 .1-1.1-.7-1-1.5 1 0 1.7.9 1 1.5zm-2-4.3c.1-.4.6-.3 1-.3.4-.2.6-.7.7-1.2.3.2.6.4.7 0 .9-.2-.2 1.5.7 1.2-1 .6-2.2 1.4-3.1.3zm3-23.4c-.5-.3-.7-.8-.7-1.5.9 0 .8.9 1.7.9-.1.4-1 .1-1 .6zm2.6 23.7c1.2.7 3.3-.6 4.6.3-.5 1.1-2.2-.2-2 .9-1.1-.5-2.1-.2-3.3 0-.3-.9 1.1-.2.7-1.2zm6 5.9c-1.4-.2-1.9.5-3 .6-.4-1.9-1.3-.4-2.3-.9 1-.8 3.2-.5 3.6-1.9-.2-.3-.8-.3-.7-.9-.8-.1-1 .5-1.3.9-1.4-1.1.9-1.4 1-2.2.3 0 .3.4.3.6 1-.2-.3-.7 0-1.2 1.7 1.3 1.8.2 2.6 2.2-.6 0-.7.4-1.3.3.3 1.4 1.5.2 1.1 2.5zm.6-25.9c-.4.3-.9.4-1.7.3 0-.8 1-.7 1-1.5.7 0 .8.5.7 1.2zm5.3 17.9c.1-.4-.1-.6-.3-.6.2-1 .9-.4 1.7-.3.1.7-.7.7-1.4.9zm-.6-15.2c-.1-.7.6-.7.3-1.5 1.7.3 3-2.3 3 .6-1.3.2-1.9.9-3.3.9zm1.6-39.7c-.1-1.1 1.8-.4 2.3-.9-.2.2-.3.5-.3.9h-2zm2.3 48.1c.9-1.1.7-.5.3-2.2 2.3.7.9.6 3.3 0-.2 1.5-.4 2 .3 3.1-.9-.8-3-.8-3.9-.9zm4.3-2.8h-1v-1.2h1c-.5.6.1.4 0 1.2zm1.7-32.4c-.6.3-1.1-.9-1.3 0-.7.1-.2-1.1-.3-1.5 1.5.6 1.8.6 2.6-.6.8.5-1.1 1.2-1 2.1zm1.3 30.9c.7-.3 1.4-.5 1.6-1.2.6.3.5 1.1 1.3 1.2-.3.4-1 .4-1.6.6 0 .8-.1 2 1 1.9-.6.6-1.2.5-2 .3.9-.9-.5-1.6-.3-2.8zm2 12c.1-.6 1.5-.1 1.3-.9.4 0 .3.6.3.9-1.4-.2-.8 1.1-1.6 0zm3-4.9c-1 .4-.8-.5-1.3-.6-.5.7-.7 1.6-2 1.5v-1.2c.1-.7-1.5.2-1-.9 1.1-.2 1.4.6 2 0-.5-1-.1-1.4 0-2.5.9.7 1.5 3.3 3.3 2.2.9.4-1 .9-1 1.5zm1.6-5c-.7-.7.4-1.2.7-1.9.7.4.2 2.1-.7 1.9zm-.3-7.7c-1.4-.7 1.2-2.7 2-3.4.4 1-2.6 2.3-2 3.4zm5.6 4.3c0-.8.5-1 .7-1.6.7.2 1.3.5 1 1.6-.6.1-.6-.2-.7-.6-.3.2-.3.7-1 .6zm6.3 21.3c-1.2 1.9-4.5 0-5.3 2.5-1.8-.6 1.9-2.1 1-2.8.2-.8 2.3.3 1.7-1.2 1.1-.3.5 1 1.3.9.7.1 1.8-1.9.3-1.9-.1-.3.1-.3.3-.3v-.6c.8.6.7 2.1.7 3.4zm.3-3.7c-1.2-.7 1-.7.7-1.5 1.8.3-.4 1.2-.7 1.5zm-.3-18.8c-.1-1.1 1.8-.4 2.3-.9 0 .9-1.3.8-2.3.9zm7.6 12.6c.4 1.2-1.1.6-.7 1.9-1.2-.3-.5-2 .7-1.9zm-1.3 3.1c.3-1 .6-.1 1.7-.3-.5 1-1 1-1.7.3zm4.9-30.8c.7-.3 1.2-.8 1.3-1.5 1.9.4 1.6-1.2 3-1.2.3.3.4.7.3 1.2-1.3-.4.1.3.7.3v1.2c-.8-.3-1.3-.9-2-1.2-.4.1-.3.8-.3 1.2-1.1-1.1-2.4.6-3 0zm5.3 16.9c-1.7 0-1.5-1.7-3.3-1.5 0-.6 1.1-.2 1-.9.8.4 1.2 1.1 2.6.9.3.9-.4.8-.3 1.5z"/></svg>