<svg xmlns="http://www.w3.org/2000/svg" width="207" height="19.94" viewBox="0 0 207 19.94"><defs><style>.cls-1{fill-rule:evenodd}</style></defs><path id="Forma_1" data-name="Forma 1" class="cls-1" d="M860 1195a2 2 0 1 1-2 2 2 2 0 0 1 2-2zm8 0a2 2 0 1 1-2 2 2 2 0 0 1 2-2zm8 0a2 2 0 1 1-2 2 2 2 0 0 1 2-2zm8 0a2 2 0 1 1-2 2 2 2 0 0 1 2-2zm8 0a2 2 0 1 1-2 2 2 2 0 0 1 2-2zm8 0a2 2 0 1 1-2 2 2 2 0 0 1 2-2zm8 0a2 2 0 1 1-2 2 2 2 0 0 1 2-2zm8 0a2 2 0 1 1-2 2 2 2 0 0 1 2-2zm8 0a2 2 0 1 1-2 2 2 2 0 0 1 2-2zm8 0a2 2 0 1 1-2 2 2 2 0 0 1 2-2zm59 0a2 2 0 1 1-2 2 2 2 0 0 1 2-2zm8 0a2 2 0 1 1-2 2 2.006 2.006 0 0 1 2-2zm8 0a2 2 0 1 1-2 2 2.006 2.006 0 0 1 2-2zm8 0a2 2 0 1 1-2 2 2.006 2.006 0 0 1 2-2zm8 0a2 2 0 1 1-2 2 2.006 2.006 0 0 1 2-2zm8 0a2 2 0 1 1-2 2 2.006 2.006 0 0 1 2-2zm8 0a2 2 0 1 1-2 2 2.006 2.006 0 0 1 2-2zm8 0a2 2 0 1 1-2 2 2.006 2.006 0 0 1 2-2zm8 0a2 2 0 1 1-2 2 2.006 2.006 0 0 1 2-2zm8 0a2 2 0 1 1-2 2 2.006 2.006 0 0 1 2-2zm-95.336 6.23c-.045 2.76-1.535 3.76-3.116 3.67s-2.681-.82-3.8-.82l-.046.03c-1.123 0-2.223.75-3.8.84s-3.07-.86-3.116-3.62c.092-2.54 2.047-2.73 3.712-5.73 1.466-2.64 3.208-2.43 3.208-2.43h.046s1.756-.2 3.207 2.43c1.651 3.01 3.613 3.09 3.705 5.63zm-9.789-9.2c1.4-.1 2.415-1.76 2.266-3.7s-1.4-3.44-2.8-3.33-2.415 1.76-2.266 3.71 1.4 3.43 2.8 3.32zm5.308.04c1.368.37 2.9-.87 3.425-2.77s-.162-3.74-1.531-4.11-2.9.87-3.425 2.77.162 3.74 1.531 4.11zm6.34-1.52c-1.192-.32-2.527.76-2.982 2.41s.141 3.25 1.333 3.58 2.527-.76 2.982-2.42-.141-3.25-1.333-3.57zm-14.064 2.41c-.455-1.65-1.791-2.73-2.982-2.41s-1.789 1.92-1.333 3.57 1.791 2.74 2.982 2.42 1.789-1.93 1.333-3.58z" transform="translate(-858 -1185)"/></svg>