<svg xmlns="http://www.w3.org/2000/svg" width="113.62" height="113.62" viewBox="0 0 113.62 113.62"><defs><style>.cls-1{fill:#d6bd9f;fill-rule:evenodd}</style></defs><path class="cls-1" d="M56.81.01a56.8 56.8 0 1 0 56.8 56.8A56.8 56.8 0 0 0 56.81.01zm27.6 44.29c1.5 6.59 4.35 24.4-.1 29.47-.81.58-6.06 4.13-8.67 1.07l-.13-.14a5.552 5.552 0 0 0-7.87.05l-.22.22-.11.29a5.938 5.938 0 0 1-3.16 2.94c-1.5.48-3.31.13-5.37-1.04-1.35-2.4-9.06-16.33-12.26-28.25l-.11-.4-.29-.31c-.41-.43-2.64-2.57-4.78-1.74s-2.19 3.65-2.21 4.59v.1l.02.11c.04.53.84 5.61 10.4 21.36a12.075 12.075 0 0 1 1.34 4.51c-.86 2.53-3.87 8.75-8.4 9.84l-.16.03c-.26.1-6.51 2.1-10.8-6.17-.05-.07-3.98-7.35-5.02-13.76l-.08-.32c-.31-.8-1.99-4.8-5.01-4.98h-.19c-1.78 0-3.36 1.33-4.72 3.95l-.12.29c-.01.05-1.13 3.73-6.65 12.21L8.2 74.25c1.07-1.22 3.23-4.08 6.59-11.1.1-.26 2.61-6.28 8.85-4.61l.15.03c.38.24 2.17 1.63 5.85 8.53.45 1.26 4.15 11.23 9.7 17.37l.17.2.23.12a3.14 3.14 0 0 0 2.88.07c1.36-.67 2.19-2.24 2.56-4.77.22-.99 1.39-7.7-5.15-16.34-2.1-4.62-4.88-12.78-3.54-15.56l.08-.21c.02-.05 1.78-5.22 5.26-6.11 1.99-.52 4.32.43 6.95 2.81a238.914 238.914 0 0 1 9.05 24.13l.08.22c.1.2 2.31 4.68 7.09 4.68h.56l.43-.34c1.57-1.23 4.07-4.4 2.31-7.66l-.18-.34-.32-.22c-.05-.04-4.69-3.35-4.96-8.04.11-.91.37-4.64-2.46-6.96l-.24-.16c-.07-.03-6.03-3.45-4.83-11.68 0-.04.36-4.91 3.93-7.82 2.27-1.86 5.41-2.53 9.22-2.02.08.02 7.81 1.67 12.14 8.48l1.12 1.76 1.41-1.52a62.074 62.074 0 0 1 15.6-11.13c.85 1.12 1.63 2.29 2.37 3.49l-12.61 7.69c-.54.35-5.25 3.52-4.08 7.06zm-42.08 6.67a4.736 4.736 0 0 1 .22-1.46 4.382 4.382 0 0 1 1 .66 113.4 113.4 0 0 0 6.62 17.23c-6.66-11.45-7.71-15.84-7.84-16.43zM56.81 4.81A51.837 51.837 0 0 1 96.73 23.5a68.432 68.432 0 0 0-14.54 10.14 24.3 24.3 0 0 0-13.2-8.32c-4.82-.65-8.79.26-11.76 2.69-4.64 3.78-5.09 9.84-5.11 9.97-1.39 9.58 5.19 14.03 6.31 14.72 1.63 1.42 1.24 4.06 1.23 4.08l-.02.16v.17c.23 5.52 4.63 9.35 5.97 10.39.38 1.17-.58 2.37-1.17 2.97a5.389 5.389 0 0 1-3.6-2.73 236.653 236.653 0 0 0-9.28-24.67l-.13-.29-.24-.23c-3.56-3.32-6.99-4.6-10.16-3.79-4.92 1.28-7.16 7.25-7.47 8.13-2.33 5.15 3.01 17.01 3.63 18.35l.18.31c6.05 7.9 4.74 13.6 4.69 13.84l-.05.19a6.269 6.269 0 0 1-.67 2.33c-5.17-6.01-8.67-15.88-8.72-15.98l-.1-.22c-4.94-9.32-7.29-10.31-8.3-10.34-7.03-1.7-11.17 3.54-12.35 6.5a57.829 57.829 0 0 1-5.12 9.05A52.034 52.034 0 0 1 56.81 4.81zm0 104a51.989 51.989 0 0 1-45.6-26.99c6.24-9.3 7.9-13.81 8.21-14.74.89-1.71 1.61-2.21 1.82-2.11.53.02 1.57 1.38 2.15 2.78 1.16 6.92 5.15 14.29 5.31 14.58 3.55 6.86 8.49 8.13 11.65 8.13a10.836 10.836 0 0 0 2.92-.39c7.3-1.77 10.58-11.71 10.72-12.14l.07-.32a9.033 9.033 0 0 0-.39-3.14c1.43 2.71 2.44 4.45 2.55 4.66l.21.35.35.21c3.05 1.86 5.87 2.37 8.4 1.55a8.918 8.918 0 0 0 4.91-4.4 2.355 2.355 0 0 1 3.2.16c3.81 4.35 10 1.57 13.07-.77l.19-.17c6.6-7.07 1.56-29.97.96-32.56l-.06-.19c-.26-.71 1.28-2.4 2.74-3.36l12.49-7.64a52.005 52.005 0 0 1-45.87 76.5z"/></svg>