<svg id="Слой_1" xmlns="http://www.w3.org/2000/svg" viewBox="0 0 113.6 113.6"><style>.st0{fill-rule:evenodd;clip-rule:evenodd;fill:#d6bd9f}</style><g id="XMLID_28_"><g id="XMLID_74_"><path id="XMLID_75_" class="st0" d="M56.8 0C25.4 0 0 25.4 0 56.8s25.4 56.8 56.8 56.8 56.8-25.4 56.8-56.8S88.2 0 56.8 0zm4.8 108.6c-.4-14.1 1.9-23.1 1.9-23.1h1.7c-.7 8.5-.3 18.6-.1 22.7-1.1.1-2.3.3-3.5.4zm9-1.6c.1-21.3 1.7-26.8 1.7-26.8 1.6-3.8 1.8-10.5 1.8-10.5 2.8-5.3 0-7 0-7-3.4-2.5-3.5 0-3.5 0-3.8 1.6-12.3 0-12.3 0-4.7-4.7-7-1.8-7-1.8-3.8 3.1-7 5.3-7 5.3H39c-6.6-1.9-5.3 5.3-5.3 5.3-.6 5 5.3 7 5.3 7 3.5 3.7 4.7 20.6 5.1 28.8-22.6-5.8-39.3-26.2-39.3-50.5 0-28.7 23.2-52 51.9-52 0 1.6-.3 4-2 6.9 0 0-4.6 10.2-10.5 15.8 0 0-6 2.9-8.8 7 0 0-8.8 7.4 0 19.3 0 0 7 2.9 12.3-1.8 0 0 5-3.1 8.8 3.5 0 0 11.9 7.3 17.6-1.8 0 0 4.6-8.7-3.5-19.3 0 0-2.4-2.1-1.8-10.5 0 0 1.9-10 4.7-16.4 20.5 7 35.3 26.4 35.3 49.2 0 24-16.2 44.2-38.2 50.3z"/></g></g></svg>