<svg id="Слой_1" xmlns="http://www.w3.org/2000/svg" viewBox="0 0 34.6 34.6"><style>.st0{fill:#9e140f}</style><g id="XMLID_102_"><path id="XMLID_103_" class="st0" d="M17.3 0C7.8 0 0 7.8 0 17.3c0 8.1 5.6 14.9 13.1 16.8 1.3.3 2.7.5 4.2.5s2.9-.2 4.3-.5c7.5-1.9 13-8.7 13-16.8C34.6 7.8 26.9 0 17.3 0zm0 21.5l-2.6-1.9 2.6-1.7 2.6 1.7-2.6 1.9zm10.3 6.1c-1.3 1.3-2.9 2.4-4.6 3.1-.4.2-.9.3-1.3.5v-3.9c-.1-1-.5-1.8-1.1-2.3-.1-.1-.3-.1-.5-.2 2.5-1.1 4.2-3.5 4.2-6.4V16l2 2 3.4-.7.7-3.4-4.1-4.1c-1.1-1.1-3-1.1-4.1 0-.1.1-.2.1-.3.2-1.2-1.1-2.8-1.7-4.6-1.7-1.7 0-3.3.7-4.6 1.7-.1-.1-.1-.2-.2-.3-1.1-1.1-3-1.1-4.1 0l-4.1 4.1.7 3.4 3.4.8 2-2v2.4c0 2.9 1.8 5.3 4.3 6.4-.1 0-.2.1-.3.1-.8.6-1.2 1.6-1.2 2.9v3.5c-.5-.1-1-.3-1.5-.5-1.8-.8-3.3-1.9-4.7-3.2-1.3-1.3-2.4-2.9-3.1-4.6-.8-1.8-1.1-3.7-1.1-5.7s.4-3.9 1.1-5.7C4.6 9.9 5.7 8.4 7 7c1.3-1.3 2.9-2.4 4.6-3.1 1.8-.8 3.7-1.1 5.7-1.1s3.9.4 5.7 1.1c1.7.7 3.3 1.8 4.6 3.1 1.3 1.3 2.4 2.9 3.1 4.6.8 1.8 1.1 3.7 1.1 5.7s-.4 3.9-1.1 5.7c-.7 1.7-1.8 3.3-3.1 4.6z"/></g></svg>