<svg id="Слой_1" xmlns="http://www.w3.org/2000/svg" viewBox="0 0 113.6 113.6"><style>.st0{fill:#d6bd9f}</style><g id="XMLID_28_"><g id="XMLID_928_"><path id="XMLID_929_" class="st0" d="M113.6 55.2c-.4-14.4-6.2-27.6-15.5-37.4-.8-.8-1.5-1.6-2.3-2.3C86 6.2 72.9.4 58.4 0h-3.2C40.7.4 27.6 6.2 17.8 15.5c-.8.8-1.6 1.5-2.3 2.3C6.2 27.6.4 40.7 0 55.2v3.2C.4 72.9 6.2 86 15.5 95.8c.8.8 1.5 1.6 2.3 2.3 9.8 9.2 22.9 15.1 37.4 15.5h3.2c14.4-.4 27.6-6.2 37.4-15.5.8-.8 1.6-1.5 2.3-2.3 9.2-9.8 15.1-22.9 15.5-37.4v-3.2zM95.8 22.4c.5.6 1 1.2 1.6 1.8l-1.6-1.6v-.2zm-6.4-6.1l1.8 1.5-.2.1-1.6-1.6zm-27-11.2h-2.3l-.1-.2c.8 0 1.6.1 2.4.2zm-8.8-.2l-.1.2h-2.3c.8-.1 1.6-.2 2.4-.2zM24.2 16.3l-1.6 1.6-.2-.1 1.8-1.5zm-6.4 6.1l.1.2-1.6 1.6 1.5-1.8zm-12.7 40c-.1-.8-.2-1.6-.2-2.4l.2.1v2.3zm0-8.9l-.2.1c0-.8.1-1.6.2-2.4v2.3zm12.7 37.7l-1.5-1.8 1.6 1.6-.1.2zm4.6 4.6l.2-.1 1.6 1.6-1.8-1.5zm28.8 12.7h2.3l.1.2c-.8 0-1.6-.1-2.4-.2zm8.8.2l.1-.2h2.3c-.8.1-1.6.2-2.4.2zm29.4-11.4l1.6-1.6.2.1-1.8 1.5zm6.4-6.1l-.1-.2 1.6-1.6-1.5 1.8zm2.6-34.4l-6.3 8.6 10.1-3.3 5.1 7c-1.3 5.2-3.3 10.2-6.1 14.7l-8.5 1.4-4.8-9.5-1.7 10.5-10.5 1.7 9.5 4.8-1.4 8.5c-4.5 2.8-9.4 4.8-14.7 6.1l-7-5.1 3.3-10.1-8.6 6.2-8.6-6.2 3.3 10.1-7 5.1c-5.2-1.3-10.2-3.3-14.7-6.1l-1.4-8.5 9.5-4.8-10.5-1.7-1.7-10.5-4.8 9.5-8.5-1.4c-2.8-4.5-4.8-9.4-6.1-14.7l5.1-7 10.1 3.3-6.2-8.6 6.2-8.6-10.1 3.3-5.1-7c1.3-5.2 3.3-10.2 6.1-14.7l8.5-1.4 4.8 9.5 1.7-10.5 10.5-1.7-9.5-4.8 1.4-8.5c4.5-2.8 9.4-4.8 14.7-6.1l7 5.1-3.3 10.1 8.6-6.3 8.6 6.3-3.3-10.1 7-5.1c5.2 1.3 10.2 3.3 14.7 6.1l1.4 8.5-9.5 4.8 10.5 1.7 1.7 10.5 4.8-9.5 8.5 1.4c2.8 4.5 4.8 9.4 6.1 14.7l-5.1 7-10.1-3.3 6.3 8.6zm10.1 5.6v-2.3l.2-.1c0 .8-.1 1.6-.2 2.4zm0-8.9v-2.3c.1.8.2 1.6.2 2.4l-.2-.1zm-52.8 1.3l-.1-.7-.2-.6-.1-.8-.1-.7-.2-.9-.4-.8-.2-.6-.5-1.2-.7-.8-.4-.7-.8-.5-.6-.3-1-.8-1-.6-.8-.2-.6-.2-.8-.1h-.8l-.8-.1-1.2.1h-1.2l-.7-.3h-1.7l-.7.1-2 .1-1 .2-.5.4-.3 1.1V48l.1.7v1.6l-.1.7v3.7l.1 1-.1.7v4.7l.1.8v.6l.1.8v3.2l-.1 1 .4 1.1.6.3 1 .4 1.2.2.8-.1h.7l1.2-.2 1.1.2h1.3l1.9-.2h.8l.8-.1.7-.4.6-.3.9-.2 1-.6.8-.8.7-.5.5-.6.3-.6.3-.6.4-.7.2-.8.3-.7.3-.8.2-.7V60l.3-.8.1-.8v-2l-.1-1.1v-.5zm-1.9-1.3h-.2v-.3l.2-.2.4.2-.1.2-.3.1zm0 3.1h-.4l-.1-.2h.3l.2.2zm0-4h-.1l-.2.2v-.1l-.1-.1.1-.1.3.1zm-.1-.8l.1.2-.2.1-.2-.3h-.1l.2-.3.2.3zm-1.2 5.1v-.1l.2-.2.2.3v.5l-.3.2-.2-.2v-.2l.1-.3zm.5-1.4h-.3v-.3l.2-.1.1.1h.2v-.1l.1.3h-.1l-.2.1zm.5 3.1h.2v.2l-.2.2-.2-.2-.1-.2h.3zm-.8-9.9v-.2l.2.1v.3h-.3l.1-.2zm-.2 1.7V50l.3.1h.2v-.5l.1-.2.3.2v.2l-.1.1v.3l-.1.1-.2-.2v.2l.1.3.3.2v.2l-.2.2h-.5l-.2-.1.2-.1v-.5h-.2zm0 1.8v.3l-.2-.1v-.2l.1-.1.1.1zm-1.4-4.6l.2-.1h.1l.3-.1v.7l.1.2-.3.2-.2-.2-.1.1v.4l-.1-.1H51v-.4l.1-.2.1-.1.2.2h.1v-.1l.1-.2-.1-.1-.2-.1-.1.1v-.2zm.3 2.1l-.3.1v-.3l.2-.2v.1l.1.3zm-1.3-3.5l.1.1v.2l-.1.2v-.5zm0 1.1l.4-.3.4.3v.6l.1-.1v.2l-.2.2h-.2v-.1l-.1-.2-.4-.1-.1-.1-.3.2h-.2v-.6l.1-.2.2.1.1.1v.4l.2-.4zm-.7-1.4l.1.1v-.1h.2l.2.3-.3.2v-.1h-.2l-.2.2-.1-.1v-.3l.3-.2zm-.9.6h.2l-.2.2h-.2l-.1-.2h.3zm-1.2-.5h.3l-.1.2v.2l-.4-.1v-.2l.2-.1zm-.6 0h.2l.1.2h-.3l-.2-.2h.2zm-4.6-1.2v.1l.2.3H42l-.2-.2v-.2h.3zm-1.4.1l.1-.1.2.1.2.2v.1l.1.2.2.1-.1.1-.3-.2v-.1l-.4-.1v-.3zm-2.6.3l.2-.1h.1l.1.1.1-.1.1.2-.2.2H38l.1-.3zm-.7 4.7v-.2l.5-.2.2-.2.3.2v.3h-.1v.3l-.3.1-.4-.1h-.1v-.2zm.2-2.5l.3-.2h.2v.1l-.2.2-.3-.1zm.2 13.1l-.3-.4v-.3l.4-.3.5.3-.1.4v.2l.2.1v.2l-.1.1h-.2v-.1l-.4-.2zm-.4-2.4l-.1-.1v-.5h.2v.1l.1.1v.3l-.1.2-.1-.1zm1.4 1.6h-.1l-.1-.2.1-.2v.2l.1.2zm0-9.7h-.3l.3-.2v.2zm-.2 13.1l.1.1.1.3h-.3l-.1-.1.2-.3zm-.2-8.5h-.3l-.2.1-.2-.1v-.1l.1-.1.2-.1v-.1l.1-.1.2-.2h.1l.1.2-.1.2v.3zm-.1-1l-.4.3-.3-.2-.1-.2.2-.1h.1l.1-.1h.4v-.1.4zm-.5 1.8l.2.2v-.2l.1-.2V55l.3.3h-.1v.8l-.1.2-.2-.2v-.2h.1-.4l-.2-.1.3-.4zm.6 3.8v.1h-.2v-.4l.2.3zm-.6-2.9h.2l.1.2-.3.1v-.3zm.6 6v.3l-.1.3-.2-.2v-.3l.2-.1h.1zm-.2 3l.5-.3.4.3-.1.4-.3.1-.4-.2v-.3zm.6-4.6l.2-.3h.2l.1.3-.2.1-.3-.1zm.4-.8l-.1.1h-.3v-.1l.1-.3h.1l.3.1-.1.2zm0-8l-.3.1v-.1l.2-.2h.2l-.1.2zm-.7-3.7h.4v.2l-.3.1h-.2v-.2l.1-.1zm-.1-.7l.1-.4h.2l.1.1.2.2-.2.1v.2l-.1.1h-.2l-.1-.3zM37.1 52l.4-.3.3.1.2.2-.1-.2v-.3l.5-.3.4.2v.5l-.1.1.1.1v.3h-.2v-.1.1l-.2.2-.4.2h-.4l-.3-.1v-.2h-.1v-.2h-.1V52zm.4 4.7h.2l.1.1-.2.1h-.3v-.2h.2zm-.1 5.7l-.2-.3.1-.2.2.1.1.1-.2.3zm.2-.8v-.3h.5l-.1.3h-.4zm.8 6.1H38l.1-.2.2-.1h.2l-.1.3zm1-.9l-.3.2-.6-.2-.2-.2h-.1l-.2-.2h.1l.1-.1.3.1.2-.1h.2l.5.2v.3zm0-20.5h-.2l-.1.1v.3h-.2l-.3.1v-.1l-.2-.1h-.2l-.1.1h-.3l-.1-.2.1-.1.2.1v-.2l.2-.1.1.2h.1l.3-.1.1.2v-.3l.2-.3h.2l.2-.3.3-.2.4.1.3.1v.4l-.2.1-.3.2h-.5zm2.4 21.2l-.4.2-.5-.1-.1-.4.4-.2h.4l.3.2v.3zm2.8.2h-.1l-.3-.1.2-.3.3.1v.3zm1.3 0l-.1-.1v-.3l.2.1.1.4h-.2zm4.5-2.1l-.3.2-.5-.2v-.2l.1-.2.3-.1.4.3v.2zm.6-.2l-.2.1-.1-.3h.3v.2zm.1-.8l-.2.1-.1-.1v-.2l.2-.1.2.2-.1.1zm.8-5.1l-.2 1-.3.5v.8l-.3.8-.4.6-.4.6-.4.5-.7.7-.7.5-.7.5-1 .2-1.1.2-1.3.2h-2.7l-.7.2-.7-.5-.4-.6.2-.8-.1-.9v-1.1l-.1-1.1.2-.7v-.8l.1-.8-.2-.8v-1.5l.2-.8-.2-.7V51l-.1-.5.1-.8v-.9l.1-.7.4-.8.6-.5h.8l1.5.2 1.2-.1 1.1.2h.9l.6.2.8.4.7.4.6.4.5.5.5.7.4.7.2.8.3.7.2.8.2.7.2 1.2v1.1l-.1 1.3v1.1l.1.8.1.6zm-.3-9.9l-.2-.2.1-.2-.1-.1h.2l.5-.1.2.1v.4l-.2.2-.5-.1zm1 13.9h-.5v-.2l.3-.1h.2v.3zm-.1-5.5l.1-.1h.4l-.1.3-.2.1-.2-.3zm1 2.1l-.1.2-.1.1-.3-.1v-.2l.4-.2.2-.1.1-.1h.1l.1.4h-.4zm.4-1.8l-.2-.1V58l.3-.2.2.3-.3.2zm.8-.7l-.4.2-.5-.2-.1-.1h-.2l-.2-.2v-.2l.2-.1.2.1.1-.1h.4l.4.3v.3zm21.3 9l-1.2-.2h-1.7l-.7-.1-.8.1H70l-.7.1h-2.5l-.8-.1-.8-.3-.4-.8v-1.5l.1-.7-.1-.7.1-.8-.1-.7v-1.6l.4-.7.7-.5.7.2h.9l.6-.1 1.2.1 2-.1 1.3.1.7-.2 1-.3.3-1-.2-1.1-1.1-.4-1.1-.1-.8.1-.8-.2h-.7l-.9.2h-.8l-.6-.2-.8.1H66l-.8-.4-.3-.7.1-.6v-.8l-.1-.9-.1-.7.1-.7V49l.1-.7.4-.8.6-.5.7.2h4l.6-.1h.9l.6-.1h.8l.8.1h1.2l.9-.4.3-1.2-.2-1.2-1.1-.3H74l-1.2.1h-.9l-.8.1h-.7l-.7-.2-.9.1h-.7l-1.6-.1-.7.1-.8.1h-1.8l-1.2.2-.4.6-.2 1-.1 1.3v1.5l.1.7v.8l-.2.7.1.7-.1.8.1.9-.1.8v2.1l-.1.8v3.1l.2.8v.6l-.1.8V64l.1.8v.7l.1.8-.1 1.2.2 1.1.6.5.9.4 1.2-.1 1.3.1h1.1l1.2-.2 1.2.1.5.1.8-.1.8.1.7-.1h.8l.8.1.8-.2h1.9l.9-.3.3-1-.4-1-.9-.4zm-8.3-10.2l.2-.1-.1.3-.2.1-.1-.1v-.2h.2zm-.2.7h.4l-.2.4h-.3l.1-.4zm-.6-1.4l.3.3v.5l-.2.1-.5-.3-.1-.3.5-.3zm7.7-10.6l.4.2-.1.3-.3.2-.4-.2.2-.4.2-.1zm-.9.2h.2l.2.2h-.5l.1-.2zm-1.9 0l.4-.1.5.2v.3l-.5.2h-.4v-.6zm-.4.7l.2-.1.1.2-.1.3h-.2l-.1-.2.1-.2zm-.2-.5h.1l-.1.3-.2.1h-.1l-.1-.3.4-.1zm-1.1-.7h.2l.3.1-.1.2h-.2l-.2-.1v-.2zm-2.9.7l.1.1.1.3-.2.1v-.5zm-2 12.3l-.1.2-.1.1-.3.1V58l.5-.2zm-.4-1.6v.2l.2-.3v.5l-.2.3.1.2-.2.3.1.1h-.1v.2l-.2-.1-.1-.3-.1-.2-.3.1v-.1l.1-.1-.3-.2v-.4l.4-.2.3-.1-.1-.3.1-.1.1.2v.2l.2.1zM63 66.4l.2-.2v.3h-.1l-.1-.1zm-.1-1.8l-.1-.3h.3l.2.1v.1H63l-.1.1zm.1 1v-.3l.7-.2.2.3v.3l-.3.2-.6-.3zm-.7-6.9l-.1-.2.1-.1v-.3l.1-.1v-.1h.1v.4l.1.2-.3.2zm.2.3v.2h-.4V59l.4-.2v.2zm-.3-2l-.2-.3h.3l.2.1.1.2h-.4zm.4-5.4l.5-.3.4.2.1.4-.1.3.3.1-.1.1-.1.2.1.3h-.2l-.2-.1v-.3l-.1.1-.2.1-.4.2-.3-.2-.1-.3-.1-.1-.1-.4.3-.1.2.2.2.1v-.3l-.1-.2zm.1-2.3l.3.3.2.1v.4l-.3.1h-.3l-.2-.3-.1-.4.4-.2zm-.5-1.6l.1-.2.1.1v.1l-.1.2-.1-.2zm1.4-.1v.2h-.3v-.5l.1-.1.2-.3v.7zm-.7 7l-.2.2-.2-.2-.1-.1.1-.3.2-.2.1.2.2-.2v-.1l-.1-.3h.1v-.1h-.4l-.1-.1.2-.1h.6l.1.4-.2.3v.1h.2l.1-.2.2.2v.2l-.2.1-.1-.1-.2.1-.2-.2-.2.1v.2l.1.1zm-.5.4l-.2.1-.2-.2.3-.1.1.2zm0 1.4h.1l.1-.2v-.3l.2.1h.2l-.1-.1v-.7l.1-.1-.1-.1.2-.1h.1l-.1.3.2.1v.3h-.1v.6h.1l-.2.1-.3.1-.1-.2.1.4-.1.1h-.1l-.2-.3zm.4 1.5h.5v.3H63l-.3-.2.1-.1zm.5 1.1l-.1.2-.1.2-.1-.2V59h.3zm-.2 1.5h.1l.1.2-.2.1-.3-.1.3-.2zm.5-1.2V59l.2-.1.2.1.1.3-.1.1-.4-.1zM64 46l.2-.1.1-.2.2-.3v-.1l.2-.4.4-.3.3.2.1.5-.2.1-.3.3-.1.5-.3.2-.2-.1H64v.1l-.1.2-.1.1-.1-.1-.1.1h-.2l-.1-.1-.1-.3.2-.1.2.2.1-.2-.1-.2h.4zm-1-.7l.2-.1.1-.1.3.3-.3.1v-.1l-.1-.1-.1.2-.1-.2zm-.1 1.2v.2h-.3l-.1-.2v-.1h.1l.3.1zm-.5-.9h.2v.3h-.3l-.1-.2.2-.1zm-.3 4.9h.5l.2.1v.3l-.1.1-.1.2v.1l-.2.2H62v-.4l-.1-.4.2-.2zm.4 11.7l-.1.2-.3-.1.1-.1v-.1l-.3-.2.1-.3.4-.4V61l.2-.2.2.1v.3l.1.2-.2.2v.3l-.3.1.1.2zm.2.2l.3-.3.3.1.1.5h-.2l-.4-.1-.1-.2zm.3 5.2h-.2v-.4h.1l.2.1.2.2-.3.1zm.8-.7l-.4-.1-.1-.6.4-.1.3.3.1.4-.3.1zm.4-8l-.1-.1v-.1l.2-.1.2.1-.1.1-.2.1zm.6 8.8h-.2l-.2-.1.1-.2v-.2l.3.1v.4zm1.3-.1l-.4-.1v-.4l.4-.1.3.1.1.3-.4.2zm4.5 0h-.2l.1-.2.2-.1h.1v.2l-.2.1zm3.4 0h-.4v-.2l.1-.1.3.1v.2z"/></g></g></svg>