<svg xmlns="http://www.w3.org/2000/svg" viewBox="0 0 34.6 34.6"><path d="M17.3 0C7.8 0 0 7.8 0 17.3v2.1c0 .3.1.6.1.9v.5c0 .2.1.4.1.5v.8c0 .1.1.2.1.4v.2c.2.7.5 1.4.8 2.1 0 0 0 .1.1.1 0 0 0 .1.1.1 0 0 0 .1.1.1.1.3.3.5.4.8 0 .1.1.1.1.2.2.3.3.5.5.8 0 .1.1.1.1.2 0 0 0 .1.1.1 0 0 0 .1.1.1.2.3.4.5.6.8 0 .1.1.1.1.2.4.5.8.9 1.2 1.4l.1.1.5.5c.1.1.2.2.3.2l.1.1.1.1.1.1c.1.1.3.2.4.3l.1.1c.1 0 .1.1.2.1.1.1.2.1.3.2.1.1.2.1.2.2.1 0 .1.1.2.1l.1.1c.5-.1.6 0 .7.1l.1.1c.2.1.3.2.5.3.1 0 .1.1.2.1 0 0 .1 0 .1.1 0 0 .1 0 .1.1.1 0 .1.1.2.1h.1c.1.1.2.1.3.2.1 0 .1.1.2.1s.1.1.2.1c.3.1.5.2.8.4.1 0 .2.1.3.1.1 0 .2.1.3.1h.1c.1 0 .2.1.2.1.2.1.4.1.5.2h.1c.2.1.5.1.7.2.1 0 .2 0 .2.1.1 0 .2 0 .2.1.1 0 .2 0 .3.1h.2c.1 0 .2 0 .3.1h5.3c.2 0 .3 0 .5-.1h.4c.2 0 .3-.1.5-.1h.2c.1 0 .2 0 .3-.1.1 0 .1 0 .2-.1h.1c.1 0 .3-.1.4-.1h.3c.3-.1.5-.2.8-.3.1 0 .1 0 .2-.1.1 0 .2-.1.2-.1.1 0 .2-.1.3-.1.1 0 .1 0 .2-.1 0 0 .1 0 .1-.1.3-.1.7-.3 1-.5 0 0 .1 0 .1-.1.3-.1.5-.3.8-.4l.1-.1c.1 0 .1-.1.2-.1l.1-.1c.1-.1.2-.1.3-.2.1 0 .1-.1.2-.1l.1-.1c.1 0 .1-.1.2-.1l.1-.1c.1-.1.3-.2.4-.3.1-.1.2-.1.3-.2.1-.1.2-.1.2-.2l.1-.1c.1-.1.3-.2.4-.4l.1-.1.1-.1c.1-.1.3-.2.4-.4l.1-.1.1-.1.3-.3c.1-.1.2-.2.2-.3l.1-.1.1-.1c.2-.3.4-.5.7-.8l.1-.1.1-.1.1-.1c.1-.1.2-.2.2-.4l.1-.1c0-.1.1-.1.1-.2.2-.3.3-.5.5-.8 0-.1.1-.1.1-.2 0 0 0-.1.1-.1 0-.1.1-.1.1-.2 0 0 0-.1.1-.1.3-.6.6-1.2.8-1.8 0-.1.1-.2.1-.3v-.1c0-.1 0-.1.1-.2.1-.2.1-.4.2-.5v-.1c0-.1.1-.3.1-.4 0-.1 0-.1.1-.2 0-.1 0-.1.1-.2v-.2c0-.2.1-.4.1-.6v-3.2C34.6 7.8 26.9 0 17.3 0zm-.8 16.9h1.6c0 .3-.5 1.1-.8 1.1-.3.1-.7-.7-.8-1.1zM30.7 23c-.7 1.7-1.8 3.3-3.1 4.6-1.3 1.3-2.9 2.4-4.6 3.1-.4.2-.9.3-1.3.5v-8.8s0-.1-.1-.1c0 0 0-.1-.1-.1 0 0 0-.1-.1-.1l-.1-.1v-.1s0-.1-.1-.1l-.1-.1-.1-.1.9-.3c.4-.1.7-.3 1-.5.3-.2.6-.4.9-.7.3-.3.5-.6.7-1 .2-.4.3-.8.5-1.4.1-.5.2-1.1.2-1.7 0-1.2-.4-2.3-1.2-3.1.4-.9.3-2-.1-3.1h-.3c-.2 0-.6.1-1.1.3-.5.2-1.1.5-1.8 1-.9-.3-1.9-.4-2.9-.4s-2 .1-2.9.4c-.4-.3-.8-.5-1.2-.7-.4-.2-.7-.3-.9-.4-.2-.1-.4-.1-.6-.1h-.5c-.4 1.1-.5 2.2-.1 3.1-.8.9-1.2 1.9-1.2 3.1 0 .6.1 1.2.2 1.7s.3 1 .5 1.4c.2.4.4.7.7 1 .3.3.6.5.9.7.3.2.6.3 1 .5.4.1.7.2 1 .3l-.1.1-.1.1-.1.1v.5c0 .1-.1.2-.1.2v.2c0 .1 0 .1-.1.2v8.2c-.3-.1-.5-.2-.8-.3h-.1c-.1 0-.1 0-.2-.1-.1 0-.1 0-.2-.1-.1 0-.1-.1-.2-.1-2.8-.7-4.3-1.8-5.7-3.1-1.3-1.3-2.4-2.9-3.1-4.6-.8-1.8-1.1-3.7-1.1-5.7s.4-3.9 1.1-5.7C4.6 9.9 5.7 8.4 7 7c1.3-1.3 2.9-2.4 4.6-3.1 1.8-.8 3.7-1.1 5.7-1.1s3.9.4 5.7 1.1c1.7.7 3.3 1.8 4.6 3.1 1.3 1.3 2.4 2.9 3.1 4.6.8 1.8 1.1 3.7 1.1 5.7.1 2-.3 3.9-1.1 5.7z"/></svg>