<svg id="Слой_1" xmlns="http://www.w3.org/2000/svg" viewBox="0 0 113.6 113.6"><style>.st0{fill-rule:evenodd;clip-rule:evenodd;fill:#d6bd9f}</style><g id="XMLID_28_"><g id="XMLID_115_"><path id="XMLID_116_" class="st0" d="M56.8.3C25.6.3.3 25.6.3 56.8s25.3 56.5 56.5 56.5 56.5-25.3 56.5-56.5S88 .3 56.8.3zm0 108.2c-28.6 0-51.7-23.2-51.7-51.7 0-28.6 23.2-51.7 51.7-51.7 28.6 0 51.7 23.2 51.7 51.7 0 28.6-23.1 51.7-51.7 51.7zm-22.4-54v-.8c-7.1 9.5-12.7 9.5-12.7 9.5-9.6-.2 0 1.6 0 1.6 5.2-.5 9.5-4.5 11.5-6.6-.3 1.9-.2 3.2-.2 3.2-.8 4.9-3.2 8-3.2 8-4.8 2.7-6.4 6.4-6.4 6.4-2.2 9 0 11.1 0 11.1 1.7 1.2 4.8 0 4.8 0 0-1.7-1.6-3.2-1.6-3.2-2.2-2.7 0-4.8 0-4.8 1.2-3.2 4.8-4.8 4.8-4.8-1.2 5.3 1.6 8 1.6 8 .5 1.8 3.2 1.6 3.2 1.6 1-1-1.6-3.2-1.6-3.2-1.7-3.2 0-4.8 0-4.8 2.9-4.9 9.5-8 9.5-8-2.5-8.1-8-15.9-8-15.9-.7 1-1.3 1.8-1.7 2.7zm18.3 5.7l2.9-2-9-.6-1.4 8 2.9-2c7.6 13.1 15.6 4 15.6 4-12.2 2.1-11-7.4-11-7.4zm-.7-9.8h-3.2C50.9 40.9 60 39.2 60 39.2c-15.4.2-17.5 11.1-17.5 11.1h-3.2l6.4 4.8 6.3-4.7zm30.8-23.5c0-1.5-.5-5.2-.5-5.2-1.8 1.1-3.2 3.2-3.2 3.2-.4-1.8-3.2-3.2-3.2-3.2-.7 3.1 0 8 0 8-2.4 2.2-4.8 8-4.8 8-4 8-6.4 8-6.4 8-4.9-.6-9.5 0-9.5 0-.6 20.9 14.3 17.5 14.3 17.5 2.2 1.8 1.6 4.8 1.6 4.8-1.3 7.6 1.6 15.9 1.6 15.9-.1 3.2 1.6 4.8 1.6 4.8 2.5.7 4.8-1.6 4.8-1.6 1.5-1.4-1.6-3.2-1.6-3.2-1.5-3.2 0-19.1 0-19.1 1.5-4.6 3.2-6.4 3.2-6.4 2.4-5.2 1.6-20.7 1.6-20.7 5.9.3 7.1-.3 7.1-.3 3.1-1.1 2-5.4 2-5.4-3.8-.3-8.6-5.1-8.6-5.1z"/></g></g></svg>