<svg id="Слой_1" xmlns="http://www.w3.org/2000/svg" viewBox="0 0 113.6 113.6"><style>.st0{fill:#d6bd9f}</style><g id="XMLID_28_"><g id="XMLID_418_"><path id="XMLID_419_" class="st0" d="M56.9.3c-7.7 0-15.1 1.6-21.8 4.4-.9.4-1.7.7-2.5 1.1-1.1.5-2.2 1.1-3.3 1.7-.8.5-1.6.9-2.3 1.4-6.8 4.3-12.7 10-17.2 16.8-1 1.4-1.8 2.9-2.7 4.5-2.3 4.2-4 8.8-5.2 13.7-.3 1.2-.5 2.4-.7 3.6-.5 3-.8 6.2-.8 9.4 0 31.2 25.3 56.5 56.5 56.5 30.7 0 55.7-24.5 56.5-55v-1.7C113.3 25.5 88.1.3 56.9.3zm40.5 24.3c1.8 2.2 3.4 4.6 4.8 7.2-1.1-.2-2.5-.3-3.7.3-2.2 1-3.2 3.6-3.5 4.7-.2.1-.4.2-.7.4.8-2.4 1.1-4.8.8-7.1.8-.9 2.5-3.1 2.3-5.5zm5.8 9.4c-.3.9-1 2.6-2.4 3.2-1.3.6-3 .1-3.9-.3.3-.9 1.1-2.6 2.4-3.2 1.3-.6 3-.1 3.9.3zm-7.7-9.3c.2 1.4-.9 2.9-1.5 3.7-.8-.6-2.1-1.8-2.3-3.3-.2-1.4.9-2.9 1.5-3.6.8.6 2.1 1.8 2.3 3.2zM72.6 7.5c.3.1.5.2.8.3l-2.8 1.8-3.7-.8L69.8 7l2.8.5zm-6 2.4l3.7.8 1.8 2.9-3.7-.8-1.8-2.9zm.1 2.5l-3.7-.8-1.9-2.9 3.7.8 1.9 2.9zM68 6.5l-2.9 1.8-3.7-.8 2.9-1.8 3.7.8zm-11.4 0l-.7-.2 1.9-1.2c1.5 0 3 .1 4.5.3l-2.8 1.8-.4-.2c-.3-.1-.7.1-.7.5-.1.3.1.7.5.7l.6.1 1.9 2.9-3.7-.8-1.8-2.9.7.2c.3.1.7-.1.7-.5-.1-.3-.3-.6-.7-.7zm-1.1-1.4l-1.3.9-2.7-.6c1.3-.2 2.7-.3 4-.3zm-26.2 8c1.5-1 3.1-1.9 4.7-2.7-.1.3-.2.7.1 1.1.4.7 1.2.5 1.7.4 1.2-.3 2.7-.6 3.4 2.3.3 1.2.5 2.8-.2 3.6-.7.7-2.3.9-4.6.4-3.8-.8-7.2 3.2-7.5 3.6-.1 0-.2-.1-.4-.1-.1-2-.4-3.5-.8-4.4l3.6-4.2zM5.2 56.8c0-12.8 4.6-24.5 12.3-33.5 1.1-.6 2.1-1.2 2.8-1.6.1 0 .2-.1.3-.2 0 0 1.8-1.8 3.4-3.3.3.8.5 2.6.6 4.3 0 .5.4.9.9 1 .4.1 1.8.5 2.1 1.2.2.6-.2 1.3-.5 1.9-1.8 2.5-1.5 8.1-1.3 14 .1 3.7.3 7.6-.2 9.6-1.1 4.4-13.9 8.9-19.7 7.8-.2 0-.4-.1-.5-.1-.2-.4-.2-.7-.2-1.1zm34.1 22.5L41.8 92l-13.1-.2c-4.4-4-7.8-8.2-9.8-12-1.9-3.5-2.3-6.3-1.1-7.7 1.2-1.4 4.1-1.5 7.9-.2 4 1.2 8.8 3.9 13.6 7.4zm-8.1-7.1l.1-3.2 6.8 3.9.8 3.9c-2.7-1.8-5.2-3.4-7.7-4.6zm8.4-.8l14.7 26.2c1 1.7.4 3.3-.4 4.3s-2.4 1.8-4.2 1.2l-4.1-1.4v-.2l-6-30.1zM26 91.7l-4-.1-5.1-5.9 3.2-.6c1.7 2.2 3.7 4.5 5.9 6.6zm16.1 2l1.4 7.3-22.7-7.6 21.3.3zm46.7 3.8c-.9.4-1.6.7-2.2.9.1-.3.3-.5.4-.8.3-.6.4-.8.3-1.2-.1-.2-.3-.4-.6-.4-2-.5-3.5.1-4.5.7-.3-.9-.7-2.2-.9-4-.1-.8-.1-1.8-.1-2.8 2-.5 4.3-.1 6.4.9 1.8 1 3.3 2.5 4.2 4.2-1 .9-1.9 1.7-3 2.5zm13.5-15.9c2-7.2 3.1-15.4 3.3-17.7.6-.2 1.5-.4 2.6-1-.7 6.7-2.8 13-5.9 18.7zm6.2-20.7c-1.9 1.2-3.7 1.5-3.7 1.5-.4.1-.7.4-.7.7 0 .2-1.8 16.8-5.9 24.9-1.6 2.1-3.3 4-5.2 5.8-.9-1.6-2.1-2.9-3.7-3.9l6.5-2.1c.4-.1.7-.6.6-1.1-.1-.2-.2-.4-.4-.5-.2-.1-.4-.1-.6-.1l-7.9 2.5s-.1 0-.2.1c-1.9-.8-4-1-5.9-.7.3-2.2 1-4.8 2.4-7.5 4.1-8 16.8-19.1 16.9-19.3.3-.2.4-.7.2-1 0 0-1.8-3.9-.4-8l3.8 5.3c.1.2.4.3.7.4l3.7.1c-.1 1-.1 2-.2 2.9zm-3.1-4.5l-4.4-6.2c-.2-.2-.4-.4-.7-.4-.3 0-.6.2-.7.5-2.2 4.3-1 8.6-.4 10.2-2.4 2.1-13 11.9-16.9 19.4-2.8 5.3-2.9 10.1-2.6 13.1.4 3.3 1.4 5.4 1.4 5.5.1.2.3.4.6.4s.5 0 .7-.3c0 0 1.1-1.1 2.8-1.1-.3.6-.7 1.2-.9 1.8-.1.3-.1.6 0 .9l.3.3c-8 5.1-17.6 8.1-27.8 8.1-12.8 0-24.5-4.6-33.5-12.4l25.7 8.6c.6.2 1.3.3 1.9.3 1.6 0 3.2-.7 4.3-2 1.5-1.8 1.8-4.2.6-6.3L38.4 65.6c-.2-.4-.7-.6-1.1-.4-.4.2-.7.6-.6 1l.8 4.3-6.7-3.9c-.3-.2-.6-.2-.9 0-.3.2-.5.4-.5.8l-.1 4c-1.1-.5-2.2-.9-3.2-1.2-6-1.9-8.7-.6-9.9.8-1.2 1.4-2 4.2.9 9.7.5.9 1.1 1.9 1.8 2.9l-3.9.8c-.3.1-.6.3-.7.6-.1.3 0 .6.2.9l5.1 5.8h-.9C11 83.2 6.1 72.2 5.3 60.1h.1c2.3.4 5.6.1 8.9-.8 6-1.5 12.2-4.8 13.1-8.5.6-2.3.5-6.1.3-10.2-.2-5-.4-10.8 1-12.7 1-1.4 1.2-2.7.7-3.9-.2-.4-.4-.8-.7-1.1.9-1.1 3.2-3.1 5.3-2.7 3 .7 5.2.3 6.4-1 1.1-1.2 1.4-3.1.7-5.5-.9-3.6-3-4.1-4.5-4 .1-.2.1-.4.2-.6 3.5-1.5 7.2-2.6 11.1-3.3l6 1.3 2.7 4.2c.1.1.2.2.4.3l21.5 4.7c.3.1.7-.1.7-.5.1-.4-.1-.7-.5-.7L73.8 14 72 11.1l7.2 1.6c.3.1.7-.1.7-.5.1-.3-.1-.7-.5-.7l-7.2-1.6 2.6-1.6c6.7 2.5 12.8 6.3 17.8 11.2-.1 0-.2.1-.2.1-.1.1-2.9 2.7-2.6 5.8.1 1.2.7 2.2 1.4 3 .7.9 1.5 1.5 2 1.8.4 3.6-.7 6.8-2 9.2-.3-1-.8-2-1.4-2.9.3-1.1.8-3.9-.6-5.9-1.8-2.5-5.6-2.7-5.8-2.7-.4 0-.8.3-.9.6 0 .2-1.2 3.8.5 6.3.1.1.1.2.2.3 1.5 1.8 4 2.2 5.1 2.3.8 1.3 1.3 2.7 1.5 4.2-.9 1.3-1.6 2-1.6 2-.3.4-.3.9 0 1.2 0 0 0 .1.1.1.4.4 1 .4 1.3 0 .1-.1 1.4-1.5 2.8-3.9.9-1.2 2-2.1 3.3-2.8 1 .5 3.7 1.5 5.9.5 1.3-.6 2.1-1.7 2.7-2.8 2.7 6.2 4.2 13.1 4.3 20.3l-3.2.2zM88.2 35.7c-1-.1-2.7-.6-3.5-1.8-.8-1.2-.6-3-.4-3.9 1 .2 2.7.6 3.5 1.8.8 1.1.6 2.9.4 3.9zM75.7 66.5c-1.2-.4-2.4-.5-3.6-.2L71 63.8c1.2-1.5 1.5-3.1.9-4.5l-.8-1.8c5.1-5.7 6.4-14.1 3.1-21.2l-3.7-8.1s0-.1-.1-.1c-1.3-2.7-4.3-4.3-8.6-4.4-4-.1-8.6 1-12.8 3-4.2 2-8 4.8-10.5 8.1-2.7 3.5-3.5 6.9-2.2 9.7l3.7 8.1c3.2 7.1 10.3 11.6 17.9 11.3l.8 1.8c.6 1.4 2.1 2.2 3.9 2.2l1.1 2.5c-2.3 1.6-3.2 4.8-2 7.5 1.4 3 4.9 4.4 7.8 3 1.2-.6 2.2-1.6 2.8-2.8 1.3.3 2.6.2 3.9-.4 2.9-1.4 4.2-5 2.8-8-.7-1.6-1.9-2.7-3.3-3.2zM39.5 43c-.7-1.5 0-3.6 1.8-5.9 4.3-5.6 13.6-10 20.6-9.7 2.9.1 4.9 1 5.6 2.5.7 1.5 0 3.6-1.8 5.9-4.3 5.6-13.6 10-20.6 9.7-2.9-.2-5-1.1-5.6-2.5zm22.3 21l-1.3-2.8c-.3-.7-1-1.1-1.8-1-6.5.7-12.8-3-15.6-9.1L42 48.7c.9.2 1.8.3 2.9.4 8.1.2 18.4-4.7 23.4-11.1.7-.8 1.2-1.7 1.6-2.5l1.1 2.4c2.8 6.2 1.5 13.4-3.3 18.1-.5.5-.7 1.4-.4 2.1l1.3 2.8c0 .4-.9 1.7-3 2.7-1.9.8-3.5.7-3.8.4zm12.9 10.3c-.8.4-1.8.3-2.5-.3-.5-.4-1.2-.5-1.8-.2-.6.3-1 .9-1 1.5 0 .9-.6 1.7-1.4 2.1-1.2.6-2.6 0-3.2-1.2-.6-1.2 0-2.7 1.1-3.2.1-.1.3-.1.4-.1.5-.1.9-.5 1.2-1 .2-.5.2-1.1 0-1.5L66 67.2c.3-.1.7-.3 1-.4.4-.2.7-.3 1-.5l1.5 3.2c.2.5.6.9 1.1 1 .5.1 1.1 0 1.5-.3.1-.1.3-.2.4-.2.6-.3 1.2-.3 1.8-.1.6.2 1.1.7 1.3 1.3.8 1.1.3 2.6-.9 3.1zM50.2 42c3.2 0 7.4-2 9.5-4.5 1.8-2.1 1.5-3.8 1.1-4.6-.4-.8-1.4-2.2-4.2-2.1-3.2 0-7.4 2-9.5 4.5-1.8 2.2-1.5 3.8-1.1 4.6.4.8 1.4 2.2 4.2 2.1zm-.4-4.4c1.5-1.7 4.7-3.3 6.9-3.3.4 0 .7 0 .9.1-.1.2-.2.4-.5.7-1.5 1.7-4.7 3.3-6.9 3.3-.4 0-.7-.1-.9-.1 0-.1.2-.4.5-.7zm-29.5-.8c.2.5.7.7 1.2.6 0 0 .1 0 .2-.1.5-.2.7-.8.5-1.4L21 33.1c-.2-.5-.8-.7-1.3-.5-.5.2-.7.8-.5 1.4l1.1 2.8zm1.3-3.5c.2.5.7.7 1.2.6h.2c.5-.2.7-.8.5-1.4l-1.3-2.9c-.2-.5-.8-.7-1.4-.5-.5.2-.7.8-.5 1.4l1.3 2.8zm63.3 58.9c-.2-.1-.4-.1-.6-.1-.2.1-.4.2-.5.4-.1.2-.1.4-.1.7.1.2.2.4.4.5.2.1.4.1.6.1.2-.1.4-.2.5-.4.1-.2.1-.4.1-.7-.1-.2-.2-.4-.4-.5zm13.4-12.1c-.2-.1-.4-.1-.7-.1l-13.1 4.2c-.4.1-.7.6-.6 1.1.1.4.6.7 1.1.6l13.1-4.2c.4-.1.7-.6.5-1.1.1-.2-.1-.4-.3-.5zm1.5-5.8c-.2-.1-.4-.1-.6-.1L88 77.7c-.4.1-.7.6-.6 1.1.1.4.6.7 1.1.6l11.2-3.5c.4-.1.7-.6.6-1.1-.2-.2-.3-.4-.5-.5zm1-5.7c-.2-.1-.4-.1-.6-.1l-6.2 2c-.4.1-.7.6-.6 1 .1.4.6.7 1.1.6l6.2-2c.4-.1.7-.6.5-1.1 0-.1-.2-.3-.4-.4zm-78.2 5c-.3.4-.3.9.1 1.3.4.3 1 .3 1.3-.1.3-.4.3-.9-.1-1.3s-1-.3-1.3.1zm5 4.1c.3-.4.3-.9-.1-1.2-.4-.3-1-.3-1.3.1-.3.4-.3.9.1 1.3.4.2 1 .2 1.3-.2zm3.6 3c.3-.4.3-.9-.1-1.3-.4-.3-1-.3-1.3.1-.3.4-.3.9.1 1.3.4.3 1 .2 1.3-.1zm3.6 2.9c.3-.4.3-.9-.1-1.3-.4-.3-1-.3-1.3.1-.3.4-.3.9.1 1.2.4.4 1 .4 1.3 0zm3.6 3c.3-.4.3-.9-.1-1.3-.4-.3-1-.3-1.3.1-.3.4-.3.9.1 1.3.4.3 1 .3 1.3-.1zm.5-4c.3-.4.3-.9-.1-1.3-.4-.3-1-.3-1.3.1-.3.4-.3.9.1 1.3.4.3.9.3 1.3-.1zm-3.6-3c.3-.4.3-.9-.1-1.3-.4-.3-1-.3-1.3.1-.3.4-.3.9.1 1.2.4.5.9.4 1.3 0zm-3.7-2.9c.3-.4.3-1-.1-1.3-.4-.3-1-.3-1.3.1-.3.4-.3.9.1 1.3.5.3 1 .2 1.3-.1zm-4.1 5.4c.3-.4.3-.9-.1-1.3-.4-.3-1-.3-1.3.1-.3.4-.3.9.1 1.3.4.3.9.3 1.3-.1zm3.6 3c.3-.4.3-.9-.1-1.3-.4-.3-1-.3-1.3.1-.3.4-.3.9.1 1.3.4.3.9.2 1.3-.1zm3.6 2.9c.3-.4.3-.9-.1-1.3-.4-.3-1-.3-1.3.1-.3.4-.3.9.1 1.3s.9.3 1.3-.1zm3.6 3c.3-.4.3-1-.1-1.3-.4-.3-1-.3-1.3.1-.3.4-.3.9.1 1.3.4.3 1 .3 1.3-.1z"/></g></g></svg>