<svg id="Слой_1" xmlns="http://www.w3.org/2000/svg" viewBox="0 0 113.6 113.6"><style>.st0{fill-rule:evenodd;clip-rule:evenodd;fill:#d6bd9f}</style><g id="XMLID_92_"><path id="XMLID_93_" class="st0" d="M56.8 0C25.4 0 0 25.4 0 56.8s25.4 56.8 56.8 56.8 56.8-25.4 56.8-56.8S88.2 0 56.8 0zm51.3 65.1c-.1.7-.2 1.4-.4 2-8.3 2-18.9 1.3-18.9 1.3v1.7c9.3-.2 15.6-.9 18.6-1.4-.7 2.8-1.5 5.5-2.6 8.1H88.9s0 6.6-6.9 6.9c0 0-7.8 1.2-8.4-8.6h-8s1.3 10.2-7.7 9.7c0 0-8.9.4-8.2-11.4h-5.1s1.7 9.8-8.5 10.2c0 0-9.8-.4-8.5-10.2 0 0-7.9 2.1-17.6 5.7-.5-1.1-1-2.3-1.5-3.5 5.5-3.9 19.1-7.4 19.1-7.4v-1.7c-10.4 1.6-18.2 5.6-20 6.6-.2-.7-.4-1.4-.7-2.1 7.1-4.1 20.7-7.6 20.7-7.6v-2C17.6 63 9.8 66.3 6 68.2c-.8-3.6-1.2-7.5-1.2-11.4 0-28.7 23.3-52 52-52s52 23.3 52 52c0 2.3-.1 4.5-.4 6.7-8.3 2.2-19.5 1.4-19.5 1.4v1.7c10.1-.2 16.7-1.1 19.2-1.5zM8.7 41v3.4L7 47.8l3.4-1.7h3.4v-3.4l1.7-3.4-3.4 1.7H8.7zm47.8-10.2l1.7-5.1 3.4-1.7h-3.4l-1.7-5.1-1.7 5.1h-3.4l3.4 1.7 1.7 5.1zm34.1 17l1.7-6.8 3.4-1.7h-3.4l-1.7-6.8-1.7 6.8h-3.4l3.4 1.7 1.7 6.8zM37.7 73.4c-.2-18.6-12.8-30-13.6-30.7 12.1 16.5 10.2 30.7 10.2 30.7-1.8.4-1.7 3.4-1.7 3.4.2 3.6 3.4 3.4 3.4 3.4 3.2-.1 3.4-3.4 3.4-3.4.3-2.8-1.7-3.3-1.7-3.4zm22.2 0c-.2-18.6-12.8-30-13.6-30.7 12.1 16.5 10.2 30.7 10.2 30.7-1.8.4-1.7 3.4-1.7 3.4.2 3.6 3.4 3.4 3.4 3.4 3.2-.1 3.4-3.4 3.4-3.4.2-2.8-1.7-3.3-1.7-3.4zm23.8 0c-.2-18.6-12.8-30-13.6-30.7 12.1 16.5 10.2 30.7 10.2 30.7-1.7.4-1.7 3.4-1.7 3.4.2 3.6 3.4 3.4 3.4 3.4 3.2-.1 3.4-3.4 3.4-3.4.3-2.8-1.6-3.3-1.7-3.4zM41.1 59.8v1.7c3.8-.5 8.5 0 8.5 0v-1.7c-4.8-.8-8.5 0-8.5 0zm20.5 1.7l1.7 1.7c6.4 1 10.2 1.7 10.2 1.7v-1.7c-7.1-2-11.9-1.7-11.9-1.7zm-20.5 1.8V65c3.8-.5 8.5 0 8.5 0v-1.7c-4.8-.8-8.5 0-8.5 0zM61.6 65l1.7 1.7c6.4 1 10.2 1.7 10.2 1.7v-1.7c-7.1-2-11.9-1.7-11.9-1.7z"/></g></svg>