<svg id="Слой_1" xmlns="http://www.w3.org/2000/svg" viewBox="0 0 113.6 113.6"><style>.st0{fill-rule:evenodd;clip-rule:evenodd;fill:#d6bd9f}</style><g id="XMLID_28_"><g id="XMLID_168_"><path id="XMLID_169_" class="st0" d="M56.8.2C25.6.2.3 25.5.3 56.7s25.3 56.5 56.5 56.5 56.5-25.3 56.5-56.5S88 .2 56.8.2zm0 4.8c12.4 0 23.8 4.4 32.7 11.7H78c-8.9 0-16.7-.3-20.6-1.4-5.8-1.8-7.9-2.6-8.5-2.8-.6-.6-2.7-3-5.2-5.8C47.9 5.6 52.3 5 56.8 5zM25.2 15.8c.3.3 5.2 5 5.8 6.7.6 1.7 1.5 2.8 1.5 2.8s.3-13.3.1-14.1c.7-.4 1.5-.8 2.3-1.1-.4 6.4-.7 15-.6 16.4.2 2.2 1.6 6.4 1.8 7.4.2 1 .8 2.1 1.4 3.1.6 1 1.8 3.3 1.8 3.3s.6-3.6 1.9-7.6c1.4-3.9 3.1-19.8 3.1-19.8-1.2-2.4-2.3-4.1-3.3-5.5.1 0 .2-.1.4-.1 3.3 3.5 6 6.6 6 6.6l.1.1.2.1c.2.1 1.6.8 9 3.1 4.6 1.4 12.8 1.6 22.1 1.6 4.2 0 8.7 0 13.2-.1 1.5 1.3 2.8 2.8 4.1 4.3-8.9 3.6-26.6 10.9-26.1 12 .6 1.4 3.7 6.8 3.1 10.6-.6 3.9-.7 4.3-.7 4.3s14.7-5.3 20.8-6.7c2.9-.7 8.7-.7 13.5-.7.3 1.1.6 2.3.8 3.4-2.6.2-6.9.6-11 .9-4.3.3-8 1-11.1 1.9-3.1.8-5.6 1.8-7.4 2.6-1.2.5-2.5.9-3.6 1.2-1.1.3-2.1.4-2.6.5-.4.1-.6.1-.6.1l-.8.1-.2.7s-.9 3.7-1.2 5.9c-.1 1.1-1.4 3.1-2 3.9l-.4.3-.2.3v18.1c0 .7-.1 1.6-.2 2.1l-.1.3c-.2.1-.8.4-1.5 1-.9.9-1 2.1-1 3 0 .9.1 1.7.2 2.1l-.2 3.8c-.6.7-2.2 2.4-3 3.3l-.2.1-.6.2c-.5.1-1.1.1-1.6.1h-2.5c-.3 0-.7 0-1.1-.1-.5 0-.9-.4-1.1-.6 0-1.1.4-1.4.7-1.8.4-.4 1.2-.6 2.1-1 1.2-.6 1.8-1.7 2.3-2.6.4-.9.6-1.6.6-1.7v-.2l-1.4-26.2c0-.1-.2-1.7-1.2-3.6-1-1.9-2.9-4.2-6.2-5.4-2.3-.8-4.6-2.8-6.3-4.8-1.7-2-2.9-3.9-3.4-4.6l-.2-.3c-.1-.2-.2-.6-.7-1.1-.2-.2-.5-.5-1.1-.5-.6 0-1 .4-1.2.6-.2.3-.4.6-.5 1v1.2c0 1.3.7 2.4 1.6 3.6.9 1.2 2.1 2.4 3.4 3.5 2.6 2.3 5.4 4.2 7.3 4.9.9.3 1.9 1.2 2.8 2.3.9 1.1 1.7 2.4 2.1 3.1.2.3.3.6.4.7.1 1 .5 5.8.9 10.9.5 5.7.9 12 .9 13.7v.3c-.1.5-.4 1.2-1 1.9-.6.6-1.4 1.2-2.1 1.4-1.1.3-1.8 1.1-2.2 1.8-.2.4-.3.8-.4 1.1-.1-.2-.3-.4-.4-.5l-1.6-1.5.1-.4v-.1l.5-.4c.5-.3 1.1-.6 1.6-.8l.5-.2h.2l.2-.1.3-.3 1.2-1.2c.6-.7.6-1.3.7-2.2v-3.3c0-3.5-.4-8.1-.7-10.6-.1-.9-.2-1.4-.3-1.8-.2-.6-.8-2.5-1.4-4.2-.5-1.5-.9-2.9-1-3.2-.1-.6-1.1-3.7-7.2-8.4-8-6.1-9.8-11.3-10-11.8l-.1-.3-.2-.2v-.1l-.1-.4c-.1-.4-.2-.9-.3-1.4-.1-1.1-.2-2.6-.2-4 0-2.5.1-4.8.1-4.8v-.3l-.2-.4s-3.4-5.8-6-10.3c-1.3-2.3-1.4-3.2-2.4-4-.4-.3-1-.6-1.5-.9.9-.6 1.8-1.3 2.7-2zm31.6 92.6c-28.6 0-51.7-23.2-51.7-51.7 0-14.6 6.1-27.8 15.8-37.2.6.3 1.3.6 1.7.9.7.5.6 1.2 1.9 3.4 2.2 3.9 5.1 8.8 5.8 10 0 .7-.1 2.6-.1 4.7s.1 4.4.5 6c.1.4.2.8.5 1.2.4 1.1 2.6 6.6 10.7 12.7 5.7 4.4 6.4 7.1 6.4 7.2v.2s1.9 6.2 2.4 7.5c0 .1.1.7.2 1.4.1.8.2 1.8.3 3 .2 2.3.4 5.1.4 7.4 0 1 0 2-.1 2.7-.1.6-.2 1.1-.3 1.2-.6.6-.9 1-1.1 1.1-.5.2-2 .7-3.1 1.6-.4.4-.9.8-.9 1.6l-.1 1-.1.6c0 .5.3 1 .5 1.3l.9.7c.5.3 1.1.5 1.6.6.4.4 1 .8 1.8.8.2 0 .3 0 .5-.1v.2l.2.2c.1.1.5.9 1.6 1.4 1.1.1 2.1.1 3.2.1 1.8 0 3.6-.1 5.4-.3.3-.1.5-.3.7-.6.4-.5 1.2-1.4 1.9-2.1.7-.7 1.3-1.3 1.3-1.4l.3-.3V95l.3-4.4v-.1l-.1-.4c0-.3-.1-.8-.1-1.2 0-.8.2-1.5.3-1.5l.8-.6c.2-.1.7-.3 1-.8.2-.3.3-.6.4-1 .1-.7.2-1.7.2-2.4V65c.2-.3.6-.8 1-1.4.6-1 1.4-2.3 1.5-3.6.1-1 .4-2.4.7-3.5.1-.5.2-1 .3-1.4 1.3-.2 4-.7 6.7-1.8 3.4-1.5 9.6-3.7 17.7-4.2 4.2-.3 8.6-.7 11.2-.9.5 2.8.7 5.7.7 8.6.1 28.4-23 51.6-51.6 51.6zm-1.6-77.3c-.6.9-7.8 11.5-8.3 12.7 0 0-1.2 5.2-.2 6.9 1 1.7 3.9 3.3 3.9 3.3s.4-.5 1.4-2.2c1-1.7 1.6-1.4 1.8-3.8.2-2.4-1.4-3.6-.6-4.5.4-.4.9 0 1.5.4s1.3.9 2 .4c1.6-.8 5.3-6 5.7-7.9.4-1.9-.8-9.3-.8-10.7 0-1.4.2-3.9.2-3.9s-6 8.4-6.6 9.3zm11.3 2s12-7.2 20.8-10.6c4.1-1.6.1-1.9-5.7-1.9-2.1 0-4.6 0-6.9.1-4.6.1-9 .2-10.3-.1 0 0-1.1 8.7.5 10.6l1.6 1.9zm-1.6 3.4s-3.2 9-5.4 9.9c-2.2.8-3.8.6-3.5 1.4.3.9-.3 5.9-1.3 6.5-1 .6 2.9 2.2 3.5 4.8.6 2.5.6 4.2 3.2 3.7 2.5-.6 4.1-3.6 5.1-6.5 1-2.8 1.6-5.9 1.6-5.9s1-5.1.3-7c-.7-2.1-3.5-6.9-3.5-6.9zM60.3 66s.6 17.5.6 19 2.1 0 3-1.2c.9-1.2-.3-18.7-.3-18.7-1.2 1.2-3.3.9-3.3.9zM44.5 42.2c1.4-3 15.3-21.1 15.3-21.1 1-1.8-.3-1.5-5.4-1.8-5.1-.3-3.1-2.1-6.6-3.2-.2-.1-.4-.1-.6-.1-2.8 0-2.6 6.9-2.3 8.4.4 1.6-4.8 15.4-4.8 15.4s.5 2.8 1.4 4.2c.8 1.4 1.7 1.2 3-1.8z"/></g></g></svg>