<svg xmlns="http://www.w3.org/2000/svg" width="113.625" height="113.62" viewBox="0 0 113.625 113.62"><defs><style>.cls-1{fill:#d6bd9f;fill-rule:evenodd}</style></defs><path class="cls-1" d="M40.796 27.88c-5.072 5.67 0 16.43 0 16.43-11.328-10.14 0-16.43 0-16.43zM56.812.01a56.8 56.8 0 1 0 56.8 56.8 56.8 56.8 0 0 0-56.8-56.8zm0 108.8a52 52 0 1 1 52-52 52 52 0 0 1-52 52zm21.056-89.47a1.487 1.487 0 0 0-.16-.08c-6.3-2.59-9.968-.56-10.736-.07a2.18 2.18 0 0 0-.256.23c-4.4 4.64-7.184 3.53-7.184 3.53-7.456 1.36-10.96-3.66-10.96-3.66-4.784-4.46-12.784 1.84-12.784 1.84a22.7 22.7 0 0 0-7.264 9.02.913.913 0 0 0-.08.21c-2.144 6.56-.72 10.91 1.744 14.31a3.614 3.614 0 0 0 .272.36c8.8 8.93 5.744 17.09 5.36 18.02-.032.08-.048.14-.08.22a38.968 38.968 0 0 0 1.872 25.44c3.28 7.08 7.552 7.41 8.784 7.35a2.364 2.364 0 0 0 .624-.15c3.872-1.72 3.376-9.02 3.376-9.02-.592-13.44 3.648-18.27 3.648-18.27 5.968-7.17 9.136 1.82 9.136 1.82 2.88 8.88 2.112 13.41 1.888 14.4a2.275 2.275 0 0 0-.064.47c.032 8.75 1.728 8.88 1.824 8.88 3.3 2.38 7.312-1.83 7.312-1.83 5.68-5.95 7.072-14.61 7.28-16.19a1.612 1.612 0 0 0-.016-.48c-1.456-9.44-1.776-16.21-1.776-16.21a15.736 15.736 0 0 1 3.3-10.73 2.728 2.728 0 0 1 .3-.4c5.712-6.95 5.52-12.61 5.52-12.61 0-10.69-9.872-15.91-10.88-16.4zm.352 28.8a2.9 2.9 0 0 0-.544.94c-2.544 5.52-2.5 14.83.048 26.51a1.624 1.624 0 0 1 0 .68c-.336 1.74-2.1 9.82-6.272 13.02a1.729 1.729 0 0 1-2.768-1.38c-.048-5.18-.5-16.57-3.68-21.12 0 0-5.952-12.83-14.608 0 0 0-3.76 4.4-5.056 20.95-.272 3.53-1.52 3.58-2.368 2.13-2.144-3.62-5.9-10.5-3.536-19.43 0 0 3.856-13.57.16-19.84a1.722 1.722 0 0 0-.352-.41 24.626 24.626 0 0 1-5.3-7.14s-5.632-8.1 1.84-16.45c0 0 5.68-8.96 16.432 0a17.735 17.735 0 0 0 7.392 3.57 1.753 1.753 0 0 0 1.952-2.34.044.044 0 0 1-.016-.04 1.653 1.653 0 0 1 .688-1.84c2.512-1.76 9.952-6.15 15.552-1.17a12.308 12.308 0 0 1 7.3 9.02c.016.08.016.15.032.23.112.91.544 7.21-6.896 14.11zM40.796 27.88c-5.072 5.67 0 16.43 0 16.43-11.328-10.14 0-16.43 0-16.43zm47.952 7.86c0-10.69-9.872-15.91-10.88-16.4a1.487 1.487 0 0 0-.16-.08c-6.3-2.59-9.968-.56-10.736-.07a2.18 2.18 0 0 0-.256.23c-4.4 4.64-7.184 3.53-7.184 3.53-7.456 1.36-10.96-3.66-10.96-3.66-4.784-4.46-12.784 1.84-12.784 1.84a22.7 22.7 0 0 0-7.264 9.02.913.913 0 0 0-.08.21c-2.144 6.56-.72 10.91 1.744 14.31a3.614 3.614 0 0 0 .272.36c8.8 8.93 5.744 17.09 5.36 18.02-.032.08-.048.14-.08.22a38.968 38.968 0 0 0 1.872 25.44c3.28 7.08 7.552 7.41 8.784 7.35a2.364 2.364 0 0 0 .624-.15c3.872-1.72 3.376-9.02 3.376-9.02-.592-13.44 3.648-18.27 3.648-18.27 5.968-7.17 9.136 1.82 9.136 1.82 2.88 8.88 2.112 13.41 1.888 14.4a2.275 2.275 0 0 0-.064.47c.032 8.75 1.728 8.88 1.824 8.88 3.3 2.38 7.312-1.83 7.312-1.83 5.68-5.95 7.072-14.61 7.28-16.19a1.612 1.612 0 0 0-.016-.48c-1.456-9.44-1.776-16.21-1.776-16.21a15.736 15.736 0 0 1 3.3-10.73 2.728 2.728 0 0 1 .3-.4c5.712-6.95 5.52-12.61 5.52-12.61zM78.22 48.14a2.9 2.9 0 0 0-.544.94c-2.544 5.52-2.5 14.83.048 26.51a1.624 1.624 0 0 1 0 .68c-.336 1.74-2.1 9.82-6.272 13.02a1.729 1.729 0 0 1-2.768-1.38c-.048-5.18-.5-16.57-3.68-21.12 0 0-5.952-12.83-14.608 0 0 0-3.76 4.4-5.056 20.95-.272 3.53-1.52 3.58-2.368 2.13-2.144-3.62-5.9-10.5-3.536-19.43 0 0 3.856-13.57.16-19.84a1.722 1.722 0 0 0-.352-.41 24.626 24.626 0 0 1-5.3-7.14s-5.632-8.1 1.84-16.45c0 0 5.68-8.96 16.432 0a17.735 17.735 0 0 0 7.392 3.57 1.753 1.753 0 0 0 1.952-2.34.044.044 0 0 1-.016-.04 1.653 1.653 0 0 1 .688-1.84c2.512-1.76 9.952-6.15 15.552-1.17a12.308 12.308 0 0 1 7.3 9.02c.016.08.016.15.032.23.112.91.544 7.21-6.896 14.11zM40.796 27.88s-11.328 6.29 0 16.43c0 0-5.072-10.76 0-16.43zm0 0s-11.328 6.29 0 16.43c0 0-5.072-10.76 0-16.43zm47.952 7.86c0-10.69-9.872-15.91-10.88-16.4a1.487 1.487 0 0 0-.16-.08c-6.3-2.59-9.968-.56-10.736-.07a2.18 2.18 0 0 0-.256.23c-4.4 4.64-7.184 3.53-7.184 3.53-7.456 1.36-10.96-3.66-10.96-3.66-4.784-4.46-12.784 1.84-12.784 1.84a22.7 22.7 0 0 0-7.264 9.02.913.913 0 0 0-.08.21c-2.144 6.56-.72 10.91 1.744 14.31a3.614 3.614 0 0 0 .272.36c8.8 8.93 5.744 17.09 5.36 18.02-.032.08-.048.14-.08.22a38.968 38.968 0 0 0 1.872 25.44c3.28 7.08 7.552 7.41 8.784 7.35a2.364 2.364 0 0 0 .624-.15c3.872-1.72 3.376-9.02 3.376-9.02-.592-13.44 3.648-18.27 3.648-18.27 5.968-7.17 9.136 1.82 9.136 1.82 2.88 8.88 2.112 13.41 1.888 14.4a2.275 2.275 0 0 0-.064.47c.032 8.75 1.728 8.88 1.824 8.88 3.3 2.38 7.312-1.83 7.312-1.83 5.68-5.95 7.072-14.61 7.28-16.19a1.612 1.612 0 0 0-.016-.48c-1.456-9.44-1.776-16.21-1.776-16.21a15.736 15.736 0 0 1 3.3-10.73 2.728 2.728 0 0 1 .3-.4c5.712-6.95 5.52-12.61 5.52-12.61zM78.22 48.14a2.9 2.9 0 0 0-.544.94c-2.544 5.52-2.5 14.83.048 26.51a1.624 1.624 0 0 1 0 .68c-.336 1.74-2.1 9.82-6.272 13.02a1.729 1.729 0 0 1-2.768-1.38c-.048-5.18-.5-16.57-3.68-21.12 0 0-5.952-12.83-14.608 0 0 0-3.76 4.4-5.056 20.95-.272 3.53-1.52 3.58-2.368 2.13-2.144-3.62-5.9-10.5-3.536-19.43 0 0 3.856-13.57.16-19.84a1.722 1.722 0 0 0-.352-.41 24.626 24.626 0 0 1-5.3-7.14s-5.632-8.1 1.84-16.45c0 0 5.68-8.96 16.432 0a17.735 17.735 0 0 0 7.392 3.57 1.753 1.753 0 0 0 1.952-2.34.044.044 0 0 1-.016-.04 1.653 1.653 0 0 1 .688-1.84c2.512-1.76 9.952-6.15 15.552-1.17a12.308 12.308 0 0 1 7.3 9.02c.016.08.016.15.032.23.112.91.544 7.21-6.896 14.11zm-37.424-3.83s-5.072-10.76 0-16.43c0 0-11.328 6.29 0 16.43zm0-16.43s-11.328 6.29 0 16.43c0 0-5.072-10.76 0-16.43zm0 0s-11.328 6.29 0 16.43c0 0-5.072-10.76 0-16.43z"/></svg>