<svg xmlns="http://www.w3.org/2000/svg"><defs><style>.cls-1{fill-rule:evenodd}</style></defs><path id="close" class="cls-1" d="M576.343 556.661a12.5 12.5 0 1 0 3.662 8.838 12.407 12.407 0 0 0-3.662-8.838zm-1 16.672a11.079 11.079 0 1 1 0-15.668 11.012 11.012 0 0 1-.004 15.668zm-2.326-13.342a.708.708 0 0 0-1 0l-4.5 4.5-4.5-4.5a.71.71 0 1 0-1 1l4.5 4.5L562 570a.708.708 0 0 0 0 1 .715.715 0 0 0 .5.211.692.692 0 0 0 .5-.211l4.5-4.5 4.5 4.5a.715.715 0 0 0 .5.211.686.686 0 0 0 .5-.211.71.71 0 0 0 0-1l-4.493-4.5 4.5-4.5a.707.707 0 0 0 .006-1.009z" transform="translate(-555 -553)"/></svg>