<?xml version="1.0" encoding="utf-8"?>
<!-- Generator: Adobe Illustrator 15.0.0, SVG Export Plug-In . SVG Version: 6.00 Build 0)  -->
<!DOCTYPE svg PUBLIC "-//W3C//DTD SVG 1.1//EN" "http://www.w3.org/Graphics/SVG/1.1/DTD/svg11.dtd">
<svg version="1.1" id="Слой_1" xmlns="http://www.w3.org/2000/svg" xmlns:xlink="http://www.w3.org/1999/xlink" x="0px" y="0px"
	 width="207px" height="19.939px" viewBox="0 0 207 19.939" enable-background="new 0 0 207 19.939" xml:space="preserve">
<circle fill="#FFFFFF" cx="2" cy="12" r="2"/>
<circle fill="#FFFFFF" cx="10" cy="12" r="2"/>
<circle fill="#FFFFFF" cx="18" cy="12" r="2"/>
<circle fill="#FFFFFF" cx="26" cy="12" r="2"/>
<circle fill="#FFFFFF" cx="34" cy="12" r="2"/>
<circle fill="#FFFFFF" cx="42" cy="12" r="2"/>
<circle fill="#FFFFFF" cx="50" cy="12" r="2"/>
<circle fill="#FFFFFF" cx="58" cy="12" r="2"/>
<circle fill="#FFFFFF" cx="66" cy="12" r="2"/>
<circle fill="#FFFFFF" cx="74" cy="12" r="2"/>
<circle fill="#FFFFFF" cx="133" cy="12" r="2"/>
<path fill="#FFFFFF" d="M141,10c1.104,0,2,0.896,2,2s-0.896,2-2,2s-2-0.896-2-2C139.004,10.897,139.896,10.003,141,10z"/>
<path fill="#FFFFFF" d="M149,10c1.104,0,2,0.896,2,2s-0.896,2-2,2s-2-0.896-2-2C147.004,10.897,147.896,10.003,149,10z"/>
<path fill="#FFFFFF" d="M157,10c1.104,0,2,0.896,2,2s-0.896,2-2,2s-2-0.896-2-2C155.004,10.897,155.896,10.003,157,10z"/>
<path fill="#FFFFFF" d="M165,10c1.104,0,2,0.896,2,2s-0.896,2-2,2s-2-0.896-2-2C163.004,10.897,163.896,10.003,165,10z"/>
<path fill="#FFFFFF" d="M173,10c1.104,0,2,0.896,2,2s-0.896,2-2,2s-2-0.896-2-2C171.004,10.897,171.896,10.003,173,10z"/>
<path fill="#FFFFFF" d="M181,10c1.104,0,2,0.896,2,2s-0.896,2-2,2s-2-0.896-2-2C179.004,10.897,179.896,10.003,181,10z"/>
<path fill="#FFFFFF" d="M189,10c1.104,0,2,0.896,2,2s-0.896,2-2,2s-2-0.896-2-2C187.004,10.897,187.896,10.003,189,10z"/>
<path fill="#FFFFFF" d="M197,10c1.104,0,2,0.896,2,2s-0.896,2-2,2s-2-0.896-2-2C195.004,10.897,195.896,10.003,197,10z"/>
<path fill="#FFFFFF" d="M205,10c1.104,0,2,0.896,2,2s-0.896,2-2,2s-2-0.896-2-2C203.004,10.897,203.896,10.003,205,10z"/>
<path fill="#A83217" d="M109.664,16.23c-0.045,2.76-1.535,3.76-3.116,3.67s-2.681-0.819-3.8-0.819l-0.046,0.029
	c-1.123,0-2.223,0.75-3.8,0.841c-1.577,0.09-3.07-0.86-3.116-3.62c0.092-2.54,2.047-2.73,3.712-5.73
	c1.466-2.64,3.208-2.43,3.208-2.43h0.046c0,0,1.756-0.2,3.207,2.43C107.609,13.61,109.572,13.69,109.664,16.23L109.664,16.23z"/>
<path fill="#A83217" d="M99.875,7.03c1.4-0.1,2.415-1.76,2.266-3.699c-0.149-1.94-1.4-3.44-2.8-3.33
	c-1.4,0.109-2.415,1.76-2.266,3.71C97.224,5.66,98.475,7.14,99.875,7.03z"/>
<path fill="#A83217" d="M105.184,7.07c1.367,0.37,2.899-0.869,3.424-2.77c0.525-1.9-0.162-3.74-1.53-4.11
	c-1.369-0.37-2.9,0.87-3.425,2.771C103.127,4.86,103.814,6.7,105.184,7.07z"/>
<path fill="#A83217" d="M111.523,5.55c-1.192-0.32-2.527,0.76-2.982,2.41c-0.455,1.649,0.141,3.25,1.333,3.58
	s2.526-0.761,2.981-2.42C113.311,7.46,112.715,5.87,111.523,5.55z"/>
<path fill="#A83217" d="M97.459,7.96c-0.455-1.65-1.791-2.73-2.982-2.41s-1.789,1.92-1.333,3.57c0.456,1.649,1.791,2.739,2.982,2.42
	C97.317,11.22,97.915,9.61,97.459,7.96z"/>
</svg>
