<svg xmlns="http://www.w3.org/2000/svg" width="54" height="46" viewBox="0 0 54 46"><defs><style>.cls-1{fill:#9e140f;fill-rule:evenodd}</style></defs><path class="cls-1" d="M27.58 31.92c.09.42.06.08 0 0zm25.67-13.67l-8.04 2.15-2.64-4.54-.64.58c-.19-.48-.77 1.93-.42.37l-7.1 6.37 3-16-4.64 2.64L26.98 0l-5.76 9.83-1.04-.59a.406.406 0 0 0-.05.17c-.25-.09-.3-.21-.27-.35l-3.29-1.87 3.02 16-8.17-7.3-2.63 4.53L1 18l1 5 1.64 4.36L0 29.75l2.06 1.58.29.22 1.35 1.03.98.75.41.31.59.45 7.83 5.99v2.77L12.82 46l14.19-1.9 14.2 1.88-.69-3.15-.01-2.77 13.5-10.34-3.65-2.4z"/></svg>